<svg width="1216" height="491" viewBox="0 0 1216 491" fill="none" xmlns="http://www.w3.org/2000/svg">
<path d="M383.517 391.268H381.781V379.468H385.333C386.24 379.468 387 379.638 387.613 379.98C388.232 380.321 388.696 380.782 389.005 381.364C389.32 381.94 389.477 382.585 389.477 383.3C389.477 384.014 389.317 384.673 388.997 385.276C388.683 385.873 388.216 386.353 387.597 386.716C386.979 387.078 386.224 387.26 385.333 387.26H383.517V391.268ZM383.517 386.668L382.733 385.82H385.133C385.699 385.82 386.173 385.718 386.557 385.516C386.947 385.308 387.24 385.014 387.437 384.636C387.635 384.257 387.733 383.812 387.733 383.3C387.733 382.788 387.637 382.353 387.445 381.996C387.253 381.638 386.965 381.369 386.581 381.188C386.197 381.001 385.715 380.908 385.133 380.908H382.733L383.517 379.996V386.668ZM391.425 391.268V382.772H393.161V385.484L392.697 385.276C392.734 384.929 392.822 384.598 392.961 384.284C393.099 383.969 393.283 383.689 393.513 383.444C393.747 383.193 394.035 382.996 394.377 382.852C394.718 382.708 395.113 382.636 395.561 382.636C395.902 382.636 396.177 382.662 396.385 382.716C396.598 382.769 396.729 382.812 396.777 382.844L396.409 384.476C396.355 384.438 396.246 384.39 396.081 384.332C395.921 384.273 395.697 384.244 395.409 384.244C394.971 384.244 394.609 384.321 394.321 384.476C394.033 384.63 393.803 384.836 393.633 385.092C393.462 385.348 393.339 385.628 393.265 385.932C393.195 386.23 393.161 386.532 393.161 386.836V391.268H391.425ZM398.349 391.268V382.772H400.061V391.268H398.349ZM399.213 381.012C398.914 381.012 398.655 380.932 398.437 380.772C398.223 380.606 398.117 380.38 398.117 380.092C398.117 379.809 398.223 379.588 398.437 379.428C398.655 379.262 398.914 379.18 399.213 379.18C399.506 379.18 399.759 379.262 399.973 379.428C400.191 379.588 400.301 379.809 400.301 380.092C400.301 380.38 400.191 380.606 399.973 380.772C399.759 380.932 399.506 381.012 399.213 381.012ZM405.866 391.436C405.359 391.436 404.882 391.38 404.434 391.268C403.986 391.156 403.591 390.993 403.25 390.78C402.914 390.561 402.65 390.292 402.458 389.972C402.271 389.652 402.178 389.281 402.178 388.86C402.178 388.822 402.178 388.785 402.178 388.748C402.178 388.705 402.178 388.67 402.178 388.644H403.906C403.906 388.67 403.906 388.694 403.906 388.716C403.906 388.737 403.906 388.766 403.906 388.804C403.906 389.193 404.084 389.489 404.442 389.692C404.804 389.889 405.295 389.988 405.914 389.988C406.276 389.988 406.607 389.95 406.906 389.876C407.21 389.801 407.45 389.686 407.626 389.532C407.807 389.377 407.898 389.18 407.898 388.94C407.898 388.55 407.706 388.273 407.322 388.108C406.943 387.942 406.367 387.796 405.594 387.668C405.172 387.593 404.764 387.497 404.37 387.38C403.98 387.262 403.628 387.108 403.314 386.916C403.004 386.718 402.756 386.476 402.57 386.188C402.388 385.894 402.298 385.542 402.298 385.132C402.298 384.598 402.458 384.145 402.778 383.772C403.098 383.398 403.53 383.116 404.074 382.924C404.618 382.732 405.218 382.636 405.874 382.636C406.508 382.636 407.095 382.74 407.634 382.948C408.178 383.15 408.615 383.446 408.946 383.836C409.276 384.22 409.442 384.692 409.442 385.252C409.442 385.273 409.442 385.297 409.442 385.324C409.442 385.35 409.442 385.374 409.442 385.396H407.722C407.722 385.374 407.722 385.356 407.722 385.34C407.722 385.324 407.722 385.305 407.722 385.284C407.722 385.006 407.634 384.78 407.458 384.604C407.282 384.428 407.052 384.297 406.77 384.212C406.492 384.121 406.196 384.076 405.882 384.076C405.594 384.076 405.303 384.108 405.01 384.172C404.722 384.23 404.482 384.334 404.29 384.484C404.098 384.628 404.002 384.825 404.002 385.076C404.002 385.332 404.095 385.537 404.282 385.692C404.468 385.841 404.732 385.966 405.074 386.068C405.415 386.164 405.812 386.252 406.266 386.332C406.682 386.406 407.087 386.502 407.482 386.62C407.876 386.732 408.231 386.881 408.546 387.068C408.866 387.254 409.119 387.494 409.306 387.788C409.498 388.081 409.594 388.441 409.594 388.868C409.594 389.31 409.492 389.692 409.29 390.012C409.087 390.332 408.81 390.598 408.458 390.812C408.111 391.02 407.714 391.174 407.266 391.276C406.823 391.382 406.356 391.436 405.866 391.436ZM416.912 391.268V387.668C416.912 387.342 416.912 387.062 416.912 386.828C416.912 386.588 416.912 386.385 416.912 386.22C416.912 386.012 416.896 385.79 416.864 385.556C416.837 385.321 416.773 385.102 416.672 384.9C416.576 384.692 416.424 384.524 416.216 384.396C416.008 384.268 415.723 384.204 415.36 384.204C414.997 384.204 414.691 384.276 414.44 384.42C414.189 384.564 413.987 384.756 413.832 384.996C413.677 385.23 413.565 385.494 413.496 385.788C413.427 386.076 413.392 386.366 413.392 386.66L412.656 386.26C412.656 385.593 412.787 384.988 413.048 384.444C413.315 383.894 413.688 383.457 414.168 383.132C414.653 382.801 415.224 382.636 415.88 382.636C416.547 382.636 417.08 382.774 417.48 383.052C417.885 383.324 418.179 383.697 418.36 384.172C418.541 384.641 418.632 385.174 418.632 385.772C418.632 385.99 418.632 386.276 418.632 386.628C418.632 386.98 418.632 387.388 418.632 387.852V391.268H416.912ZM411.656 391.268V382.772H413.392V391.268H411.656ZM422.144 391.268V387.676C422.144 387.324 422.144 387.03 422.144 386.796C422.144 386.556 422.144 386.356 422.144 386.196C422.144 385.977 422.131 385.753 422.104 385.524C422.077 385.289 422.013 385.073 421.912 384.876C421.811 384.678 421.653 384.518 421.44 384.396C421.232 384.268 420.941 384.204 420.568 384.204C420.2 384.204 419.891 384.276 419.64 384.42C419.395 384.558 419.197 384.745 419.048 384.98C418.899 385.209 418.792 385.462 418.728 385.74C418.664 386.017 418.632 386.292 418.632 386.564L417.896 386.18C417.896 385.54 418.024 384.95 418.28 384.412C418.541 383.873 418.909 383.444 419.384 383.124C419.864 382.798 420.432 382.636 421.088 382.636C421.728 382.636 422.253 382.764 422.664 383.02C423.075 383.276 423.379 383.63 423.576 384.084C423.773 384.537 423.872 385.062 423.872 385.66C423.872 385.889 423.872 386.177 423.872 386.524C423.872 386.87 423.872 387.273 423.872 387.732V391.268H422.144ZM429.172 391.436C428.532 391.436 427.969 391.334 427.484 391.132C427.004 390.929 426.63 390.638 426.364 390.26C426.097 389.881 425.964 389.425 425.964 388.892C425.964 388.321 426.113 387.849 426.412 387.476C426.716 387.102 427.132 386.814 427.66 386.612C428.193 386.404 428.798 386.268 429.476 386.204C430.484 386.102 431.193 386.004 431.604 385.908C432.02 385.812 432.228 385.654 432.228 385.436C432.228 385.43 432.228 385.425 432.228 385.42C432.228 384.988 432.044 384.66 431.676 384.436C431.308 384.212 430.782 384.1 430.1 384.1C429.38 384.1 428.822 384.228 428.428 384.484C428.038 384.734 427.844 385.134 427.844 385.684H426.14C426.14 385.033 426.308 384.481 426.644 384.028C426.985 383.574 427.454 383.23 428.052 382.996C428.649 382.756 429.334 382.636 430.108 382.636C430.817 382.636 431.462 382.745 432.044 382.964C432.63 383.177 433.097 383.497 433.444 383.924C433.79 384.35 433.964 384.881 433.964 385.516C433.964 385.628 433.964 385.74 433.964 385.852C433.964 385.958 433.964 386.068 433.964 386.18V389.572C433.964 389.769 433.972 389.961 433.988 390.148C434.004 390.329 434.033 390.492 434.076 390.636C434.124 390.801 434.18 390.937 434.244 391.044C434.313 391.15 434.369 391.225 434.412 391.268H432.684C432.652 391.236 432.604 391.169 432.54 391.068C432.481 390.961 432.428 390.838 432.38 390.7C432.332 390.566 432.294 390.414 432.268 390.244C432.246 390.068 432.236 389.878 432.236 389.676L432.556 389.9C432.396 390.209 432.153 390.478 431.828 390.708C431.508 390.937 431.121 391.116 430.668 391.244C430.22 391.372 429.721 391.436 429.172 391.436ZM429.532 389.996C430.028 389.996 430.478 389.918 430.884 389.764C431.294 389.604 431.622 389.364 431.868 389.044C432.113 388.718 432.236 388.31 432.236 387.82V386.412L432.644 386.948C432.302 387.081 431.884 387.19 431.388 387.276C430.897 387.356 430.39 387.422 429.868 387.476C429.148 387.54 428.606 387.665 428.244 387.852C427.881 388.033 427.7 388.337 427.7 388.764C427.7 389.174 427.849 389.484 428.148 389.692C428.452 389.894 428.913 389.996 429.532 389.996ZM441.26 380.908L442.044 379.996V385.244L441.5 384.748H446.292V386.188H441.5L442.044 385.66V391.268H440.316V379.468H447.004V380.908H441.26ZM449.077 391.268V382.772H450.789V391.268H449.077ZM449.941 381.012C449.642 381.012 449.383 380.932 449.165 380.772C448.951 380.606 448.845 380.38 448.845 380.092C448.845 379.809 448.951 379.588 449.165 379.428C449.383 379.262 449.642 379.18 449.941 379.18C450.234 379.18 450.487 379.262 450.701 379.428C450.919 379.588 451.029 379.809 451.029 380.092C451.029 380.38 450.919 380.606 450.701 380.772C450.487 380.932 450.234 381.012 449.941 381.012ZM459.298 391.268V387.348C459.298 387.118 459.298 386.924 459.298 386.764C459.298 386.604 459.298 386.454 459.298 386.316C459.298 385.9 459.234 385.534 459.106 385.22C458.978 384.9 458.767 384.652 458.474 384.476C458.18 384.294 457.788 384.204 457.298 384.204C456.866 384.204 456.474 384.31 456.122 384.524C455.775 384.737 455.498 385.028 455.29 385.396C455.087 385.758 454.986 386.172 454.986 386.636L454.242 386.268C454.242 385.58 454.404 384.964 454.73 384.42C455.055 383.87 455.49 383.436 456.034 383.116C456.583 382.796 457.183 382.636 457.834 382.636C458.506 382.636 459.079 382.766 459.554 383.028C460.034 383.284 460.399 383.652 460.65 384.132C460.906 384.606 461.034 385.174 461.034 385.836C461.034 386.081 461.034 386.353 461.034 386.652C461.034 386.95 461.034 387.238 461.034 387.516V391.268H459.298ZM453.25 391.268V382.772H454.986V391.268H453.25ZM466.312 391.436C465.672 391.436 465.11 391.334 464.624 391.132C464.144 390.929 463.771 390.638 463.504 390.26C463.238 389.881 463.104 389.425 463.104 388.892C463.104 388.321 463.254 387.849 463.552 387.476C463.856 387.102 464.272 386.814 464.8 386.612C465.334 386.404 465.939 386.268 466.616 386.204C467.624 386.102 468.334 386.004 468.744 385.908C469.16 385.812 469.368 385.654 469.368 385.436C469.368 385.43 469.368 385.425 469.368 385.42C469.368 384.988 469.184 384.66 468.816 384.436C468.448 384.212 467.923 384.1 467.24 384.1C466.52 384.1 465.963 384.228 465.568 384.484C465.179 384.734 464.984 385.134 464.984 385.684H463.28C463.28 385.033 463.448 384.481 463.784 384.028C464.126 383.574 464.595 383.23 465.192 382.996C465.79 382.756 466.475 382.636 467.248 382.636C467.958 382.636 468.603 382.745 469.184 382.964C469.771 383.177 470.238 383.497 470.584 383.924C470.931 384.35 471.104 384.881 471.104 385.516C471.104 385.628 471.104 385.74 471.104 385.852C471.104 385.958 471.104 386.068 471.104 386.18V389.572C471.104 389.769 471.112 389.961 471.128 390.148C471.144 390.329 471.174 390.492 471.216 390.636C471.264 390.801 471.32 390.937 471.384 391.044C471.454 391.15 471.51 391.225 471.552 391.268H469.824C469.792 391.236 469.744 391.169 469.68 391.068C469.622 390.961 469.568 390.838 469.52 390.7C469.472 390.566 469.435 390.414 469.408 390.244C469.387 390.068 469.376 389.878 469.376 389.676L469.696 389.9C469.536 390.209 469.294 390.478 468.968 390.708C468.648 390.937 468.262 391.116 467.808 391.244C467.36 391.372 466.862 391.436 466.312 391.436ZM466.672 389.996C467.168 389.996 467.619 389.918 468.024 389.764C468.435 389.604 468.763 389.364 469.008 389.044C469.254 388.718 469.376 388.31 469.376 387.82V386.412L469.784 386.948C469.443 387.081 469.024 387.19 468.528 387.276C468.038 387.356 467.531 387.422 467.008 387.476C466.288 387.54 465.747 387.665 465.384 387.852C465.022 388.033 464.84 388.337 464.84 388.764C464.84 389.174 464.99 389.484 465.288 389.692C465.592 389.894 466.054 389.996 466.672 389.996ZM479.41 391.268V387.348C479.41 387.118 479.41 386.924 479.41 386.764C479.41 386.604 479.41 386.454 479.41 386.316C479.41 385.9 479.346 385.534 479.218 385.22C479.09 384.9 478.88 384.652 478.586 384.476C478.293 384.294 477.901 384.204 477.41 384.204C476.978 384.204 476.586 384.31 476.234 384.524C475.888 384.737 475.61 385.028 475.402 385.396C475.2 385.758 475.098 386.172 475.098 386.636L474.354 386.268C474.354 385.58 474.517 384.964 474.842 384.42C475.168 383.87 475.602 383.436 476.146 383.116C476.696 382.796 477.296 382.636 477.946 382.636C478.618 382.636 479.192 382.766 479.666 383.028C480.146 383.284 480.512 383.652 480.762 384.132C481.018 384.606 481.146 385.174 481.146 385.836C481.146 386.081 481.146 386.353 481.146 386.652C481.146 386.95 481.146 387.238 481.146 387.516V391.268H479.41ZM473.362 391.268V382.772H475.098V391.268H473.362ZM487.601 391.436C486.748 391.436 485.982 391.257 485.305 390.9C484.633 390.537 484.102 390.022 483.713 389.356C483.329 388.689 483.137 387.905 483.137 387.004C483.137 386.102 483.329 385.326 483.713 384.676C484.102 384.02 484.633 383.516 485.305 383.164C485.982 382.812 486.748 382.636 487.601 382.636C488.246 382.636 488.82 382.734 489.321 382.932C489.822 383.124 490.246 383.38 490.593 383.7C490.94 384.02 491.204 384.372 491.385 384.756C491.566 385.14 491.657 385.524 491.657 385.908C491.657 385.913 491.657 385.921 491.657 385.932C491.657 385.942 491.657 385.953 491.657 385.964H489.937C489.937 385.937 489.934 385.908 489.929 385.876C489.924 385.838 489.918 385.804 489.913 385.772C489.87 385.457 489.748 385.177 489.545 384.932C489.342 384.686 489.076 384.492 488.745 384.348C488.414 384.204 488.028 384.132 487.585 384.132C487.1 384.132 486.652 384.238 486.241 384.452C485.836 384.66 485.51 384.977 485.265 385.404C485.02 385.83 484.897 386.364 484.897 387.004C484.897 387.644 485.017 388.182 485.257 388.62C485.502 389.052 485.828 389.38 486.233 389.604C486.644 389.828 487.094 389.94 487.585 389.94C488.113 389.94 488.545 389.86 488.881 389.7C489.217 389.534 489.47 389.316 489.641 389.044C489.812 388.766 489.91 388.468 489.937 388.148H491.657C491.657 388.532 491.569 388.921 491.393 389.316C491.217 389.705 490.958 390.06 490.617 390.38C490.276 390.7 489.852 390.956 489.345 391.148C488.844 391.34 488.262 391.436 487.601 391.436ZM494.341 387.628V386.276H500.597L500.357 386.676C500.357 386.644 500.357 386.612 500.357 386.58C500.357 386.542 500.357 386.51 500.357 386.484C500.357 386.052 500.263 385.654 500.077 385.292C499.89 384.924 499.61 384.63 499.237 384.412C498.869 384.188 498.407 384.076 497.853 384.076C497.298 384.076 496.81 384.196 496.389 384.436C495.973 384.67 495.647 385.006 495.413 385.444C495.183 385.876 495.069 386.396 495.069 387.004C495.069 387.622 495.181 388.156 495.405 388.604C495.629 389.046 495.951 389.388 496.373 389.628C496.794 389.868 497.298 389.988 497.885 389.988C498.295 389.988 498.65 389.948 498.949 389.868C499.253 389.782 499.501 389.67 499.693 389.532C499.89 389.393 500.039 389.244 500.141 389.084C500.242 388.918 500.301 388.756 500.317 388.596H502.045C502.013 388.942 501.898 389.286 501.701 389.628C501.509 389.964 501.234 390.27 500.877 390.548C500.525 390.82 500.093 391.038 499.581 391.204C499.074 391.364 498.49 391.444 497.829 391.444C496.943 391.444 496.167 391.257 495.501 390.884C494.834 390.51 494.314 389.993 493.941 389.332C493.567 388.665 493.381 387.902 493.381 387.044C493.381 386.169 493.57 385.401 493.949 384.74C494.327 384.078 494.853 383.564 495.525 383.196C496.197 382.822 496.967 382.636 497.837 382.636C498.722 382.636 499.487 382.822 500.133 383.196C500.783 383.569 501.285 384.084 501.637 384.74C501.989 385.396 502.165 386.15 502.165 387.004C502.165 387.105 502.162 387.222 502.157 387.356C502.151 387.489 502.143 387.58 502.133 387.628H494.341ZM508.176 391.268V389.804C508.218 389.606 508.349 389.366 508.568 389.084C508.786 388.796 509.053 388.489 509.368 388.164C509.682 387.838 510.013 387.513 510.36 387.188C510.712 386.862 511.04 386.564 511.344 386.292C511.717 385.95 512.082 385.598 512.44 385.236C512.797 384.868 513.093 384.481 513.328 384.076C513.568 383.665 513.688 383.233 513.688 382.78C513.688 382.14 513.536 381.646 513.232 381.3C512.933 380.948 512.477 380.772 511.864 380.772C511.373 380.772 510.981 380.876 510.688 381.084C510.394 381.292 510.184 381.585 510.056 381.964C509.928 382.337 509.864 382.774 509.864 383.276H508.12C508.12 382.481 508.258 381.788 508.536 381.196C508.818 380.598 509.24 380.137 509.8 379.812C510.36 379.481 511.056 379.316 511.888 379.316C512.672 379.316 513.325 379.465 513.848 379.764C514.376 380.062 514.77 380.473 515.032 380.996C515.298 381.518 515.432 382.118 515.432 382.796C515.432 383.244 515.346 383.673 515.176 384.084C515.01 384.489 514.792 384.87 514.52 385.228C514.253 385.585 513.965 385.916 513.656 386.22C513.346 386.524 513.053 386.798 512.776 387.044C512.322 387.438 511.906 387.812 511.528 388.164C511.154 388.51 510.845 388.825 510.6 389.108C510.36 389.385 510.213 389.62 510.16 389.812H515.464V391.268H508.176ZM521.333 391.436C520.656 391.436 520.077 391.278 519.597 390.964C519.117 390.649 518.728 390.214 518.429 389.66C518.13 389.1 517.912 388.454 517.773 387.724C517.634 386.993 517.565 386.217 517.565 385.396C517.565 384.574 517.634 383.798 517.773 383.068C517.912 382.332 518.13 381.684 518.429 381.124C518.728 380.558 519.117 380.116 519.597 379.796C520.077 379.476 520.656 379.316 521.333 379.316C522.016 379.316 522.597 379.476 523.077 379.796C523.557 380.116 523.944 380.558 524.237 381.124C524.536 381.684 524.754 382.332 524.893 383.068C525.032 383.798 525.101 384.574 525.101 385.396C525.101 386.217 525.032 386.993 524.893 387.724C524.754 388.454 524.536 389.1 524.237 389.66C523.944 390.214 523.557 390.649 523.077 390.964C522.597 391.278 522.016 391.436 521.333 391.436ZM521.333 389.996C521.786 389.996 522.16 389.828 522.453 389.492C522.752 389.156 522.976 388.646 523.125 387.964C523.274 387.281 523.349 386.425 523.349 385.396C523.349 384.361 523.274 383.505 523.125 382.828C522.976 382.145 522.752 381.633 522.453 381.292C522.16 380.95 521.786 380.78 521.333 380.78C520.885 380.78 520.512 380.95 520.213 381.292C519.914 381.633 519.69 382.145 519.541 382.828C519.392 383.505 519.317 384.361 519.317 385.396C519.317 386.43 519.392 387.289 519.541 387.972C519.69 388.649 519.914 389.156 520.213 389.492C520.512 389.828 520.885 389.996 521.333 389.996ZM527.085 391.268V389.804C527.128 389.606 527.258 389.366 527.477 389.084C527.696 388.796 527.962 388.489 528.277 388.164C528.592 387.838 528.922 387.513 529.269 387.188C529.621 386.862 529.949 386.564 530.253 386.292C530.626 385.95 530.992 385.598 531.349 385.236C531.706 384.868 532.002 384.481 532.237 384.076C532.477 383.665 532.597 383.233 532.597 382.78C532.597 382.14 532.445 381.646 532.141 381.3C531.842 380.948 531.386 380.772 530.773 380.772C530.282 380.772 529.89 380.876 529.597 381.084C529.304 381.292 529.093 381.585 528.965 381.964C528.837 382.337 528.773 382.774 528.773 383.276H527.029C527.029 382.481 527.168 381.788 527.445 381.196C527.728 380.598 528.149 380.137 528.709 379.812C529.269 379.481 529.965 379.316 530.797 379.316C531.581 379.316 532.234 379.465 532.757 379.764C533.285 380.062 533.68 380.473 533.941 380.996C534.208 381.518 534.341 382.118 534.341 382.796C534.341 383.244 534.256 383.673 534.085 384.084C533.92 384.489 533.701 384.87 533.429 385.228C533.162 385.585 532.874 385.916 532.565 386.22C532.256 386.524 531.962 386.798 531.685 387.044C531.232 387.438 530.816 387.812 530.437 388.164C530.064 388.51 529.754 388.825 529.509 389.108C529.269 389.385 529.122 389.62 529.069 389.812H534.373V391.268H527.085ZM541.898 385.052C542.368 385.068 542.752 385.201 543.05 385.452C543.354 385.697 543.578 386.025 543.722 386.436C543.872 386.841 543.946 387.292 543.946 387.788C543.946 388.465 543.818 389.081 543.562 389.636C543.306 390.185 542.912 390.622 542.378 390.948C541.85 391.273 541.173 391.436 540.346 391.436C539.658 391.436 539.077 391.345 538.602 391.164C538.128 390.977 537.746 390.716 537.458 390.38C537.176 390.038 536.968 389.633 536.834 389.164C536.706 388.694 536.642 388.177 536.642 387.612C536.642 387.606 536.642 387.601 536.642 387.596C536.642 387.59 536.642 387.585 536.642 387.58H538.386C538.386 387.585 538.386 387.59 538.386 387.596C538.386 387.601 538.386 387.606 538.386 387.612C538.386 388.236 538.464 388.721 538.618 389.068C538.778 389.414 539.005 389.657 539.298 389.796C539.597 389.929 539.954 389.996 540.37 389.996C540.93 389.996 541.373 389.814 541.698 389.452C542.029 389.084 542.194 388.516 542.194 387.748C542.194 387.47 542.165 387.212 542.106 386.972C542.053 386.732 541.954 386.524 541.81 386.348C541.666 386.166 541.466 386.025 541.21 385.924C540.96 385.817 540.637 385.764 540.242 385.764H539.81V384.444H540.242C540.626 384.444 540.944 384.393 541.194 384.292C541.45 384.185 541.65 384.044 541.794 383.868C541.938 383.686 542.04 383.486 542.098 383.268C542.162 383.044 542.194 382.814 542.194 382.58C542.194 381.94 542.032 381.478 541.706 381.196C541.381 380.913 540.944 380.772 540.394 380.772C539.792 380.772 539.306 380.932 538.938 381.252C538.57 381.572 538.386 382.153 538.386 382.996H536.642C536.642 382.468 536.714 381.98 536.858 381.532C537.008 381.084 537.232 380.694 537.53 380.364C537.834 380.028 538.221 379.769 538.69 379.588C539.16 379.406 539.717 379.316 540.362 379.316C541.184 379.316 541.858 379.46 542.386 379.748C542.914 380.036 543.306 380.42 543.562 380.9C543.818 381.38 543.946 381.91 543.946 382.492C543.946 382.934 543.872 383.348 543.722 383.732C543.578 384.11 543.354 384.42 543.05 384.66C542.752 384.9 542.368 385.03 541.898 385.052Z" fill="white"/>
<path d="M557.814 161.439C561.49 165.418 562.961 169.021 563.206 172.623C610.746 258.011 776.158 260.162 1034.69 338.721C1092.03 358.454 1141.41 379.694 1175.84 403.568C1199.86 420.183 1215.54 437.659 1214.44 456.747C1213.21 476.803 1193.73 496.699 1163.34 516.432C1131.85 536.919 1090.44 556.545 1050.86 576.333C1018.64 592.41 940.59 638.008 921.475 673.281H862.907C867.686 656.451 886.8 639.728 911.428 623.06C939.242 604.294 969.384 585.635 995.359 566.762C1029.79 541.758 1058.34 516.486 1072.8 491.053C1094.61 452.607 1085.54 416.419 1028.56 383.888C1003.2 369.424 966.688 357.003 931.032 344.474C892.804 331.031 610.256 262.313 563.083 175.957C560.755 171.655 558.917 167.3 557.814 162.891C557.814 162.407 557.814 161.923 557.814 161.439Z" fill="#0D0D0E" stroke="url(#paint0_linear_389_812)" stroke-width="2" stroke-miterlimit="10"/>
<path d="M557.08 159.772C557.325 160.31 557.57 160.847 557.692 161.439C557.57 161.6 557.57 161.708 557.447 161.869C547.155 181.818 541.764 199.616 539.436 215.693C529.266 288.337 583.3 325.385 537.598 361.197C481.603 404.966 244.513 440.938 218.169 556.814C219.517 582.248 238.264 606.068 266.813 629.082C283.844 642.847 281.148 657.096 284.947 672.206C285.069 672.582 285.069 672.958 285.192 673.389H159.356C97.4798 630.641 -31.2964 552.781 9.26017 495.462C48.3464 440.239 248.066 403.622 372.799 366.09C501.085 327.536 524.12 251.612 536.985 203.595C535.637 188.647 540.906 174.021 557.08 159.772Z" fill="url(#paint1_linear_389_812)" stroke="url(#paint2_linear_389_812)" stroke-width="2" stroke-miterlimit="10"/>
<path d="M539.557 215.693C561.244 284.251 700.313 356.572 568.473 412.064C525.344 432.12 474.005 451.047 423.646 470.082C384.315 484.976 347.434 499.978 323.786 516.594C286.661 542.78 276.123 568.428 286.171 593.862C296.585 620.371 322.806 645.267 351.968 669.84C353.316 670.969 339.102 672.152 340.328 673.281H285.19C285.068 672.905 285.068 672.528 284.945 672.098C281.024 656.989 283.843 642.739 266.811 628.974C238.262 605.96 219.638 582.14 218.168 556.706C244.511 440.938 481.724 404.912 537.597 361.143C583.422 325.385 529.265 288.337 539.557 215.693Z" fill="#0D0D0E" stroke="url(#paint3_linear_389_812)" stroke-width="2" stroke-miterlimit="10"/>
<path d="M557.57 161.869C557.57 161.869 557.57 161.923 557.57 161.977C514.808 266.829 681.445 308.985 727.883 369.531C793.312 439.057 534.412 478.524 453.667 512.238C372.921 545.953 364.344 572.515 375.249 598.379C382.723 616.016 400.245 632.523 422.79 648.493C434.43 656.774 431.489 664.947 442.639 673.281H340.451C339.104 672.152 353.439 670.969 352.091 669.84C322.93 645.267 296.709 620.371 286.294 593.862C276.247 568.429 286.784 542.78 323.91 516.594C347.435 499.979 384.439 484.923 423.77 470.082C474.129 451.047 525.467 432.12 568.597 412.064C700.436 356.572 561.245 284.251 539.681 215.694C541.764 199.616 547.277 181.764 557.57 161.869Z" fill="url(#paint4_linear_389_812)" stroke="url(#paint5_linear_389_812)" stroke-width="2"/>
<path d="M562.103 181.172C601.434 270.754 898.808 345.71 946.226 431.528C969.261 475.351 944.265 497.128 903.586 530.627C875.405 553.803 833.623 576.01 784.98 597.572C752.02 612.251 673.235 637.954 638.927 673.335H524.364C523.752 665.269 540.17 657.096 543.724 648.815C552.791 627.522 574.723 606.659 614.299 586.28C649.71 568.052 686.958 549.985 718.815 531.488C809.118 479.169 928.827 452.66 814.876 375.553C538.578 240.75 556.344 205.746 562.103 181.172Z" fill="url(#paint6_linear_389_812)" stroke="#316EFF" stroke-width="2"/>
<path d="M557.814 161.439C557.814 161.923 557.814 162.407 557.814 162.837C557.936 169.021 559.407 175.097 562.102 181.119C556.343 205.746 538.577 240.697 814.876 375.446C928.949 452.553 809.24 479.116 718.815 531.381C686.957 549.878 649.709 567.945 614.299 586.173C574.6 606.552 552.79 627.415 543.723 648.708C540.17 657.042 523.629 665.162 524.364 673.227H442.638C431.488 664.893 434.429 656.72 422.789 648.439C400.366 632.469 382.722 615.908 375.248 598.325C364.221 572.461 372.92 545.952 453.666 512.184C534.411 478.524 793.189 439.057 727.882 369.531C681.444 308.932 514.807 266.829 557.569 161.977C557.569 161.762 557.691 161.6 557.814 161.439Z" fill="#0D0D0E" stroke="url(#paint7_linear_389_812)" stroke-width="2" stroke-miterlimit="10"/>
<path d="M557.814 162.891C558.917 167.3 560.633 171.602 563.083 175.957C610.256 262.259 892.681 330.978 930.91 344.421C966.565 356.949 1003.08 369.37 1028.44 383.834C1085.42 416.366 1094.36 452.553 1072.67 490.999C1058.22 516.486 1029.67 541.705 995.237 566.708C969.261 585.582 939.119 604.24 911.306 623.006C886.678 639.675 867.563 656.398 862.785 673.228H638.928C673.235 637.847 751.898 612.144 784.98 597.465C833.623 575.849 875.405 553.696 903.586 530.521C944.388 497.022 969.261 475.244 946.226 431.421C898.808 345.711 601.434 270.755 562.103 181.173C559.407 175.151 557.937 169.021 557.814 162.891Z" fill="#0D0D0E" stroke="url(#paint8_linear_389_812)" stroke-width="2" stroke-miterlimit="10"/>
<path d="M683.701 171.079C683.361 172.105 683.02 172.79 683.02 173.816V174.157C683.02 175.172 683.398 176.183 684.148 176.918C684.511 177.716 684.949 178.533 685.399 179.286L783.406 321.239C784.429 322.948 786.137 322.948 787.161 321.922L885.727 179.294C886.736 177.946 887.713 175.381 887.741 173.999C887.745 173.936 887.775 173.875 887.775 173.811V173.468C887.775 172.784 887.775 171.758 887.094 170.732L787.458 3.12469C786.371 1.384 784.812 1.41884 783.786 2.37341C783.761 2.39472 783.734 2.4044 783.711 2.42764C783.494 2.6503 783.369 2.77035 783.369 2.77035C783.228 2.97172 783.135 3.14597 783.135 3.14597L683.701 171.079Z" fill="#0D0D0E" stroke="url(#paint9_linear_389_812)" stroke-width="2" stroke-miterlimit="10"/>
<path d="M511.537 292.683L404.069 140.264C401.094 135.975 395.116 135.048 390.911 138.153L299.172 206.528C295.431 209.332 294.599 214.583 297.272 218.408L405.15 370.513C408.191 374.759 414.102 375.73 418.253 372.613L509.625 304.617C513.379 301.758 514.21 296.507 511.537 292.683Z" fill="#0D0D0E" stroke="#794DEC" stroke-width="2"/>
<path d="M526.271 291.903L418.804 139.484C415.774 135.184 409.851 134.268 405.645 137.373L313.852 205.736C310.111 208.541 309.279 213.792 311.953 217.616L419.83 369.722C422.871 373.968 428.782 374.938 432.934 371.821L524.306 303.826C528.113 300.978 528.945 295.727 526.271 291.903Z" fill="#0D0D0E"/>
<path d="M526.271 291.903L418.804 139.484C415.774 135.184 409.851 134.268 405.645 137.373L313.852 205.736C310.111 208.541 309.279 213.792 311.953 217.616L419.83 369.722C422.871 373.968 428.782 374.938 432.934 371.821L524.306 303.826C528.113 300.978 528.945 295.727 526.271 291.903Z" fill="url(#paint10_linear_389_812)"/>
<path d="M526.271 291.903L418.804 139.484C415.774 135.184 409.851 134.268 405.645 137.373L313.852 205.736C310.111 208.541 309.279 213.792 311.953 217.616L419.83 369.722C422.871 373.968 428.782 374.938 432.934 371.821L524.306 303.826C528.113 300.978 528.945 295.727 526.271 291.903Z" stroke="url(#paint11_linear_389_812)" stroke-width="2"/>
<path d="M447.648 197.787L414.165 150.299C413.221 148.96 411.376 148.674 410.066 149.642L381.467 170.941C380.301 171.815 380.042 173.45 380.875 174.642L414.485 222.032C415.432 223.355 417.274 223.657 418.567 222.686L447.035 201.501C448.221 200.614 448.48 198.978 447.648 197.787Z" fill="#0D0D0E" stroke="url(#paint12_linear_389_812)" stroke-width="2"/>
<path d="M603.969 353.945L713.061 228.886C716.446 225.039 722.285 224.693 726.089 228.14L799.556 294.633C803.223 297.934 803.587 303.538 800.413 307.294L692.56 435.376C689.248 439.324 683.309 439.743 679.505 436.296L604.962 369.812C600.312 365.712 599.865 358.591 603.969 353.945Z" fill="#0D0D0E" stroke="url(#paint13_linear_389_812)" stroke-width="2"/>
<path d="M595.424 345.885L704.572 220.817C707.957 216.97 713.796 216.624 717.6 220.072L791.012 286.574C794.678 289.874 795.043 295.478 791.869 299.234L684.025 427.371C680.713 431.32 674.774 431.739 670.969 428.292L596.426 361.807C591.768 357.652 591.321 350.532 595.424 345.885Z" fill="#0D0D0E" stroke="url(#paint14_linear_389_812)" stroke-width="2" stroke-miterlimit="10"/>
<path d="M473.332 266.459C473.085 268.761 473.181 272.016 475.242 273.554C480.638 277.187 486.035 280.819 490.94 284.88C493.393 286.911 496.044 287.1 499.185 286.86C505.076 285.888 511.409 284.948 517.3 283.976C522.258 283.402 526.824 282.335 531.831 281.301C533.206 280.935 534.973 281.061 536.249 281.615C546.162 284.642 545.72 284.61 549.053 290.879C551.209 295.672 553.857 300.036 556.013 304.829C557.533 307.257 560.035 308.828 564.894 309.174C572.895 309.281 581.239 310.339 589.19 310.906C591.399 311.064 593.215 310.729 594.59 310.363C595.081 309.935 595.572 309.506 596.064 309.077C601.124 303.406 606.134 298.196 611.194 292.526C612.177 291.668 613.159 290.81 614.141 289.953C615.565 289.126 616.94 288.76 618.756 288.426C624.255 286.962 628.623 287.738 634.218 289.528C641.48 292.366 649.676 294.806 656.988 297.183C660.864 298.387 664.006 298.147 667.247 296.986C670.586 294.905 673.385 293.712 676.675 292.091C679.523 290.439 682.763 289.278 685.612 287.625C689.343 286.036 688.657 284.131 688.905 281.829C690.786 260.158 692.019 252.823 692.019 252.823C701.051 251.611 709.692 249.908 718.774 248.236C719.706 247.838 720.59 247.901 721.523 247.504C722.947 246.677 723.929 245.82 724.127 243.978C724.671 238.914 727.782 214.083 728.375 208.558C728.474 207.637 727.689 206.653 727.396 205.241C722.243 203.482 712.379 199.995 707.227 198.236C701.19 196.413 698.231 215.688 692.244 213.405C691.41 212.882 690.134 212.327 689.742 211.835C686.211 207.408 686.607 203.724 691.027 199.864C695.448 196.004 699.871 187.969 703.458 183.585L706.819 152.277C704.759 150.739 679.86 167.057 676.719 167.297C670.386 168.237 664.495 169.209 658.162 170.149C653.204 170.723 648.638 171.79 643.631 172.824C642.256 173.19 640.489 173.064 639.213 172.51C629.3 169.483 629.3 169.483 626.409 163.246C624.253 158.453 621.605 154.089 619.449 149.296C617.929 146.868 615.427 145.297 610.568 144.951C602.125 144.813 594.223 143.786 585.781 143.648C583.572 143.49 581.756 143.825 580.823 144.222C580.331 144.651 579.89 144.619 579.399 145.048C574.338 150.719 568.886 155.897 564.268 161.599C563.286 162.457 562.303 163.315 561.321 164.172C559.897 164.999 558.08 165.333 556.264 165.668C550.765 167.131 546.397 166.356 541.686 164.628C533.982 161.759 526.228 159.351 518.033 156.911C514.156 155.706 511.014 155.946 508.166 157.599C504.827 159.681 505.142 131.867 501.901 133.028C499.053 134.681 492.622 136.542 489.381 137.702L485.282 171.741C488.223 177.518 491.506 184.247 494.889 190.056C496.409 192.484 495.769 194.294 494.197 196.501C493.165 197.82 491.692 199.106 489.826 199.901C487.96 200.696 485.652 201.459 482.511 201.699C473.478 202.911 467.457 180.213 458.817 181.917C457.884 182.314 457.001 182.251 456.068 182.648C454.644 183.475 453.612 184.793 453.464 186.174C452.92 191.239 449.364 220.213 448.82 225.277C448.524 228.04 450.143 229.547 453.578 230.72C460.448 233.065 468.3 234.553 475.171 236.899L473.332 266.459ZM618.982 249.008C598.751 259.164 568.713 257.022 551.787 244.681C534.862 232.34 537.673 214.447 556.971 204.688C577.202 194.532 606.799 196.643 623.724 208.984C641.091 221.356 638.722 239.281 618.982 249.008Z" fill="#0D0D0E" stroke="#316EFF" stroke-width="2" stroke-linecap="round" stroke-linejoin="round"/>
<path d="M476.534 235.171C474.519 237.348 474.714 239.683 478.051 241.778C483.45 245.412 488.848 249.047 493.755 253.11C496.209 255.142 498.86 255.331 502.003 255.091C507.896 254.119 514.23 253.178 520.123 252.206C525.083 251.631 529.65 250.564 534.659 249.529C536.034 249.163 537.801 249.289 539.078 249.844C548.994 252.872 548.552 252.841 551.886 259.113C554.043 263.909 556.691 268.276 558.848 273.072C560.369 275.501 562.872 277.072 567.732 277.419C575.736 277.526 584.082 278.585 592.036 279.153C594.245 279.31 596.062 278.976 597.438 278.61C597.929 278.18 598.42 277.751 598.912 277.322C603.973 271.648 608.985 266.436 614.047 260.762C615.029 259.904 616.012 259.045 616.994 258.187C618.419 257.36 619.794 256.994 621.611 256.66C627.111 255.195 631.481 255.971 637.077 257.763C644.342 260.602 652.54 263.043 659.854 265.422C663.732 266.627 666.875 266.387 670.116 265.226C673.457 263.143 676.256 261.95 679.547 260.328C682.396 258.674 685.638 257.513 688.487 255.859C692.22 254.269 692.859 252.458 691.781 250.06C688.839 244.279 686.339 238.531 682.955 232.719C681.435 230.29 682.074 228.478 683.647 226.27C684.679 224.951 686.153 223.663 688.02 222.868C689.886 222.073 692.194 221.309 694.895 221.037C703.931 219.825 712.574 218.12 721.658 216.447C722.592 216.05 723.475 216.113 724.409 215.715C725.833 214.888 726.816 214.03 727.013 212.187C727.557 207.12 728.592 201.623 729.136 196.556C729.235 195.635 728.45 194.65 728.156 193.237C723.002 191.476 717.848 189.716 713.135 187.987C707.097 186.164 701.109 183.88 695.071 182.057C694.236 181.533 692.96 180.978 692.568 180.486C689.036 176.056 689.431 172.371 693.853 168.508C698.275 164.646 701.47 159.768 705.499 155.413C707.514 153.236 706.877 150.869 703.54 148.774C697.7 145.108 692.793 141.045 687.394 137.41C685.333 135.871 682.731 135.221 679.589 135.461C673.254 136.402 667.361 137.374 661.027 138.315C656.067 138.889 651.5 139.956 646.491 140.992C645.116 141.358 643.348 141.232 642.072 140.676C632.156 137.648 632.156 137.648 629.263 131.407C627.106 126.611 624.458 122.245 622.301 117.449C620.781 115.019 618.278 113.448 613.417 113.101C604.972 112.963 597.067 111.935 588.622 111.797C586.413 111.639 584.596 111.974 583.663 112.372C583.171 112.801 582.729 112.769 582.238 113.198C577.177 118.872 571.723 124.053 567.103 129.759C566.12 130.617 565.138 131.475 564.155 132.333C562.731 133.16 560.914 133.495 559.097 133.829C553.596 135.294 549.227 134.518 544.515 132.789C536.808 129.919 529.052 127.509 520.854 125.067C516.975 123.862 513.833 124.102 510.984 125.756C507.643 127.838 504.844 129.031 501.553 130.653C498.704 132.307 495.462 133.468 492.613 135.122C488.881 136.712 488.241 138.524 489.319 140.922C492.261 146.702 494.761 152.45 498.145 158.262C499.665 160.692 499.026 162.503 497.453 164.712C496.421 166.031 494.947 167.318 493.08 168.113C491.214 168.909 488.906 169.672 485.714 170.373C476.678 171.585 468.035 173.29 459.392 174.995C458.459 175.392 457.575 175.329 456.642 175.727C455.218 176.554 454.186 177.873 454.037 179.255C453.494 184.322 452.999 188.929 452.013 193.965C451.275 196.697 453.336 198.237 456.772 199.41C463.645 201.757 470.517 204.104 477.39 206.451L478.666 207.006C489.024 210.066 489.024 210.066 491.867 216.768C492.21 217.721 491.669 218.611 491.178 219.04C486.215 223.792 481.154 229.466 476.534 235.171ZM621.836 217.219C601.599 227.38 571.551 225.237 554.62 212.888C537.689 200.54 540.501 182.637 559.805 172.873C580.042 162.711 609.648 164.823 626.579 177.171C643.951 189.551 641.582 207.486 621.836 217.219Z" fill="url(#paint15_linear_389_812)" stroke="url(#paint16_linear_389_812)" stroke-width="2" stroke-linecap="round" stroke-linejoin="round"/>
<path d="M787.545 92.1616L787.567 92.1858L787.545 92.2099V92.1616Z" stroke="black" stroke-width="2" stroke-linejoin="round"/>
<path d="M803.583 81.891L787.603 92.1874L787.541 56.2563C787.541 55.4358 786.944 54.9672 786.457 55.3417C786.623 55.1365 786.835 54.9803 787.072 54.8862C787.311 54.794 787.569 54.7677 787.82 54.8091C788.072 54.8524 788.307 54.9615 788.507 55.129C788.706 55.2965 788.862 55.5148 788.958 55.7633L803.583 81.891Z" fill="#0D0D0E"/>
<path d="M803.583 81.891L787.603 92.1874L787.541 56.2563C787.541 55.4358 786.944 54.9672 786.457 55.3417C786.623 55.1365 786.835 54.9803 787.072 54.8862C787.311 54.794 787.569 54.7677 787.82 54.8091C788.072 54.8524 788.307 54.9615 788.507 55.129C788.706 55.2965 788.862 55.5148 788.958 55.7633L803.583 81.891Z" fill="url(#paint17_linear_389_812)"/>
<path d="M803.583 81.891L787.603 92.1874L787.541 56.2563C787.541 55.4358 786.944 54.9672 786.457 55.3417C786.623 55.1365 786.835 54.9803 787.072 54.8862C787.311 54.794 787.569 54.7677 787.82 54.8091C788.072 54.8524 788.307 54.9615 788.507 55.129C788.706 55.2965 788.862 55.5148 788.958 55.7633L803.583 81.891Z" stroke="#FC306B" stroke-width="2" stroke-linejoin="round"/>
<path d="M788.645 274.202C788.464 274.371 788.248 274.494 788.016 274.565C787.785 274.635 787.54 274.652 787.303 274.61C787.064 274.571 786.836 274.475 786.637 274.332C786.437 274.189 786.27 274.001 786.145 273.781L752.934 223.428L787.561 243.774V273.287C787.561 274.085 788.159 274.554 788.645 274.202Z" stroke="url(#paint18_linear_389_812)" stroke-width="2" stroke-linejoin="round"/>
<path d="M787.541 92.1268L771.521 81.868C771.521 81.868 786.391 55.3902 786.457 55.3431C786.943 54.9686 787.541 55.4373 787.541 56.2578V92.1268Z" stroke="#E91224" stroke-width="2" stroke-linejoin="round"/>
<path d="M787.565 92.1872L787.543 111.511V132.439L755.527 110.574H755.504L771.523 81.8682L787.543 92.1627L787.565 92.1872Z" stroke="#F86E30" stroke-width="2" stroke-linejoin="round"/>
<path d="M822.169 223.451L788.957 273.781C788.934 273.845 788.895 273.899 788.846 273.945C788.799 274.046 788.731 274.135 788.647 274.202C788.161 274.554 787.562 274.086 787.562 273.288V243.774L822.169 223.451Z" fill="#0D0D0E"/>
<path d="M822.169 223.451L788.957 273.781C788.934 273.845 788.895 273.899 788.846 273.945C788.799 274.046 788.731 274.135 788.647 274.202C788.161 274.554 787.562 274.086 787.562 273.288V243.774L822.169 223.451Z" fill="url(#paint19_linear_389_812)"/>
<path d="M822.169 223.451L788.957 273.781C788.934 273.845 788.895 273.899 788.846 273.945C788.799 274.046 788.731 274.135 788.647 274.202C788.161 274.554 787.562 274.086 787.562 273.288V243.774L822.169 223.451Z" stroke="url(#paint20_linear_389_812)" stroke-width="2" stroke-linejoin="round"/>
<path d="M853.972 172.629C853.972 172.723 853.949 172.817 853.949 172.912C853.889 173.388 853.734 173.847 853.494 174.255C853.253 174.664 852.935 175.012 852.556 175.279L787.535 214.022L787.548 171.837L837.244 142.188L853.484 170.824C853.823 171.355 853.994 171.988 853.972 172.629Z" fill="#0D0D0E"/>
<path d="M853.972 172.629C853.972 172.723 853.949 172.817 853.949 172.912C853.889 173.388 853.734 173.847 853.494 174.255C853.253 174.664 852.935 175.012 852.556 175.279L787.535 214.022L787.548 171.837L837.244 142.188L853.484 170.824C853.823 171.355 853.994 171.988 853.972 172.629Z" fill="url(#paint21_linear_389_812)"/>
<path d="M853.972 172.629C853.972 172.723 853.949 172.817 853.949 172.912C853.889 173.388 853.734 173.847 853.494 174.255C853.253 174.664 852.935 175.012 852.556 175.279L787.535 214.022L787.548 171.837L837.244 142.188L853.484 170.824C853.823 171.355 853.994 171.988 853.972 172.629Z" stroke="#74CA38" stroke-width="2" stroke-linejoin="round"/>
<path d="M853.942 172.91C853.715 174.196 853.24 175.417 852.548 176.499L822.169 223.451L787.578 243.754L787.562 214.019L852.548 175.28C852.926 175.012 853.246 174.662 853.487 174.254C853.726 173.845 853.882 173.388 853.942 172.91Z" fill="#0D0D0E"/>
<path d="M853.942 172.91C853.715 174.196 853.24 175.417 852.548 176.499L822.169 223.451L787.578 243.754L787.562 214.019L852.548 175.28C852.926 175.012 853.246 174.662 853.487 174.254C853.726 173.845 853.882 173.388 853.942 172.91Z" fill="url(#paint22_linear_389_812)"/>
<path d="M853.942 172.91C853.715 174.196 853.24 175.417 852.548 176.499L822.169 223.451L787.578 243.754L787.562 214.019L852.548 175.28C852.926 175.012 853.246 174.662 853.487 174.254C853.726 173.845 853.882 173.388 853.942 172.91Z" stroke="url(#paint23_linear_389_812)" stroke-width="2" stroke-linejoin="round"/>
<path d="M803.576 81.8809L819.593 110.576L787.545 132.439L787.552 92.2036L803.576 81.8809Z" fill="#0D0D0E"/>
<path d="M803.576 81.8809L819.593 110.576L787.545 132.439L787.552 92.2036L803.576 81.8809Z" fill="url(#paint24_linear_389_812)"/>
<path d="M803.576 81.8809L819.593 110.576L787.545 132.439L787.552 92.2036L803.576 81.8809Z" stroke="#F78F31" stroke-width="2" stroke-linejoin="round"/>
<path d="M787.448 132.3L787.345 171.682L737.867 142.169L755.525 110.568L787.448 132.3Z" stroke="#FEB92F" stroke-width="2" stroke-linejoin="round"/>
<path d="M819.592 110.574L837.251 142.172L787.656 171.788L787.658 132.3L819.592 110.574Z" fill="#0D0D0E"/>
<path d="M819.592 110.574L837.251 142.172L787.656 171.788L787.658 132.3L819.592 110.574Z" fill="url(#paint25_linear_389_812)"/>
<path d="M819.592 110.574L837.251 142.172L787.656 171.788L787.658 132.3L819.592 110.574Z" stroke="#FFC866" stroke-width="2" stroke-linejoin="round"/>
<path d="M787.544 171.838L787.522 214.256L722.561 175.257C722.183 174.996 721.864 174.649 721.623 174.245C721.383 173.84 721.227 173.386 721.167 172.912C721.167 172.818 721.144 172.724 721.144 172.63C721.123 171.99 721.293 171.358 721.631 170.825L737.872 142.166L787.544 171.838Z" stroke="#0BB875" stroke-width="2" stroke-linejoin="round"/>
<path d="M787.549 214.284L787.625 243.801L752.937 223.427L722.558 176.499C721.865 175.417 721.391 174.196 721.164 172.91C721.224 173.384 721.38 173.838 721.621 174.243C721.861 174.647 722.181 174.994 722.558 175.255L787.549 214.284Z" stroke="url(#paint26_linear_389_812)" stroke-width="2" stroke-linejoin="round"/>
<g filter="url(#filter0_d_389_812)">
<path d="M656.072 230.636C655.901 232.228 655.356 234.435 653.726 235.281C649.515 237.227 645.305 239.172 641.365 241.458C639.395 242.601 637.562 242.471 635.458 242C631.589 240.761 627.415 239.501 623.546 238.263C620.254 237.386 617.302 236.213 614.044 235.019C613.161 234.635 611.939 234.548 610.989 234.801C603.791 235.892 604.097 235.914 600.903 239.857C598.728 242.91 596.282 245.623 594.107 248.677C592.714 250.182 590.779 251.006 587.418 250.766C581.954 250.056 576.115 249.961 570.616 249.568C569.089 249.46 567.901 249.054 567.019 248.67C566.747 248.33 566.476 247.99 566.205 247.65C563.594 243.293 560.949 239.254 558.339 234.897C557.796 234.217 557.254 233.536 556.711 232.856C555.863 232.154 554.981 231.77 553.793 231.365C550.264 229.83 547.174 229.93 543.1 230.602C537.736 231.824 531.795 232.684 526.465 233.587C523.647 234.028 521.543 233.557 519.507 232.449C517.539 230.705 515.809 229.619 513.807 228.193C512.111 226.789 510.075 225.681 508.379 224.277C506.072 222.829 506.819 221.599 506.99 220.007C508.902 205.064 509.144 199.948 509.144 199.948C503.171 198.238 497.537 196.232 491.598 194.205C491.021 193.843 490.41 193.799 489.833 193.437C488.985 192.735 488.443 192.055 488.579 190.781C488.955 187.279 490.496 170.063 490.906 166.243C490.974 165.606 491.654 165.013 492.062 164.079C495.83 163.385 503.062 161.976 506.83 161.282C511.21 160.632 510.385 174.048 514.799 173.08C515.444 172.805 516.395 172.552 516.734 172.255C519.791 169.585 520.065 167.038 517.623 163.977C515.181 160.915 513.352 155.009 511.556 151.673L513.88 130.022C515.51 129.175 530.063 142.726 532.167 143.197C536.342 144.457 540.21 145.695 544.385 146.955C547.677 147.832 550.629 149.005 553.887 150.199C554.769 150.583 555.991 150.67 556.942 150.417C564.139 149.326 564.139 149.326 567.028 145.361C569.203 142.308 571.649 139.595 573.823 136.541C575.216 135.036 577.152 134.212 580.512 134.452C586.283 135.184 591.816 135.257 597.586 135.99C599.113 136.099 600.301 136.504 600.878 136.866C601.149 137.206 601.455 137.228 601.726 137.568C604.337 141.925 607.287 145.986 609.592 150.321C610.135 151.001 610.677 151.682 611.22 152.362C612.068 153.064 613.256 153.47 614.444 153.875C617.973 155.41 621.062 155.31 624.525 154.594C630.195 153.394 635.83 152.512 641.771 151.653C644.589 151.212 646.694 151.683 648.39 153.087C650.357 154.831 654.241 135.858 656.277 136.966C657.973 138.37 662.079 140.267 664.115 141.375L661.891 164.958C659.037 168.605 655.809 172.866 652.65 176.491C651.257 177.996 651.425 179.291 652.171 180.949C652.679 181.947 653.493 182.968 654.647 183.692C655.801 184.416 657.26 185.162 659.364 185.632C665.337 187.342 672.782 172.472 678.416 174.478C678.993 174.84 679.604 174.884 680.18 175.246C681.028 175.948 681.537 176.946 681.434 177.902C681.058 181.404 679.21 201.485 678.834 204.987C678.629 206.898 677.305 207.766 674.792 208.229C669.768 209.154 664.2 209.398 659.176 210.324L656.072 230.636ZM559.448 204.497C571.729 213.393 592.503 214.874 605.849 208.126C619.194 201.377 619.917 188.916 608.212 180.381C595.93 171.485 575.462 170.025 562.116 176.774C548.465 183.501 547.437 195.94 559.448 204.497Z" fill="#0D0D0E" stroke="url(#paint27_linear_389_812)" stroke-width="2" stroke-linecap="round" stroke-linejoin="round"/>
<path d="M657.72 208.973C658.772 210.653 658.295 212.224 655.714 213.324C651.502 215.27 647.29 217.217 643.349 219.504C641.379 220.648 639.545 220.517 637.44 220.046C633.57 218.807 629.394 217.546 625.524 216.307C622.231 215.43 619.278 214.256 616.019 213.061C615.136 212.677 613.914 212.589 612.963 212.843C605.764 213.934 606.069 213.956 602.874 217.901C600.699 220.956 598.252 223.671 596.077 226.726C594.684 228.232 592.747 229.057 589.386 228.817C583.919 228.106 578.079 228.011 572.578 227.618C571.051 227.509 569.862 227.103 568.98 226.72C568.708 226.379 568.437 226.039 568.166 225.698C565.554 221.339 562.908 217.298 560.297 212.938C559.754 212.257 559.211 211.577 558.669 210.896C557.82 210.193 556.938 209.809 555.749 209.404C552.219 207.868 549.129 207.968 545.054 208.641C539.688 209.863 533.745 210.723 528.413 211.627C525.594 212.068 523.489 211.597 521.453 210.489C519.485 208.743 517.754 207.657 515.751 206.23C514.055 204.824 512.018 203.716 510.321 202.311C508.013 200.862 507.844 199.566 508.932 198.039C511.787 194.39 514.336 190.72 517.497 187.093C518.89 185.587 518.721 184.291 517.976 182.633C517.467 181.633 516.653 180.612 515.499 179.888C514.345 179.163 512.885 178.417 511.086 177.968C505.111 176.257 499.476 174.25 493.535 172.222C492.958 171.859 492.346 171.816 491.769 171.454C490.921 170.751 490.378 170.07 490.515 168.796C490.891 165.292 490.996 161.447 491.372 157.942C491.44 157.305 492.12 156.712 492.528 155.778C496.298 155.083 500.067 154.389 503.531 153.673C507.912 153.023 512.327 152.053 516.708 151.403C517.353 151.128 518.304 150.875 518.644 150.578C521.702 147.907 521.975 145.358 519.533 142.295C517.09 139.231 515.633 135.596 513.53 132.236C512.478 130.556 513.261 129.006 515.842 127.906C520.36 125.981 524.3 123.694 528.512 121.748C530.143 120.901 532.01 120.713 534.115 121.184C538.291 122.445 542.161 123.684 546.337 124.945C549.63 125.822 552.583 126.996 555.842 128.191C556.725 128.575 557.947 128.663 558.898 128.409C566.098 127.318 566.098 127.318 568.987 123.351C571.162 120.295 573.609 117.581 575.784 114.526C577.178 113.02 579.114 112.195 582.475 112.435C588.247 113.168 593.782 113.241 599.554 113.974C601.082 114.083 602.27 114.489 602.847 114.851C603.119 115.191 603.424 115.213 603.696 115.554C606.307 119.913 609.258 123.976 611.564 128.314C612.107 128.994 612.65 129.675 613.193 130.356C614.041 131.059 615.229 131.464 616.417 131.87C619.948 133.406 623.038 133.305 626.502 132.589C632.173 131.389 637.811 130.507 643.754 129.647C646.572 129.206 648.677 129.677 650.374 131.082C652.342 132.827 654.073 133.914 656.076 135.341C657.773 136.746 659.809 137.854 661.506 139.259C663.814 140.708 663.983 142.004 662.895 143.532C660.04 147.181 657.491 150.851 654.33 154.478C652.937 155.984 653.106 157.28 653.851 158.938C654.36 159.937 655.174 160.958 656.328 161.683C657.482 162.407 658.942 163.153 661.013 163.943C666.988 165.653 672.623 167.66 678.258 169.668C678.835 170.03 679.446 170.073 680.023 170.435C680.872 171.138 681.38 172.137 681.278 173.093C680.902 176.598 680.56 179.783 680.489 183.31C680.59 185.243 678.959 186.09 676.446 186.553C671.42 187.478 666.394 188.404 661.368 189.329L660.417 189.582C652.912 190.652 652.912 190.652 649.988 194.938C649.614 195.553 649.852 196.212 650.123 196.553C652.803 200.275 655.414 204.635 657.72 208.973ZM561.406 182.52C573.691 191.422 594.471 192.904 607.821 186.152C621.171 179.4 621.893 166.931 610.184 158.391C597.899 149.49 577.424 148.029 564.074 154.781C550.419 161.512 549.391 173.959 561.406 182.52Z" fill="url(#paint28_linear_389_812)" stroke="#794DEC" stroke-width="2" stroke-linecap="round" stroke-linejoin="round"/>
</g>
<g filter="url(#filter1_d_389_812)">
<path d="M679.917 308.449L680.241 308.341L714.666 297.676L748.766 308.234L748.982 308.288C749.036 308.288 749.036 308.288 749.09 308.288C749.414 308.449 749.414 308.988 749.036 309.096L748.009 309.419L714.666 320.569L681.106 309.365L679.863 308.934C679.647 308.934 679.647 308.557 679.917 308.449Z" fill="#0D0D0E" stroke="#794DEC" stroke-width="2"/>
<path d="M715.604 242.424L715.82 242.747L750.19 300.329C750.676 301.137 750.244 302.16 749.379 302.429L714.685 312.718V242.694C714.685 242.209 714.091 242.047 713.82 242.37C714.253 241.724 715.225 241.778 715.604 242.424Z" fill="#0D0D0E"/>
<path d="M715.604 242.424L715.82 242.747L750.19 300.329C750.676 301.137 750.244 302.16 749.379 302.429L714.685 312.718V242.694C714.685 242.209 714.091 242.047 713.82 242.37C714.253 241.724 715.225 241.778 715.604 242.424Z" fill="url(#paint29_linear_389_812)"/>
<path d="M715.604 242.424L715.82 242.747L750.19 300.329C750.676 301.137 750.244 302.16 749.379 302.429L714.685 312.718V242.694C714.685 242.209 714.091 242.047 713.82 242.37C714.253 241.724 715.225 241.778 715.604 242.424Z" stroke="#794DEC" stroke-width="2"/>
<path d="M679.024 300.689L713.449 243L713.773 242.408C713.773 242.408 713.773 242.408 713.773 242.354C714.043 241.977 714.638 242.192 714.638 242.677V312.701L679.619 302.305C678.97 302.143 678.646 301.282 679.024 300.689Z" fill="#0D0D0E" stroke="#794DEC" stroke-width="2"/>
<path d="M748.093 309.548L749.12 309.224C749.498 309.063 749.498 308.578 749.174 308.417C749.714 308.632 749.984 309.224 749.768 309.763C749.768 309.817 749.768 309.817 749.714 309.871C749.714 309.871 749.714 309.925 749.66 309.925L749.282 310.571L715.884 366.213L715.614 366.644C715.344 367.075 714.695 366.914 714.695 366.375V320.644L748.093 309.548Z" fill="#0D0D0E"/>
<path d="M748.093 309.548L749.12 309.224C749.498 309.063 749.498 308.578 749.174 308.417C749.714 308.632 749.984 309.224 749.768 309.763C749.768 309.817 749.768 309.817 749.714 309.871C749.714 309.871 749.714 309.925 749.66 309.925L749.282 310.571L715.884 366.213L715.614 366.644C715.344 367.075 714.695 366.914 714.695 366.375V320.644L748.093 309.548Z" fill="url(#paint30_linear_389_812)"/>
<path d="M748.093 309.548L749.12 309.224C749.498 309.063 749.498 308.578 749.174 308.417C749.714 308.632 749.984 309.224 749.768 309.763C749.768 309.817 749.768 309.817 749.714 309.871C749.714 309.871 749.714 309.925 749.66 309.925L749.282 310.571L715.884 366.213L715.614 366.644C715.344 367.075 714.695 366.914 714.695 366.375V320.644L748.093 309.548Z" stroke="url(#paint31_linear_389_812)" stroke-width="2"/>
<path d="M679.808 308.502L679.916 308.448C679.646 308.555 679.646 308.933 679.916 309.04L681.159 309.471L714.719 320.675V366.406C714.719 366.891 715.367 367.106 715.638 366.675C715.205 367.376 714.233 367.376 713.8 366.675L713.368 365.975L680.078 310.495L679.484 309.471C679.484 309.471 679.484 309.471 679.484 309.417C679.214 309.04 679.43 308.609 679.808 308.502Z" fill="#0D0D0E"/>
<path d="M715.638 366.675C715.367 367.106 714.719 366.891 714.719 366.406V320.675L681.159 309.471L679.916 309.04C679.646 308.933 679.646 308.555 679.916 308.448L679.808 308.502C679.43 308.609 679.214 309.04 679.484 309.417C679.484 309.471 679.484 309.471 679.484 309.471L680.078 310.495L713.368 365.975L713.8 366.675C714.233 367.376 715.205 367.376 715.638 366.675ZM715.638 366.675L715.908 366.245" stroke="url(#paint32_linear_389_812)" stroke-width="2"/>
</g>
<defs>
<filter id="filter0_d_389_812" x="467.555" y="91.397" width="234.896" height="180.407" filterUnits="userSpaceOnUse" color-interpolation-filters="sRGB">
<feFlood flood-opacity="0" result="BackgroundImageFix"/>
<feColorMatrix in="SourceAlpha" type="matrix" values="0 0 0 0 0 0 0 0 0 0 0 0 0 0 0 0 0 0 127 0" result="hardAlpha"/>
<feOffset/>
<feGaussianBlur stdDeviation="10"/>
<feComposite in2="hardAlpha" operator="out"/>
<feColorMatrix type="matrix" values="0 0 0 0 0 0 0 0 0 0 0 0 0 0 0 0 0 0 0.5 0"/>
<feBlend mode="normal" in2="BackgroundImageFix" result="effect1_dropShadow_389_812"/>
<feBlend mode="normal" in="SourceGraphic" in2="effect1_dropShadow_389_812" result="shape"/>
</filter>
<filter id="filter1_d_389_812" x="673.863" y="240.911" width="81.5332" height="135.29" filterUnits="userSpaceOnUse" color-interpolation-filters="sRGB">
<feFlood flood-opacity="0" result="BackgroundImageFix"/>
<feColorMatrix in="SourceAlpha" type="matrix" values="0 0 0 0 0 0 0 0 0 0 0 0 0 0 0 0 0 0 127 0" result="hardAlpha"/>
<feOffset dy="4"/>
<feGaussianBlur stdDeviation="2"/>
<feComposite in2="hardAlpha" operator="out"/>
<feColorMatrix type="matrix" values="0 0 0 0 0 0 0 0 0 0 0 0 0 0 0 0 0 0 0.2 0"/>
<feBlend mode="normal" in2="BackgroundImageFix" result="effect1_dropShadow_389_812"/>
<feBlend mode="normal" in="SourceGraphic" in2="effect1_dropShadow_389_812" result="shape"/>
</filter>
<linearGradient id="paint0_linear_389_812" x1="630.66" y1="293.739" x2="831.282" y2="394.919" gradientUnits="userSpaceOnUse">
<stop stop-color="#316EFF"/>
<stop offset="1" stop-color="#316EFF" stop-opacity="0"/>
</linearGradient>
<linearGradient id="paint1_linear_389_812" x1="104.979" y1="155.099" x2="182.195" y2="500.52" gradientUnits="userSpaceOnUse">
<stop stop-color="#333239"/>
<stop offset="1" stop-color="#0D0D0E"/>
</linearGradient>
<linearGradient id="paint2_linear_389_812" x1="549.503" y1="274.166" x2="551.078" y2="416.653" gradientUnits="userSpaceOnUse">
<stop stop-color="#0BB875"/>
<stop offset="1" stop-color="#0BB875" stop-opacity="0"/>
</linearGradient>
<linearGradient id="paint3_linear_389_812" x1="546.683" y1="355.326" x2="514.434" y2="423.513" gradientUnits="userSpaceOnUse">
<stop stop-color="#794DEC"/>
<stop offset="1" stop-color="#794DEC" stop-opacity="0"/>
</linearGradient>
<linearGradient id="paint4_linear_389_812" x1="367.471" y1="157.216" x2="458.838" y2="493.519" gradientUnits="userSpaceOnUse">
<stop stop-color="#333239"/>
<stop offset="1" stop-color="#0D0D0E"/>
</linearGradient>
<linearGradient id="paint5_linear_389_812" x1="696.101" y1="246.534" x2="510.085" y2="506.495" gradientUnits="userSpaceOnUse">
<stop stop-color="#316EFF"/>
<stop offset="1" stop-color="#316EFF" stop-opacity="0"/>
</linearGradient>
<linearGradient id="paint6_linear_389_812" x1="604.469" y1="176.695" x2="693.773" y2="499.523" gradientUnits="userSpaceOnUse">
<stop stop-color="#333239"/>
<stop offset="1" stop-color="#0D0D0E"/>
</linearGradient>
<linearGradient id="paint7_linear_389_812" x1="542.438" y1="189.877" x2="564.265" y2="503.153" gradientUnits="userSpaceOnUse">
<stop stop-color="#F66E30"/>
<stop offset="1" stop-color="#794DEC" stop-opacity="0"/>
</linearGradient>
<linearGradient id="paint8_linear_389_812" x1="542.827" y1="289.002" x2="739.501" y2="423.872" gradientUnits="userSpaceOnUse">
<stop stop-color="#316EFF"/>
<stop offset="1" stop-color="#316EFF" stop-opacity="0"/>
</linearGradient>
<linearGradient id="paint9_linear_389_812" x1="785.397" y1="1.72021" x2="785.397" y2="322.622" gradientUnits="userSpaceOnUse">
<stop stop-color="#316EFF"/>
<stop offset="1" stop-color="#316EFF" stop-opacity="0"/>
</linearGradient>
<linearGradient id="paint10_linear_389_812" x1="340.778" y1="121.265" x2="509.279" y2="157.065" gradientUnits="userSpaceOnUse">
<stop stop-color="#333239"/>
<stop offset="1" stop-color="#0D0D0E"/>
</linearGradient>
<linearGradient id="paint11_linear_389_812" x1="450.639" y1="184.671" x2="273.565" y2="320.218" gradientUnits="userSpaceOnUse">
<stop stop-color="#316EFF"/>
<stop offset="1" stop-color="#316EFF" stop-opacity="0"/>
</linearGradient>
<linearGradient id="paint12_linear_389_812" x1="416.737" y1="127.543" x2="404.765" y2="276.951" gradientUnits="userSpaceOnUse">
<stop stop-color="#0BB875"/>
<stop offset="1" stop-color="#0BB875" stop-opacity="0"/>
</linearGradient>
<linearGradient id="paint13_linear_389_812" x1="599.017" y1="349.414" x2="804.986" y2="315.182" gradientUnits="userSpaceOnUse">
<stop stop-color="#316EFF"/>
<stop offset="1" stop-color="#316EFF" stop-opacity="0"/>
</linearGradient>
<linearGradient id="paint14_linear_389_812" x1="740.061" y1="219.156" x2="661.182" y2="461.863" gradientUnits="userSpaceOnUse">
<stop stop-color="#316EFF"/>
<stop offset="1" stop-color="#316EFF" stop-opacity="0"/>
</linearGradient>
<linearGradient id="paint15_linear_389_812" x1="736.33" y1="153.044" x2="560.193" y2="203.301" gradientUnits="userSpaceOnUse">
<stop stop-color="#333239"/>
<stop offset="1" stop-color="#0D0D0E"/>
</linearGradient>
<linearGradient id="paint16_linear_389_812" x1="798.302" y1="245.881" x2="371.083" y2="228.386" gradientUnits="userSpaceOnUse">
<stop stop-color="#0BB875"/>
<stop offset="1" stop-color="#0BB875" stop-opacity="0"/>
</linearGradient>
<linearGradient id="paint17_linear_389_812" x1="795.571" y1="93.8988" x2="780.572" y2="88.9785" gradientUnits="userSpaceOnUse">
<stop stop-color="#333239"/>
<stop offset="1" stop-color="#0D0D0E"/>
</linearGradient>
<linearGradient id="paint18_linear_389_812" x1="770.789" y1="223.428" x2="770.789" y2="274.633" gradientUnits="userSpaceOnUse">
<stop stop-color="#4F28DD"/>
<stop offset="1" stop-color="#4F28DD" stop-opacity="0"/>
</linearGradient>
<linearGradient id="paint19_linear_389_812" x1="805.979" y1="276.649" x2="778.852" y2="263.43" gradientUnits="userSpaceOnUse">
<stop stop-color="#333239"/>
<stop offset="1" stop-color="#0D0D0E"/>
</linearGradient>
<linearGradient id="paint20_linear_389_812" x1="804.866" y1="223.451" x2="804.866" y2="274.321" gradientUnits="userSpaceOnUse">
<stop stop-color="#827FF4"/>
<stop offset="1" stop-color="#827FF4" stop-opacity="0"/>
</linearGradient>
<linearGradient id="paint21_linear_389_812" x1="822.892" y1="217.309" x2="778.104" y2="187.636" gradientUnits="userSpaceOnUse">
<stop stop-color="#333239"/>
<stop offset="1" stop-color="#0D0D0E"/>
</linearGradient>
<linearGradient id="paint22_linear_389_812" x1="822.888" y1="246.996" x2="778.496" y2="217.201" gradientUnits="userSpaceOnUse">
<stop stop-color="#333239"/>
<stop offset="1" stop-color="#0D0D0E"/>
</linearGradient>
<linearGradient id="paint23_linear_389_812" x1="820.752" y1="172.91" x2="820.752" y2="243.754" gradientUnits="userSpaceOnUse">
<stop stop-color="#53AEF9"/>
<stop offset="1" stop-color="#53AEF9" stop-opacity="0"/>
</linearGradient>
<linearGradient id="paint24_linear_389_812" x1="804.6" y1="134.752" x2="778.826" y2="123.049" gradientUnits="userSpaceOnUse">
<stop stop-color="#333239"/>
<stop offset="1" stop-color="#0D0D0E"/>
</linearGradient>
<linearGradient id="paint25_linear_389_812" x1="814.049" y1="174.589" x2="778.062" y2="153.704" gradientUnits="userSpaceOnUse">
<stop stop-color="#333239"/>
<stop offset="1" stop-color="#0D0D0E"/>
</linearGradient>
<linearGradient id="paint26_linear_389_812" x1="754.394" y1="172.91" x2="754.394" y2="243.801" gradientUnits="userSpaceOnUse">
<stop stop-color="#1A78D7"/>
<stop offset="1" stop-color="#1A78D7" stop-opacity="0"/>
</linearGradient>
<linearGradient id="paint27_linear_389_812" x1="649.669" y1="362.606" x2="444.897" y2="178.471" gradientUnits="userSpaceOnUse">
<stop stop-color="#FBB730"/>
<stop offset="1" stop-color="#FBB730" stop-opacity="0"/>
</linearGradient>
<linearGradient id="paint28_linear_389_812" x1="585.34" y1="233.832" x2="517.478" y2="137.952" gradientUnits="userSpaceOnUse">
<stop stop-color="#333239"/>
<stop offset="1" stop-color="#0D0D0E"/>
</linearGradient>
<linearGradient id="paint29_linear_389_812" x1="733.283" y1="315.958" x2="702.079" y2="304.412" gradientUnits="userSpaceOnUse">
<stop stop-color="#333239"/>
<stop offset="1" stop-color="#0D0D0E"/>
</linearGradient>
<linearGradient id="paint30_linear_389_812" x1="733.4" y1="369.567" x2="704.638" y2="357.183" gradientUnits="userSpaceOnUse">
<stop stop-color="#333239"/>
<stop offset="1" stop-color="#0D0D0E"/>
</linearGradient>
<linearGradient id="paint31_linear_389_812" x1="732.269" y1="308.417" x2="732.269" y2="366.891" gradientUnits="userSpaceOnUse">
<stop stop-color="#794DEC"/>
<stop offset="1" stop-color="#794DEC" stop-opacity="0"/>
</linearGradient>
<linearGradient id="paint32_linear_389_812" x1="697.636" y1="308.448" x2="697.636" y2="367.201" gradientUnits="userSpaceOnUse">
<stop stop-color="#794DEC"/>
<stop offset="1" stop-color="#794DEC" stop-opacity="0"/>
</linearGradient>
</defs>
</svg>
