<svg width="1920" height="442" viewBox="0 0 1920 442" fill="none" xmlns="http://www.w3.org/2000/svg">
<mask id="mask0_531_3274" style="mask-type:alpha" maskUnits="userSpaceOnUse" x="1" y="0" width="1919" height="443">
<rect x="1.99805" y="0.00390625" width="1918" height="442" fill="#0D0D0E"/>
</mask>
<g mask="url(#mask0_531_3274)">
</g>
<mask id="mask1_531_3274" style="mask-type:alpha" maskUnits="userSpaceOnUse" x="1" y="0" width="1919" height="442">
<rect x="1.99805" width="1918" height="442" fill="#D9D9D9"/>
</mask>
<g mask="url(#mask1_531_3274)">
<rect y="0.00390625" width="1918" height="442" fill="#0D0D0E"/>
<path d="M1239.78 200.204C1248.85 203.88 1257.06 205.35 1265.26 205.596C1459.8 253.136 1464.71 418.548 1643.69 677.08C1688.65 734.423 1737.04 783.802 1791.43 818.232C1829.28 842.247 1869.1 857.931 1912.59 856.828C1958.28 855.603 2003.61 836.121 2048.57 805.734C2095.25 774.245 2139.96 732.83 2185.04 693.254C2221.67 661.029 2325.56 582.98 2405.92 563.865V505.297C2367.58 510.076 2329.48 529.19 2291.5 553.818C2248.75 581.632 2206.24 611.773 2163.24 637.749C2106.27 672.179 2048.69 700.728 1990.75 715.186C1903.16 736.996 1820.71 727.929 1746.59 670.954C1713.64 645.591 1685.34 609.078 1656.8 573.422C1626.17 535.194 1469.61 252.646 1272.86 205.473C1263.06 203.145 1253.14 201.307 1243.09 200.204C1241.99 200.204 1240.89 200.204 1239.78 200.204Z" fill="#0D0D0E" stroke="url(#paint0_linear_531_3274)" stroke-width="2" stroke-miterlimit="10"/>
<path d="M1235.99 199.469C1237.21 199.714 1238.44 199.959 1239.78 200.082C1240.15 199.959 1240.4 199.959 1240.76 199.837C1286.21 189.545 1326.76 184.153 1363.39 181.825C1528.9 171.656 1613.31 225.69 1694.9 179.987C1794.62 123.992 1876.57 -113.098 2140.57 -139.441C2198.52 -138.093 2252.79 -119.347 2305.22 -90.7979C2336.58 -73.7666 2369.05 -76.4622 2403.47 -72.6638C2404.33 -72.5413 2405.19 -72.5413 2406.17 -72.4188V-198.254C2308.78 -260.131 2131.39 -388.907 2000.79 -348.35C1874.98 -309.264 1791.55 -109.545 1706.04 15.1882C1618.21 143.474 1445.23 166.509 1335.83 179.375C1301.77 178.027 1268.45 183.296 1235.99 199.469Z" fill="url(#paint1_linear_531_3274)" stroke="url(#paint2_linear_531_3274)" stroke-width="2" stroke-miterlimit="10"/>
<path d="M1363.39 181.948C1519.59 203.635 1684.36 342.704 1810.79 210.864C1856.48 167.735 1899.6 116.396 1942.97 66.0371C1976.9 26.7058 2011.08 -10.1749 2048.94 -33.8227C2108.6 -70.9484 2167.03 -81.4858 2224.98 -71.4385C2285.38 -61.0237 2342.1 -34.8029 2398.08 -5.64139C2400.65 -4.29359 2403.35 -18.5068 2405.92 -17.2815V-72.4188C2405.06 -72.5413 2404.21 -72.5413 2403.23 -72.6638C2368.8 -76.5847 2336.34 -73.7666 2304.98 -90.7978C2252.54 -119.347 2198.27 -137.971 2140.33 -139.441C1876.57 -113.098 1794.49 124.115 1694.77 179.987C1613.31 225.813 1528.9 171.656 1363.39 181.948Z" fill="#0D0D0E" stroke="url(#paint3_linear_531_3274)" stroke-width="2" stroke-miterlimit="10"/>
<path d="M1240.76 199.959C1240.76 199.959 1240.89 199.959 1241.01 199.959C1479.9 157.197 1575.94 323.834 1713.88 370.272C1872.28 435.702 1962.2 176.802 2039.02 96.0562C2115.83 15.3107 2176.35 6.73382 2235.27 17.6387C2275.45 25.1129 2313.06 42.6343 2349.45 65.1793C2368.31 76.8194 2386.93 73.8788 2405.92 85.0287V-17.159C2403.35 -18.5068 2400.65 -4.1711 2398.08 -5.5189C2342.1 -34.6804 2285.38 -60.9012 2224.98 -71.316C2167.03 -81.3633 2108.6 -70.8259 2048.94 -33.7002C2011.08 -10.1749 1976.78 26.8283 1942.97 66.1595C1899.6 116.518 1856.48 167.857 1810.79 210.987C1684.36 342.826 1519.59 203.635 1363.39 182.07C1326.76 184.153 1286.09 189.667 1240.76 199.959Z" fill="url(#paint4_linear_531_3274)" stroke="url(#paint5_linear_531_3274)" stroke-width="2"/>
<path d="M1284.74 204.493C1488.84 243.824 1659.61 541.198 1855.13 588.616C1954.98 611.651 2004.59 586.655 2080.91 545.976C2133.71 517.795 2184.31 476.013 2233.43 427.37C2266.88 394.41 2325.44 315.625 2406.05 281.317V166.754C2387.67 166.142 2369.05 182.561 2350.18 186.114C2301.67 195.181 2254.14 217.113 2207.71 256.69C2166.18 292.1 2125.02 329.348 2082.87 361.205C1963.67 451.508 1903.28 571.217 1727.61 457.267C1420.48 180.968 1340.73 198.734 1284.74 204.493Z" fill="url(#paint6_linear_531_3274)" stroke="#794DEC" stroke-width="2"/>
<path d="M1239.78 200.204C1240.89 200.204 1241.99 200.204 1242.97 200.204C1257.06 200.327 1270.9 201.797 1284.62 204.493C1340.73 198.734 1420.36 180.968 1727.36 457.266C1903.03 571.339 1963.55 451.63 2082.63 361.205C2124.77 329.348 2165.93 292.1 2207.46 256.689C2253.89 216.991 2301.42 195.181 2349.94 186.114C2368.93 182.56 2387.42 166.019 2405.8 166.754V85.0287C2386.81 73.8788 2368.19 76.8194 2349.32 65.1793C2312.94 42.7568 2275.21 25.1129 2235.15 17.6388C2176.22 6.6113 2115.83 15.3107 2038.89 96.0562C1962.2 176.802 1872.28 435.579 1713.88 370.272C1575.82 323.834 1479.9 157.197 1241.01 199.959C1240.52 199.959 1240.15 200.082 1239.78 200.204Z" fill="#0D0D0E" stroke="url(#paint7_linear_531_3274)" stroke-width="2" stroke-miterlimit="10"/>
<path d="M1243.09 200.204C1253.14 201.307 1262.94 203.022 1272.86 205.473C1469.48 252.646 1626.05 535.071 1656.67 573.3C1685.22 608.955 1713.52 645.468 1746.47 670.831C1820.59 727.807 1903.03 736.751 1990.63 715.064C2048.69 700.606 2106.15 672.057 2163.12 637.627C2206.11 611.651 2248.62 581.509 2291.38 553.695C2329.36 529.067 2367.46 509.953 2405.8 505.175V281.317C2325.19 315.625 2266.63 394.288 2233.19 427.37C2183.94 476.013 2133.47 517.795 2080.67 545.976C2004.35 586.778 1954.73 611.651 1854.89 588.616C1659.61 541.198 1488.84 243.824 1284.74 204.493C1271.02 201.797 1257.06 200.327 1243.09 200.204Z" fill="#0D0D0E" stroke="url(#paint8_linear_531_3274)" stroke-width="2" stroke-miterlimit="10"/>
<path d="M1305.15 155.803L1305.46 155.7L1338.24 145.51L1370.7 155.597L1370.91 155.648C1370.96 155.648 1370.96 155.648 1371.01 155.648C1371.32 155.803 1371.32 156.317 1370.96 156.42L1369.98 156.729L1338.24 167.382L1306.28 156.678L1305.1 156.266C1304.9 156.266 1304.9 155.906 1305.15 155.803Z" fill="#0D0D0E" stroke="#794DEC" stroke-width="2"/>
<path d="M1339.11 92.7111L1339.31 93.0199L1372.04 148.032C1372.5 148.804 1372.09 149.782 1371.27 150.039L1338.23 159.868V92.9684C1338.23 92.5053 1337.67 92.3509 1337.41 92.6597C1337.82 92.0421 1338.75 92.0936 1339.11 92.7111Z" fill="#0D0D0E" stroke="#794DEC" stroke-width="2"/>
<path d="M1304.28 148.392L1337.05 93.2771L1337.36 92.711C1337.36 92.711 1337.36 92.711 1337.36 92.6595C1337.62 92.2993 1338.18 92.5051 1338.18 92.9683V159.868L1304.84 149.936C1304.22 149.782 1303.92 148.958 1304.28 148.392Z" fill="#0D0D0E" stroke="#794DEC" stroke-width="2"/>
<path d="M1370.03 156.832L1371.01 156.523C1371.37 156.369 1371.37 155.906 1371.06 155.751C1371.58 155.957 1371.83 156.523 1371.63 157.038C1371.63 157.089 1371.63 157.089 1371.58 157.141C1371.58 157.141 1371.58 157.192 1371.53 157.192L1371.17 157.81L1339.37 210.969L1339.11 211.381C1338.85 211.793 1338.24 211.638 1338.24 211.124V167.433L1370.03 156.832Z" fill="#0D0D0E" stroke="#794DEC" stroke-width="2"/>
<path d="M1305.05 155.854L1305.15 155.803C1304.89 155.906 1304.89 156.266 1305.15 156.369L1306.33 156.78L1338.29 167.484V211.175C1338.29 211.638 1338.9 211.844 1339.16 211.432C1338.75 212.101 1337.82 212.101 1337.41 211.432L1337 210.763L1305.31 157.758L1304.74 156.78C1304.74 156.78 1304.74 156.78 1304.74 156.729C1304.48 156.369 1304.69 155.957 1305.05 155.854Z" fill="#0D0D0E"/>
<path d="M1339.16 211.432C1338.9 211.844 1338.29 211.638 1338.29 211.175V167.484L1306.33 156.78L1305.15 156.369C1304.89 156.266 1304.89 155.906 1305.15 155.803L1305.05 155.854C1304.69 155.957 1304.48 156.369 1304.74 156.729C1304.74 156.78 1304.74 156.78 1304.74 156.78L1305.31 157.758L1337 210.763L1337.41 211.432C1337.82 212.101 1338.75 212.101 1339.16 211.432ZM1339.16 211.432L1339.42 211.021" stroke="#794DEC" stroke-width="2"/>
<path d="M1268.98 300.306L1299.6 208.19C1300.83 204.485 1305.1 202.735 1308.55 204.536L1334.79 218.225C1337.57 219.666 1338.85 222.857 1337.88 225.841L1306.9 320.942C1305.67 324.75 1301.24 326.397 1297.79 324.39L1272.33 309.312C1269.24 307.459 1267.85 303.702 1268.98 300.306Z" fill="#0D0D0E" stroke="#794DEC" stroke-width="2"/>
<path d="M1288.43 314.612L1364.22 287.852C1367.36 286.772 1370.81 287.029 1373.69 288.676L1401.78 304.629C1404.41 306.121 1404.05 309.981 1401.22 311.01L1324.65 338.387C1321.77 339.416 1318.58 339.108 1316.01 337.564L1287.87 320.89C1285.29 319.398 1285.65 315.59 1288.43 314.612Z" fill="#0D0D0E" stroke="#FBB730" stroke-width="2"/>
<path d="M1354.19 220.386L1400.96 286.205C1402.35 288.212 1400.08 290.683 1397.97 289.499L1370.91 274.164C1368.7 272.928 1366.84 271.23 1365.35 269.172L1319.51 204.897C1318.32 203.198 1320.18 201.037 1322.03 202.015L1349.56 216.372C1351.41 217.35 1353 218.688 1354.19 220.386Z" fill="#0D0D0E" stroke="#794DEC" stroke-width="2"/>
<path d="M1151.15 250.903L1201.84 98.3716C1203.89 92.2477 1210.94 89.3658 1216.71 92.3506L1260.13 114.994C1264.71 117.361 1266.87 122.713 1265.28 127.602L1213.98 285.073C1211.92 291.352 1204.61 294.13 1198.9 290.734L1156.76 265.775C1151.57 262.791 1149.25 256.564 1151.15 250.903Z" fill="#0D0D0E" stroke="url(#paint9_linear_531_3274)" stroke-width="2" stroke-miterlimit="10"/>
<path d="M1183.36 274.627L1308.86 230.267C1314.05 228.415 1319.77 228.929 1324.5 231.657L1371.01 258.056C1375.33 260.527 1374.77 266.908 1370.09 268.606L1243.26 313.995C1238.52 315.693 1233.22 315.178 1228.9 312.605L1182.34 285.022C1178.17 282.552 1178.79 276.274 1183.36 274.627Z" fill="#0D0D0E" stroke="#316EFF" stroke-width="2"/>
<path d="M1292.24 118.648L1369.72 227.591C1372.04 230.885 1368.28 235.053 1364.78 233.046L1319.97 207.624C1316.32 205.566 1313.18 202.735 1310.76 199.339L1234.81 93.0198C1232.81 90.2409 1235.95 86.6386 1238.98 88.2339L1284.57 112.009C1287.61 113.553 1290.23 115.869 1292.24 118.648Z" fill="#0D0D0E" stroke="url(#paint10_linear_531_3274)" stroke-width="2" stroke-miterlimit="10"/>
<path d="M1377.85 198.721L1503.34 154.362C1508.54 152.509 1514.25 153.024 1518.99 155.751L1565.5 182.151C1569.82 184.621 1569.26 191.002 1564.57 192.7L1437.79 238.089C1433.06 239.788 1427.76 239.273 1423.44 236.7L1376.87 209.117C1372.6 206.646 1373.22 200.368 1377.85 198.721Z" fill="#0D0D0E" stroke="url(#paint11_linear_531_3274)" stroke-width="2" stroke-miterlimit="10"/>
<path d="M1426.37 318.008L1503.86 426.952C1506.18 430.245 1502.42 434.414 1498.92 432.407L1454.11 406.985C1450.45 404.926 1447.31 402.096 1444.9 398.699L1368.95 292.329C1366.94 289.55 1370.08 285.948 1373.12 287.543L1418.71 311.318C1421.79 312.913 1424.42 315.178 1426.37 318.008Z" fill="#0D0D0E" stroke="url(#paint12_linear_531_3274)" stroke-width="2" stroke-miterlimit="10"/>
<path d="M1188.83 320.541L1259.38 419.725C1261.48 422.723 1258.06 426.518 1254.88 424.691L1214.08 401.547C1210.75 399.673 1207.9 397.096 1205.69 394.004L1136.55 297.163C1134.73 294.633 1137.58 291.353 1140.35 292.805L1181.85 314.451C1184.66 315.903 1187.05 317.964 1188.83 320.541Z" fill="#0D0D0E" stroke="url(#paint13_linear_531_3274)" stroke-width="2" stroke-miterlimit="10"/>
<path d="M1295.55 198.15C1284.59 194.559 1274.67 193.123 1264.75 192.884C1029.6 146.439 1023.67 -15.1573 807.325 -267.727C752.979 -323.747 694.486 -371.987 628.737 -405.623C582.98 -429.084 534.853 -444.406 482.284 -443.329C427.049 -442.132 372.259 -423.099 317.912 -393.413C261.493 -362.65 207.443 -322.191 152.949 -283.527C108.672 -252.046 -16.9021 -175.796 -114.044 -157.123V-99.9057C-67.6944 -104.574 -21.6407 -123.247 24.2648 -147.307C75.9456 -174.48 127.33 -203.926 179.307 -229.303C248.166 -262.939 317.764 -290.829 387.807 -304.954C493.686 -326.261 593.346 -317.403 682.936 -261.742C722.77 -236.964 756.977 -201.293 791.48 -166.46C828.501 -129.113 1017.75 146.918 1255.57 193.003C1267.42 195.278 1279.41 197.073 1291.55 198.15C1292.89 198.15 1294.22 198.15 1295.55 198.15Z" fill="#0D0D0E" stroke="url(#paint14_linear_531_3274)" stroke-width="2" stroke-miterlimit="10"/>
<path d="M1300.14 198.869C1298.66 198.629 1297.18 198.39 1295.55 198.27C1295.11 198.39 1294.81 198.39 1294.37 198.509C1239.43 208.564 1190.41 213.831 1146.14 216.106C946.077 226.041 844.049 173.252 745.426 217.901C624.886 272.605 525.819 504.226 206.702 529.962C136.659 528.646 71.0581 510.331 7.67879 482.441C-30.2303 465.802 -69.4722 468.436 -111.083 464.725C-112.12 464.605 -113.156 464.605 -114.341 464.486V587.419C3.38445 647.868 217.808 773.674 375.664 734.053C527.744 695.868 628.589 500.755 731.95 378.899C838.125 253.572 1047.22 231.068 1179.46 218.5C1220.62 219.816 1260.9 214.669 1300.14 198.869Z" fill="#0D0D0E" stroke="#794DEC" stroke-width="2" stroke-miterlimit="10"/>
<g opacity="0.4">
<path d="M1294.37 198.39C1294.37 198.39 1294.22 198.39 1294.07 198.39C1005.31 240.165 889.214 77.3717 722.473 32.0049C531.002 -31.9156 422.309 221.013 329.462 299.896C236.614 378.779 163.461 387.159 92.2336 376.505C43.6626 369.203 -1.79868 352.086 -45.7792 330.061C-68.5839 318.689 -91.0925 321.562 -114.045 310.669V410.5C-110.936 411.817 -107.678 397.812 -104.568 399.129C-36.8942 427.618 31.6679 453.234 104.673 463.408C174.716 473.224 245.351 462.929 317.467 426.66C363.225 403.677 404.688 367.528 445.558 329.103C497.98 279.906 550.105 229.751 605.339 187.617C758.161 58.818 957.331 194.799 1146.14 215.866C1190.41 213.831 1239.58 208.445 1294.37 198.39Z" fill="url(#paint15_linear_531_3274)"/>
<path d="M1294.37 198.39C1294.37 198.39 1294.22 198.39 1294.07 198.39C1005.31 240.165 889.214 77.3717 722.473 32.0049C531.002 -31.9156 422.309 221.013 329.462 299.896C236.614 378.779 163.461 387.159 92.2336 376.505C43.6626 369.203 -1.79868 352.086 -45.7792 330.061C-68.5839 318.689 -91.0925 321.562 -114.045 310.669V410.5C-110.936 411.817 -107.678 397.812 -104.568 399.129C-36.8942 427.618 31.6679 453.234 104.673 463.408C174.716 473.224 245.351 462.929 317.467 426.66C363.225 403.677 404.688 367.528 445.558 329.103C497.98 279.906 550.105 229.751 605.339 187.617C758.161 58.818 957.331 194.799 1146.14 215.866C1190.41 213.831 1239.58 208.445 1294.37 198.39Z" fill="url(#paint16_linear_531_3274)"/>
<path d="M1294.37 198.39C1294.37 198.39 1294.22 198.39 1294.07 198.39C1005.31 240.165 889.214 77.3717 722.473 32.0049C531.002 -31.9156 422.309 221.013 329.462 299.896C236.614 378.779 163.461 387.159 92.2336 376.505C43.6626 369.203 -1.79868 352.086 -45.7792 330.061C-68.5839 318.689 -91.0925 321.562 -114.045 310.669V410.5C-110.936 411.817 -107.678 397.812 -104.568 399.129C-36.8942 427.618 31.6679 453.234 104.673 463.408C174.716 473.224 245.351 462.929 317.467 426.66C363.225 403.677 404.688 367.528 445.558 329.103C497.98 279.906 550.105 229.751 605.339 187.617C758.161 58.818 957.331 194.799 1146.14 215.866C1190.41 213.831 1239.58 208.445 1294.37 198.39Z" stroke="url(#paint17_linear_531_3274)" stroke-width="2"/>
</g>
<path d="M1241.21 198.453C994.502 164.709 788.075 -90.4218 551.735 -131.104C431.048 -150.867 371.075 -129.422 278.819 -94.5215C214.996 -70.3435 153.838 -34.4969 94.4565 7.23648C54.03 35.5143 -16.7535 103.108 -114.192 132.542V230.831C-91.9794 231.356 -69.4709 217.27 -46.6662 214.222C11.9745 206.443 69.4306 187.626 125.554 153.671C175.754 123.291 225.509 91.334 276.45 64.0023C420.534 -13.4725 493.539 -116.177 705.889 -18.4132C1077.13 218.637 1173.53 203.394 1241.21 198.453Z" fill="url(#paint18_linear_531_3274)" stroke="url(#paint19_linear_531_3274)" stroke-width="2"/>
<path d="M1291.55 198.15C1279.41 197.073 1267.57 195.397 1255.57 193.003C1017.9 146.918 828.649 -128.993 791.628 -166.34C757.125 -201.173 722.918 -236.844 683.084 -261.622C593.494 -317.283 493.835 -326.021 387.956 -304.834C317.764 -290.71 248.314 -262.819 179.456 -229.183C127.479 -203.806 76.0939 -174.36 24.4132 -147.188C-21.4924 -123.128 -67.546 -104.454 -113.896 -99.7861V118.908C-16.4575 85.3918 54.3258 8.54357 94.7523 -23.7758C154.281 -71.2972 215.291 -112.115 279.115 -139.647C371.37 -179.507 431.344 -203.806 552.031 -181.303C788.074 -134.978 994.501 155.537 1241.21 193.961C1257.79 196.594 1274.67 198.031 1291.55 198.15Z" fill="#0D0D0E" stroke="url(#paint20_linear_531_3274)" stroke-width="2" stroke-miterlimit="10"/>
<path d="M1146.14 215.986C957.334 194.799 758.163 58.9379 605.342 187.736C550.107 229.871 497.982 280.026 445.561 329.223C404.542 367.647 363.227 403.678 317.469 426.78C245.353 463.049 174.718 473.344 104.675 463.528C31.6701 453.354 -36.8919 427.738 -104.566 399.249C-107.675 397.932 -110.933 411.817 -114.043 410.62V464.486C-113.006 464.606 -111.97 464.606 -110.785 464.725C-69.1741 468.556 -29.9321 465.803 7.97703 482.441C71.3563 510.331 136.957 528.526 207 529.962C525.821 504.227 625.037 272.485 745.576 217.901C844.05 173.133 946.079 226.041 1146.14 215.986Z" fill="url(#paint21_linear_531_3274)" stroke="url(#paint22_linear_531_3274)" stroke-width="2" stroke-miterlimit="10"/>
<path d="M1432.8 137.805C1432.64 138.264 1432.49 138.57 1432.49 139.029V139.181C1432.49 139.635 1432.66 140.086 1433 140.415C1433.16 140.772 1433.35 141.137 1433.55 141.474L1477.32 204.924C1477.77 205.688 1478.54 205.688 1478.99 205.23L1523.01 141.477C1523.46 140.875 1523.89 139.728 1523.9 139.11C1523.91 139.082 1523.92 139.055 1523.92 139.026V138.873C1523.92 138.568 1523.92 138.109 1523.62 137.65L1479.13 62.7323C1478.64 61.9542 1477.94 61.9698 1477.49 62.3965C1477.48 62.406 1477.46 62.4103 1477.45 62.4207C1477.36 62.5202 1477.3 62.5739 1477.3 62.5739C1477.24 62.6639 1477.2 62.7418 1477.2 62.7418L1432.8 137.805Z" fill="#0D0D0E" stroke="url(#paint23_linear_531_3274)" stroke-width="2" stroke-miterlimit="10"/>
<path d="M1607.05 355.434C1607 355.596 1606.94 355.705 1606.94 355.868V355.922C1606.94 356.083 1607 356.244 1607.12 356.361C1607.18 356.487 1607.25 356.617 1607.32 356.736L1622.86 379.269C1623.02 379.54 1623.29 379.54 1623.46 379.378L1639.09 356.738C1639.25 356.524 1639.4 356.116 1639.41 355.897C1639.41 355.887 1639.41 355.877 1639.41 355.867V355.813C1639.41 355.704 1639.41 355.541 1639.3 355.379L1623.5 328.773C1623.33 328.497 1623.08 328.503 1622.92 328.654C1622.92 328.658 1622.91 328.659 1622.91 328.663C1622.88 328.698 1622.86 328.717 1622.86 328.717C1622.83 328.749 1622.82 328.777 1622.82 328.777L1607.05 355.434Z" fill="#0D0D0E" stroke="url(#paint24_linear_531_3274)" stroke-width="2" stroke-miterlimit="10"/>
<path d="M1579.84 248.794C1579.8 248.926 1579.75 249.015 1579.75 249.147V249.191C1579.75 249.321 1579.8 249.451 1579.9 249.546C1579.95 249.649 1580 249.754 1580.06 249.851L1592.66 268.124C1592.79 268.344 1593.01 268.344 1593.15 268.212L1605.82 249.852C1605.95 249.678 1606.08 249.348 1606.08 249.17C1606.08 249.162 1606.08 249.154 1606.08 249.146V249.102C1606.08 249.014 1606.08 248.882 1606 248.75L1593.18 227.174C1593.04 226.95 1592.84 226.954 1592.71 227.077C1592.71 227.08 1592.71 227.081 1592.7 227.084C1592.67 227.113 1592.66 227.128 1592.66 227.128C1592.64 227.154 1592.63 227.176 1592.63 227.176L1579.84 248.794Z" fill="#0D0D0E" stroke="#EB2467" stroke-width="2" stroke-miterlimit="10"/>
<path d="M1373.76 84.1158C1373.71 84.2802 1373.65 84.39 1373.65 84.5544V84.609C1373.65 84.7715 1373.71 84.9334 1373.83 85.0513C1373.89 85.179 1373.96 85.31 1374.04 85.4306L1389.72 108.169C1389.88 108.443 1390.15 108.443 1390.32 108.279L1406.09 85.4318C1406.25 85.216 1406.41 84.805 1406.41 84.5836C1406.41 84.5736 1406.42 84.5637 1406.42 84.5535V84.4986C1406.42 84.3891 1406.42 84.2247 1406.31 84.0603L1390.37 57.2123C1390.19 56.9334 1389.94 56.939 1389.78 57.0919C1389.77 57.0953 1389.77 57.0969 1389.77 57.1006C1389.73 57.1363 1389.71 57.1555 1389.71 57.1555C1389.69 57.1878 1389.67 57.2157 1389.67 57.2157L1373.76 84.1158Z" fill="#0D0D0E" stroke="#FBB730" stroke-width="2" stroke-miterlimit="10"/>
<path d="M1659.7 191.913C1659.63 192.132 1659.56 192.279 1659.56 192.498V192.571C1659.56 192.787 1659.64 193.003 1659.8 193.16C1659.88 193.33 1659.97 193.505 1660.07 193.666L1680.97 223.973C1681.19 224.338 1681.55 224.338 1681.77 224.119L1702.79 193.667C1703.01 193.38 1703.22 192.832 1703.22 192.537C1703.22 192.524 1703.23 192.51 1703.23 192.497V192.424C1703.23 192.278 1703.23 192.058 1703.08 191.839L1681.83 156.055C1681.6 155.683 1681.27 155.691 1681.05 155.895C1681.04 155.899 1681.04 155.901 1681.03 155.906C1680.99 155.954 1680.96 155.979 1680.96 155.979C1680.93 156.022 1680.91 156.06 1680.91 156.06L1659.7 191.913Z" fill="#0D0D0E" stroke="url(#paint25_linear_531_3274)" stroke-width="2" stroke-miterlimit="10"/>
<path d="M1606.41 106.547C1606.36 106.69 1606.31 106.786 1606.31 106.928V106.976C1606.31 107.117 1606.36 107.258 1606.47 107.361C1606.52 107.472 1606.58 107.585 1606.64 107.69L1620.28 127.462C1620.42 127.7 1620.66 127.7 1620.8 127.557L1634.51 107.691C1634.66 107.504 1634.79 107.146 1634.8 106.954C1634.8 106.945 1634.8 106.937 1634.8 106.928V106.88C1634.8 106.785 1634.8 106.642 1634.7 106.499L1620.84 83.1541C1620.69 82.9117 1620.47 82.9165 1620.33 83.0495C1620.33 83.0524 1620.32 83.0538 1620.32 83.057C1620.29 83.088 1620.27 83.1048 1620.27 83.1048C1620.25 83.1328 1620.24 83.1571 1620.24 83.1571L1606.41 106.547Z" fill="#0D0D0E" stroke="url(#paint26_linear_531_3274)" stroke-width="2" stroke-miterlimit="10"/>
<path d="M1479.16 102.53L1479.17 102.541L1479.16 102.552V102.53Z" stroke="black" stroke-width="3" stroke-linejoin="round"/>
<path d="M1486.32 97.9389L1479.19 102.541L1479.16 86.4806C1479.16 86.1138 1478.89 85.9044 1478.68 86.0718C1478.75 85.9801 1478.84 85.9103 1478.95 85.8682C1479.06 85.827 1479.17 85.8152 1479.28 85.8337C1479.4 85.8531 1479.5 85.9018 1479.59 85.9767C1479.68 86.0516 1479.75 86.1492 1479.79 86.2602L1486.32 97.9389Z" fill="#0D0D0E" stroke="#FC306B" stroke-width="3" stroke-linejoin="round"/>
<path d="M1479.65 183.899C1479.57 183.975 1479.48 184.03 1479.37 184.062C1479.27 184.093 1479.16 184.1 1479.06 184.082C1478.95 184.064 1478.85 184.021 1478.76 183.957C1478.67 183.893 1478.59 183.809 1478.54 183.711L1463.71 161.204L1479.17 170.298V183.49C1479.17 183.847 1479.44 184.057 1479.65 183.899Z" stroke="url(#paint27_linear_531_3274)" stroke-width="3" stroke-linejoin="round"/>
<path d="M1479.16 102.514L1472.01 97.9288C1472.01 97.9288 1478.65 86.0936 1478.68 86.0726C1478.9 85.9052 1479.16 86.1147 1479.16 86.4814V102.514Z" stroke="#E91224" stroke-width="3" stroke-linejoin="round"/>
<path d="M1479.17 102.541L1479.16 111.179V120.533L1464.87 110.76H1464.86L1472.01 97.929L1479.16 102.53L1479.17 102.541Z" stroke="#F86E30" stroke-width="3" stroke-linejoin="round"/>
<path d="M1494.62 161.214L1479.79 183.711C1479.78 183.74 1479.77 183.764 1479.74 183.784C1479.72 183.83 1479.69 183.869 1479.66 183.899C1479.44 184.057 1479.17 183.847 1479.17 183.491V170.298L1494.62 161.214Z" fill="#0D0D0E" stroke="url(#paint28_linear_531_3274)" stroke-width="3" stroke-linejoin="round"/>
<path d="M1508.82 138.498C1508.82 138.54 1508.81 138.582 1508.81 138.624C1508.79 138.837 1508.72 139.042 1508.61 139.224C1508.5 139.407 1508.36 139.563 1508.19 139.682L1479.16 157L1479.16 138.143L1501.35 124.891L1508.61 137.691C1508.76 137.928 1508.83 138.211 1508.82 138.498Z" fill="#0D0D0E" stroke="#74CA38" stroke-width="3" stroke-linejoin="round"/>
<path d="M1508.81 138.623C1508.71 139.198 1508.5 139.744 1508.19 140.227L1494.62 161.214L1479.18 170.289L1479.17 156.998L1508.19 139.682C1508.36 139.563 1508.5 139.406 1508.61 139.224C1508.72 139.041 1508.78 138.837 1508.81 138.623Z" fill="#0D0D0E" stroke="url(#paint29_linear_531_3274)" stroke-width="3" stroke-linejoin="round"/>
<path d="M1486.32 97.9348L1493.47 110.761L1479.16 120.533L1479.17 102.549L1486.32 97.9348Z" fill="#0D0D0E" stroke="#F78F31" stroke-width="3" stroke-linejoin="round"/>
<path d="M1479.12 120.471L1479.08 138.075L1456.98 124.883L1464.87 110.758L1479.12 120.471Z" stroke="#FEB92F" stroke-width="3" stroke-linejoin="round"/>
<path d="M1493.47 110.76L1501.36 124.884L1479.21 138.122L1479.21 120.471L1493.47 110.76Z" fill="#0D0D0E" stroke="#FFC866" stroke-width="3" stroke-linejoin="round"/>
<path d="M1479.16 138.144L1479.15 157.104L1450.15 139.672C1449.98 139.555 1449.84 139.4 1449.73 139.22C1449.62 139.039 1449.55 138.836 1449.52 138.624C1449.52 138.582 1449.51 138.54 1449.51 138.498C1449.5 138.212 1449.58 137.929 1449.73 137.691L1456.98 124.881L1479.16 138.144Z" stroke="#0BB875" stroke-width="3" stroke-linejoin="round"/>
<path d="M1479.17 157.116L1479.2 170.31L1463.71 161.203L1450.15 140.227C1449.84 139.744 1449.62 139.198 1449.52 138.623C1449.55 138.835 1449.62 139.038 1449.73 139.219C1449.83 139.399 1449.98 139.554 1450.15 139.671L1479.17 157.116Z" stroke="url(#paint30_linear_531_3274)" stroke-width="3" stroke-linejoin="round"/>
<path d="M1010.27 141.027C1010.2 141.238 1010.13 141.379 1010.13 141.59V141.66C1010.13 141.869 1010.21 142.077 1010.36 142.228C1010.44 142.392 1010.53 142.56 1010.62 142.715L1030.76 171.919C1030.97 172.271 1031.32 172.271 1031.53 172.06L1051.79 142.717C1052 142.44 1052.2 141.912 1052.2 141.627C1052.21 141.615 1052.21 141.602 1052.21 141.589V141.518C1052.21 141.378 1052.21 141.166 1052.07 140.955L1031.59 106.474C1031.37 106.115 1031.05 106.123 1030.84 106.319C1030.83 106.323 1030.83 106.325 1030.82 106.33C1030.78 106.376 1030.75 106.401 1030.75 106.401C1030.73 106.442 1030.71 106.478 1030.71 106.478L1010.27 141.027Z" fill="#0D0D0E" stroke="url(#paint31_linear_531_3274)" stroke-width="2" stroke-miterlimit="10"/>
<path d="M1252.03 361.444C1252.08 361.608 1252.1 361.728 1252.19 361.861L1252.22 361.905C1252.31 362.037 1252.46 362.134 1252.62 362.161C1252.74 362.231 1252.87 362.297 1253 362.353L1278.67 371.809C1278.96 371.937 1279.18 371.781 1279.22 371.554L1278.96 344.035C1278.97 343.768 1278.86 343.346 1278.74 343.164C1278.74 343.156 1278.73 343.145 1278.73 343.137L1278.7 343.092C1278.63 343.003 1278.54 342.87 1278.36 342.799L1250.13 330.164C1249.83 330.038 1249.63 330.185 1249.59 330.402C1249.59 330.407 1249.59 330.411 1249.58 330.416C1249.58 330.465 1249.57 330.492 1249.57 330.492C1249.57 330.531 1249.58 330.562 1249.58 330.562L1252.03 361.444Z" fill="#0D0D0E" stroke="url(#paint32_linear_531_3274)" stroke-width="2" stroke-miterlimit="10"/>
<path d="M617.758 159.802C617.59 159.846 617.469 159.86 617.331 159.949L617.285 159.979C617.149 160.068 617.046 160.207 617.013 160.371C616.937 160.49 616.866 160.62 616.804 160.746L606.296 186.297C606.156 186.584 606.305 186.813 606.532 186.861L634.263 187.658C634.532 187.676 634.962 187.584 635.15 187.467C635.158 187.462 635.169 187.461 635.178 187.455L635.224 187.425C635.315 187.366 635.453 187.276 635.531 187.095L649.34 159.087C649.479 158.789 649.338 158.582 649.121 158.528C649.116 158.526 649.112 158.524 649.107 158.522C649.058 158.513 649.031 158.506 649.031 158.506C648.992 158.505 648.96 158.508 648.96 158.508L617.758 159.802Z" fill="#0D0D0E" stroke="url(#paint33_linear_531_3274)" stroke-width="2" stroke-miterlimit="10"/>
<path d="M995.128 243.437C995.055 243.656 994.982 243.802 994.982 244.021V244.094C994.982 244.311 995.063 244.527 995.223 244.684C995.3 244.854 995.394 245.028 995.49 245.189L1016.39 275.496C1016.61 275.861 1016.98 275.861 1017.19 275.642L1038.22 245.191C1038.43 244.903 1038.64 244.355 1038.65 244.06C1038.65 244.047 1038.65 244.034 1038.65 244.02V243.947C1038.65 243.801 1038.65 243.582 1038.51 243.363L1017.26 207.578C1017.03 207.207 1016.69 207.214 1016.47 207.418C1016.47 207.423 1016.46 207.425 1016.46 207.43C1016.41 207.477 1016.38 207.503 1016.38 207.503C1016.35 207.546 1016.34 207.583 1016.34 207.583L995.128 243.437Z" fill="#0D0D0E" stroke="url(#paint34_linear_531_3274)" stroke-width="2" stroke-miterlimit="10"/>
<path d="M1072.08 351.763C1071.97 351.857 1071.87 351.912 1071.8 352.032L1071.77 352.072C1071.7 352.191 1071.66 352.338 1071.7 352.481C1071.68 352.601 1071.67 352.73 1071.66 352.852L1072.45 376.865C1072.44 377.143 1072.64 377.271 1072.84 377.228L1095.11 367.944C1095.33 367.862 1095.63 367.635 1095.74 367.476C1095.75 367.469 1095.76 367.464 1095.76 367.456L1095.79 367.416C1095.84 367.336 1095.91 367.216 1095.91 367.044L1096.86 339.903C1096.87 339.617 1096.68 339.503 1096.49 339.538C1096.49 339.539 1096.48 339.538 1096.48 339.539C1096.44 339.549 1096.41 339.553 1096.41 339.553C1096.38 339.566 1096.36 339.58 1096.36 339.58L1072.08 351.763Z" fill="#0D0D0E" stroke="url(#paint35_linear_531_3274)" stroke-width="2" stroke-miterlimit="10"/>
<path d="M1247.59 256.065C1276.45 256.065 1299.84 232.669 1299.84 203.792C1299.84 174.914 1276.45 151.519 1247.59 151.519C1218.72 151.519 1195.34 174.914 1195.34 203.792C1195.34 232.669 1218.72 256.065 1247.59 256.065Z" fill="url(#paint36_linear_531_3274)" stroke="url(#paint37_linear_531_3274)" stroke-width="2" stroke-miterlimit="10"/>
<path d="M1249.61 250.798C1276.97 250.798 1299.1 228.612 1299.1 201.288C1299.1 173.922 1276.93 151.778 1249.61 151.778C1222.3 151.778 1200.12 173.922 1200.12 201.245C1200.12 228.612 1222.3 250.798 1249.61 250.798Z" fill="#0D0D0E" stroke="url(#paint38_linear_531_3274)" stroke-width="2" stroke-miterlimit="10"/>
<path d="M1246.55 246.914C1267.48 246.914 1284.43 229.95 1284.43 209.015C1284.43 188.08 1267.48 171.116 1246.55 171.116C1225.62 171.116 1217.43 189.806 1217.43 210.741C1217.43 231.676 1225.62 246.914 1246.55 246.914Z" fill="url(#paint39_linear_531_3274)" stroke="url(#paint40_linear_531_3274)" stroke-width="2" stroke-miterlimit="10"/>
<path d="M1272.53 212.77C1282.58 203.533 1289.74 183.677 1278.22 171.116C1266.66 158.555 1249.18 155.835 1239.13 165.073C1229.08 174.31 1230.33 191.964 1241.85 204.569C1253.41 217.086 1262.47 222.007 1272.53 212.77Z" fill="#0D0D0E" stroke="#794DEC" stroke-width="2" stroke-miterlimit="10"/>
<path d="M1266.49 209.231C1271.4 204.741 1270.8 196.065 1265.15 189.936C1259.5 183.806 1250.95 182.468 1246.03 186.957C1241.12 191.447 1241.72 200.123 1247.37 206.252C1253.02 212.382 1261.57 213.763 1266.49 209.231Z" fill="#0D0D0E" stroke="url(#paint41_linear_531_3274)" stroke-width="2" stroke-miterlimit="10"/>
<path d="M1211.58 286.781C1217.16 286.973 1221.92 283.889 1222.21 279.893C1222.5 275.897 1218.22 272.502 1212.64 272.31C1207.07 272.117 1202.31 275.201 1202.01 279.197C1201.72 283.193 1206.01 286.588 1211.58 286.781Z" fill="#0D0D0E" stroke="url(#paint42_linear_531_3274)" stroke-width="2"/>
<path d="M1431.84 229.993C1437.74 230.196 1442.77 226.93 1443.08 222.698C1443.39 218.466 1438.86 214.87 1432.97 214.667C1427.07 214.464 1422.04 217.73 1421.73 221.962C1421.42 226.194 1425.95 229.79 1431.84 229.993Z" fill="#0D0D0E" stroke="url(#paint43_linear_531_3274)" stroke-width="2"/>
<path d="M1313.42 242.126C1316.16 242.292 1318.54 240.822 1318.74 238.844C1318.93 236.867 1316.86 235.129 1314.11 234.964C1311.37 234.799 1308.98 236.268 1308.79 238.246C1308.6 240.223 1310.67 241.961 1313.42 242.126Z" fill="#0D0D0E" stroke="url(#paint44_linear_531_3274)" stroke-width="2"/>
<path d="M1359.46 264.471C1361.8 264.611 1363.82 263.363 1363.98 261.684C1364.14 260.004 1362.39 258.528 1360.05 258.388C1357.72 258.247 1355.7 259.495 1355.53 261.175C1355.37 262.855 1357.13 264.33 1359.46 264.471Z" fill="#0D0D0E" stroke="url(#paint45_linear_531_3274)" stroke-width="2"/>
<path d="M210.624 90.126C210.494 90.1662 210.398 90.1812 210.293 90.2562L210.258 90.2812C210.154 90.3554 210.077 90.4684 210.057 90.5993C210.001 90.695 209.949 90.7999 209.905 90.9014L202.482 111.372C202.381 111.602 202.506 111.778 202.686 111.808L224.549 111.51C224.761 111.515 225.096 111.428 225.24 111.33C225.247 111.326 225.255 111.324 225.262 111.32L225.297 111.295C225.368 111.245 225.473 111.169 225.529 111.024L235.469 88.5088C235.569 88.2695 235.451 88.1117 235.278 88.0761C235.274 88.075 235.271 88.073 235.267 88.0723C235.228 88.0663 235.207 88.0622 235.207 88.0622C235.176 88.0624 235.151 88.0656 235.151 88.0656L210.624 90.126Z" fill="#0D0D0E" stroke="url(#paint46_linear_531_3274)" stroke-width="2" stroke-miterlimit="10"/>
<path d="M609.422 310.415C609.271 310.496 609.157 310.537 609.045 310.655L609.008 310.695C608.897 310.811 608.831 310.969 608.837 311.136C608.791 311.267 608.753 311.409 608.722 311.545L604.508 338.6C604.44 338.909 604.636 339.095 604.866 339.089L631.77 333.429C632.033 333.383 632.425 333.195 632.579 333.039C632.587 333.032 632.597 333.028 632.604 333.021L632.641 332.981C632.716 332.902 632.828 332.784 632.861 332.592L639.687 302.404C639.752 302.085 639.569 301.919 639.346 301.917C639.341 301.916 639.337 301.915 639.332 301.915C639.283 301.917 639.255 301.917 639.255 301.917C639.217 301.925 639.187 301.935 639.187 301.935L609.422 310.415Z" fill="#0D0D0E" stroke="url(#paint47_linear_531_3274)" stroke-width="2" stroke-miterlimit="10"/>
<path d="M371.259 234.392C371.129 234.468 371.03 234.508 370.936 234.615L370.904 234.651C370.811 234.757 370.758 234.897 370.768 235.043C370.733 235.16 370.704 235.286 370.681 235.406L367.869 259.266C367.819 259.539 367.997 259.696 368.198 259.683L391.604 253.841C391.833 253.793 392.171 253.615 392.301 253.473C392.307 253.467 392.316 253.463 392.322 253.456L392.354 253.421C392.416 253.349 392.511 253.242 392.534 253.072L397.535 226.379C397.581 226.097 397.415 225.957 397.22 225.963C397.216 225.963 397.212 225.961 397.208 225.961C397.165 225.965 397.14 225.966 397.14 225.966C397.107 225.974 397.081 225.983 397.081 225.983L371.259 234.392Z" fill="#0D0D0E" stroke="url(#paint48_linear_531_3274)" stroke-width="2" stroke-miterlimit="10"/>
<path opacity="0.5" d="M1925.23 442H-3.23149" stroke="url(#paint49_linear_531_3274)"/>
</g>
<line x1="1.99805" y1="441.5" x2="1920" y2="441.5" stroke="url(#paint50_linear_531_3274)"/>
<line x1="1.99805" y1="0.5" x2="1920" y2="0.5" stroke="url(#paint51_linear_531_3274)"/>
<rect x="1829.09" y="0.00390625" width="90.9053" height="442" fill="url(#paint52_linear_531_3274)"/>
<rect x="90.9062" y="442.004" width="90.9053" height="442" transform="rotate(-180 90.9062 442.004)" fill="url(#paint53_linear_531_3274)"/>
<defs>
<linearGradient id="paint0_linear_531_3274" x1="1541.21" y1="273.05" x2="1594.31" y2="512.945" gradientUnits="userSpaceOnUse">
<stop stop-color="#316EFF"/>
<stop offset="1" stop-color="#316EFF" stop-opacity="0"/>
</linearGradient>
<linearGradient id="paint1_linear_531_3274" x1="1225.34" y1="-252.632" x2="1881.46" y2="81.5283" gradientUnits="userSpaceOnUse">
<stop stop-color="#333239"/>
<stop offset="1" stop-color="#0D0D0E"/>
</linearGradient>
<linearGradient id="paint2_linear_531_3274" x1="1496.61" y1="191.893" x2="1821.08" y2="200.065" gradientUnits="userSpaceOnUse">
<stop stop-color="#0BB875"/>
<stop offset="1" stop-color="#0BB875" stop-opacity="0"/>
</linearGradient>
<linearGradient id="paint3_linear_531_3274" x1="1681.52" y1="189.074" x2="1769.49" y2="94.2887" gradientUnits="userSpaceOnUse">
<stop stop-color="#794DEC"/>
<stop offset="1" stop-color="#794DEC" stop-opacity="0"/>
</linearGradient>
<linearGradient id="paint4_linear_531_3274" x1="1230.16" y1="9.86046" x2="1825.01" y2="378.059" gradientUnits="userSpaceOnUse">
<stop stop-color="#333239"/>
<stop offset="1" stop-color="#0D0D0E"/>
</linearGradient>
<linearGradient id="paint5_linear_531_3274" x1="1645.98" y1="248.372" x2="2034.05" y2="125.068" gradientUnits="userSpaceOnUse">
<stop stop-color="#EB2467"/>
<stop offset="1" stop-color="#794DEC" stop-opacity="0"/>
</linearGradient>
<linearGradient id="paint6_linear_531_3274" x1="1274.54" y1="246.859" x2="1841.23" y2="604.016" gradientUnits="userSpaceOnUse">
<stop stop-color="#333239"/>
<stop offset="1" stop-color="#0D0D0E"/>
</linearGradient>
<linearGradient id="paint7_linear_531_3274" x1="1304.57" y1="184.829" x2="2004.15" y2="295.879" gradientUnits="userSpaceOnUse">
<stop stop-color="#F66E30"/>
<stop offset="1" stop-color="#794DEC" stop-opacity="0"/>
</linearGradient>
<linearGradient id="paint8_linear_531_3274" x1="1530.41" y1="185.217" x2="1610.22" y2="450.358" gradientUnits="userSpaceOnUse">
<stop stop-color="#316EFF"/>
<stop offset="1" stop-color="#316EFF" stop-opacity="0"/>
</linearGradient>
<linearGradient id="paint9_linear_531_3274" x1="1208.15" y1="91.1643" x2="1208.15" y2="292.196" gradientUnits="userSpaceOnUse">
<stop stop-color="#0BB875"/>
<stop offset="1" stop-color="#0BB875" stop-opacity="0"/>
</linearGradient>
<linearGradient id="paint10_linear_531_3274" x1="1302.31" y1="87.8413" x2="1302.31" y2="233.571" gradientUnits="userSpaceOnUse">
<stop stop-color="#316EFF"/>
<stop offset="1" stop-color="#316EFF" stop-opacity="0"/>
</linearGradient>
<linearGradient id="paint11_linear_531_3274" x1="1592.63" y1="134.068" x2="1367.35" y2="248.436" gradientUnits="userSpaceOnUse">
<stop stop-color="#316EFF"/>
<stop offset="1" stop-color="#316EFF" stop-opacity="0"/>
</linearGradient>
<linearGradient id="paint12_linear_531_3274" x1="1436.45" y1="287.15" x2="1436.45" y2="432.931" gradientUnits="userSpaceOnUse">
<stop stop-color="#EB2467"/>
<stop offset="1" stop-color="#EB2467" stop-opacity="0"/>
</linearGradient>
<linearGradient id="paint13_linear_531_3274" x1="1198" y1="292.448" x2="1198" y2="425.169" gradientUnits="userSpaceOnUse">
<stop stop-color="#0BB875"/>
<stop offset="1" stop-color="#0BB875" stop-opacity="0"/>
</linearGradient>
<linearGradient id="paint14_linear_531_3274" x1="1338.08" y1="312.816" x2="785.281" y2="-45.5563" gradientUnits="userSpaceOnUse">
<stop stop-color="#794DEC"/>
<stop offset="1" stop-color="#794DEC" stop-opacity="0"/>
</linearGradient>
<linearGradient id="paint15_linear_531_3274" x1="1088.14" y1="182.208" x2="623.772" y2="-46.4888" gradientUnits="userSpaceOnUse">
<stop stop-color="#333239"/>
<stop offset="1" stop-color="#242326"/>
</linearGradient>
<linearGradient id="paint16_linear_531_3274" x1="1307.18" y1="384.104" x2="680.331" y2="-95.9775" gradientUnits="userSpaceOnUse">
<stop stop-color="#333239"/>
<stop offset="1" stop-color="#0D0D0E"/>
</linearGradient>
<linearGradient id="paint17_linear_531_3274" x1="139.24" y1="425.327" x2="590.578" y2="22.2262" gradientUnits="userSpaceOnUse">
<stop stop-color="#0D0D0E"/>
<stop offset="0.317708" stop-color="#0BB875"/>
<stop offset="1" stop-color="#FEB92F"/>
</linearGradient>
<linearGradient id="paint18_linear_531_3274" x1="1253.54" y1="162.105" x2="948.427" y2="0.453857" gradientUnits="userSpaceOnUse">
<stop stop-color="#333239"/>
<stop offset="1" stop-color="#0D0D0E"/>
</linearGradient>
<linearGradient id="paint19_linear_531_3274" x1="465.123" y1="573.513" x2="606.166" y2="71.7519" gradientUnits="userSpaceOnUse">
<stop stop-color="#316EFF"/>
<stop offset="1" stop-color="#794DEC" stop-opacity="0"/>
</linearGradient>
<linearGradient id="paint20_linear_531_3274" x1="1221.52" y1="189.264" x2="934.554" y2="-67.1914" gradientUnits="userSpaceOnUse">
<stop stop-color="#316EFF"/>
<stop offset="1" stop-color="#316EFF" stop-opacity="0"/>
</linearGradient>
<linearGradient id="paint21_linear_531_3274" x1="1157.6" y1="456.103" x2="598.079" y2="26.1861" gradientUnits="userSpaceOnUse">
<stop stop-color="#333239"/>
<stop offset="1" stop-color="#0D0D0E"/>
</linearGradient>
<linearGradient id="paint22_linear_531_3274" x1="1990.06" y1="171.045" x2="692.625" y2="337.767" gradientUnits="userSpaceOnUse">
<stop stop-color="#FEB92F"/>
<stop offset="1" stop-color="#FEB92F" stop-opacity="0"/>
</linearGradient>
<linearGradient id="paint23_linear_531_3274" x1="1478.21" y1="62.1045" x2="1478.21" y2="205.543" gradientUnits="userSpaceOnUse">
<stop stop-color="#316EFF"/>
<stop offset="1" stop-color="#316EFF" stop-opacity="0"/>
</linearGradient>
<linearGradient id="paint24_linear_531_3274" x1="1623.18" y1="328.551" x2="1623.18" y2="379.489" gradientUnits="userSpaceOnUse">
<stop stop-color="#F86E30"/>
<stop offset="1" stop-color="#F86E30" stop-opacity="0"/>
</linearGradient>
<linearGradient id="paint25_linear_531_3274" x1="1681.39" y1="155.755" x2="1681.39" y2="224.268" gradientUnits="userSpaceOnUse">
<stop stop-color="#794DEC"/>
<stop offset="1" stop-color="#794DEC" stop-opacity="0"/>
</linearGradient>
<linearGradient id="paint26_linear_531_3274" x1="1620.56" y1="82.9585" x2="1620.56" y2="127.655" gradientUnits="userSpaceOnUse">
<stop stop-color="#0BB875"/>
<stop offset="1" stop-color="#0BB875" stop-opacity="0"/>
</linearGradient>
<linearGradient id="paint27_linear_531_3274" x1="1471.68" y1="161.204" x2="1471.68" y2="184.092" gradientUnits="userSpaceOnUse">
<stop stop-color="#4F28DD"/>
<stop offset="1" stop-color="#4F28DD" stop-opacity="0"/>
</linearGradient>
<linearGradient id="paint28_linear_531_3274" x1="1486.9" y1="161.214" x2="1486.9" y2="183.952" gradientUnits="userSpaceOnUse">
<stop stop-color="#827FF4"/>
<stop offset="1" stop-color="#827FF4" stop-opacity="0"/>
</linearGradient>
<linearGradient id="paint29_linear_531_3274" x1="1493.99" y1="138.623" x2="1493.99" y2="170.289" gradientUnits="userSpaceOnUse">
<stop stop-color="#53AEF9"/>
<stop offset="1" stop-color="#53AEF9" stop-opacity="0"/>
</linearGradient>
<linearGradient id="paint30_linear_531_3274" x1="1464.36" y1="138.623" x2="1464.36" y2="170.31" gradientUnits="userSpaceOnUse">
<stop stop-color="#1A78D7"/>
<stop offset="1" stop-color="#1A78D7" stop-opacity="0"/>
</linearGradient>
<linearGradient id="paint31_linear_531_3274" x1="1031.17" y1="106.185" x2="1031.17" y2="172.204" gradientUnits="userSpaceOnUse">
<stop stop-color="#316EFF"/>
<stop offset="1" stop-color="#316EFF" stop-opacity="0"/>
</linearGradient>
<linearGradient id="paint32_linear_531_3274" x1="1249.74" y1="330.17" x2="1279.09" y2="371.778" gradientUnits="userSpaceOnUse">
<stop stop-color="#F86E30"/>
<stop offset="1" stop-color="#F86E30" stop-opacity="0"/>
</linearGradient>
<linearGradient id="paint33_linear_531_3274" x1="649.349" y1="158.687" x2="606.258" y2="186.645" gradientUnits="userSpaceOnUse">
<stop stop-color="#FBB730"/>
<stop offset="1" stop-color="#FBB730" stop-opacity="0"/>
</linearGradient>
<linearGradient id="paint34_linear_531_3274" x1="1016.82" y1="207.279" x2="1016.82" y2="275.792" gradientUnits="userSpaceOnUse">
<stop stop-color="#794DEC"/>
<stop offset="1" stop-color="#794DEC" stop-opacity="0"/>
</linearGradient>
<linearGradient id="paint35_linear_531_3274" x1="1096.73" y1="339.583" x2="1072.54" y2="377.155" gradientUnits="userSpaceOnUse">
<stop stop-color="#0BB875"/>
<stop offset="1" stop-color="#0BB875" stop-opacity="0"/>
</linearGradient>
<linearGradient id="paint36_linear_531_3274" x1="1194.39" y1="170.968" x2="1264.1" y2="187.836" gradientUnits="userSpaceOnUse">
<stop stop-color="#333239"/>
<stop offset="1" stop-color="#0D0D0E"/>
</linearGradient>
<linearGradient id="paint37_linear_531_3274" x1="1247.59" y1="151.519" x2="1247.59" y2="256.064" gradientUnits="userSpaceOnUse">
<stop stop-color="#F86E30"/>
<stop offset="1" stop-color="#F86E30" stop-opacity="0"/>
</linearGradient>
<linearGradient id="paint38_linear_531_3274" x1="1249.61" y1="151.778" x2="1239.04" y2="283.171" gradientUnits="userSpaceOnUse">
<stop stop-color="#316EFF"/>
<stop offset="1" stop-color="#316EFF" stop-opacity="0"/>
</linearGradient>
<linearGradient id="paint39_linear_531_3274" x1="1216.82" y1="185.217" x2="1262.06" y2="194.899" gradientUnits="userSpaceOnUse">
<stop stop-color="#333239"/>
<stop offset="1" stop-color="#0D0D0E"/>
</linearGradient>
<linearGradient id="paint40_linear_531_3274" x1="1250.93" y1="171.116" x2="1250.93" y2="246.914" gradientUnits="userSpaceOnUse">
<stop stop-color="#FEB92F"/>
<stop offset="1" stop-color="#FEB92F" stop-opacity="0"/>
</linearGradient>
<linearGradient id="paint41_linear_531_3274" x1="1256.26" y1="184.301" x2="1256.26" y2="211.905" gradientUnits="userSpaceOnUse">
<stop stop-color="#0BB875"/>
<stop offset="1" stop-color="#0BB875" stop-opacity="0"/>
</linearGradient>
<linearGradient id="paint42_linear_531_3274" x1="1212.64" y1="272.31" x2="1212.14" y2="286.8" gradientUnits="userSpaceOnUse">
<stop stop-color="#794DEC"/>
<stop offset="1" stop-color="#794DEC" stop-opacity="0"/>
</linearGradient>
<linearGradient id="paint43_linear_531_3274" x1="1432.97" y1="214.667" x2="1432.44" y2="230.013" gradientUnits="userSpaceOnUse">
<stop stop-color="#794DEC"/>
<stop offset="1" stop-color="#794DEC" stop-opacity="0"/>
</linearGradient>
<linearGradient id="paint44_linear_531_3274" x1="1314.11" y1="234.964" x2="1313.68" y2="242.142" gradientUnits="userSpaceOnUse">
<stop stop-color="#794DEC"/>
<stop offset="1" stop-color="#794DEC" stop-opacity="0"/>
</linearGradient>
<linearGradient id="paint45_linear_531_3274" x1="1360.05" y1="258.388" x2="1359.69" y2="264.484" gradientUnits="userSpaceOnUse">
<stop stop-color="#794DEC"/>
<stop offset="1" stop-color="#794DEC" stop-opacity="0"/>
</linearGradient>
<linearGradient id="paint46_linear_531_3274" x1="235.463" y1="88.194" x2="202.462" y2="111.645" gradientUnits="userSpaceOnUse">
<stop stop-color="#316EFF"/>
<stop offset="1" stop-color="#316EFF" stop-opacity="0"/>
</linearGradient>
<linearGradient id="paint47_linear_531_3274" x1="639.603" y1="302.017" x2="604.548" y2="338.94" gradientUnits="userSpaceOnUse">
<stop stop-color="#794DEC"/>
<stop offset="1" stop-color="#794DEC" stop-opacity="0"/>
</linearGradient>
<linearGradient id="paint48_linear_531_3274" x1="397.449" y1="226.043" x2="367.915" y2="259.564" gradientUnits="userSpaceOnUse">
<stop stop-color="#0BB875"/>
<stop offset="1" stop-color="#0BB875" stop-opacity="0"/>
</linearGradient>
<linearGradient id="paint49_linear_531_3274" x1="1925.23" y1="442.5" x2="-3.23145" y2="442.5" gradientUnits="userSpaceOnUse">
<stop stop-color="#FF0000"/>
<stop offset="0.3281" stop-color="#EBFF00"/>
<stop offset="0.7031" stop-color="#00F0FF"/>
<stop offset="1" stop-color="#FA00FF"/>
</linearGradient>
<linearGradient id="paint50_linear_531_3274" x1="1.99805" y1="442.5" x2="1920" y2="442.5" gradientUnits="userSpaceOnUse">
<stop stop-color="#FF0000"/>
<stop offset="0.3281" stop-color="#EBFF00"/>
<stop offset="0.7031" stop-color="#00F0FF"/>
<stop offset="1" stop-color="#FA00FF"/>
</linearGradient>
<linearGradient id="paint51_linear_531_3274" x1="1.99805" y1="1.5" x2="1920" y2="1.5" gradientUnits="userSpaceOnUse">
<stop stop-color="#FF0000"/>
<stop offset="0.3281" stop-color="#EBFF00"/>
<stop offset="0.7031" stop-color="#00F0FF"/>
<stop offset="1" stop-color="#FA00FF"/>
</linearGradient>
<linearGradient id="paint52_linear_531_3274" x1="1829.09" y1="178.504" x2="1902.52" y2="178.462" gradientUnits="userSpaceOnUse">
<stop stop-color="#0D0D0E" stop-opacity="0"/>
<stop offset="1" stop-color="#0D0D0E"/>
</linearGradient>
<linearGradient id="paint53_linear_531_3274" x1="90.9062" y1="620.504" x2="164.33" y2="620.462" gradientUnits="userSpaceOnUse">
<stop stop-color="#0D0D0E" stop-opacity="0"/>
<stop offset="1" stop-color="#0D0D0E"/>
</linearGradient>
</defs>
</svg>
