<svg width="129" height="129" viewBox="0 0 129 129" fill="none" xmlns="http://www.w3.org/2000/svg">
<path d="M97.2744 92.8592C99.5922 83.3196 93.7381 73.7073 84.1989 71.3894C74.6597 69.0716 65.0477 74.9259 62.7299 84.4654C60.4122 94.0049 66.2662 103.617 75.8054 105.935C85.3446 108.253 94.9566 102.399 97.2744 92.8592Z" fill="#242326" stroke="#794DEC" stroke-width="0.8" stroke-miterlimit="10"/>
<path d="M89.2529 28.9746C88.6198 28.316 89.1285 27.2233 90.04 27.2837L105.686 28.3212C105.935 28.3377 106.169 28.4468 106.342 28.627L117.194 39.9464C117.826 40.6058 117.316 41.6979 116.405 41.6362L100.768 40.5778C100.52 40.561 100.287 40.4524 100.115 40.2731L89.2529 28.9746Z" fill="#242326" stroke="#FBB730" stroke-width="0.8" stroke-miterlimit="10"/>
<path d="M101.069 40.5993C100.657 40.5714 100.27 40.7999 100.095 41.1744L92.0076 58.5188C91.7105 59.156 92.1462 59.8928 92.8477 59.9393L109.318 61.0313C109.73 61.0586 110.116 60.8301 110.29 60.4561L118.367 43.1337C118.664 42.497 118.23 41.7608 117.529 41.7133L101.069 40.5993Z" fill="#242326" stroke="#FBB730" stroke-width="0.8" stroke-miterlimit="10"/>
<path d="M99.9072 40.0581C100.194 40.3559 100.267 40.7992 100.093 41.1737L92.005 58.5181C91.7079 59.1553 90.8634 59.295 90.3769 58.7875L78.9537 46.8722C78.6681 46.5743 78.5948 46.1316 78.7693 45.7575L86.8465 28.4352C87.1434 27.7985 87.9869 27.6583 88.4737 28.1647L99.9072 40.0581Z" fill="#242326" stroke="#FBB730" stroke-width="0.8" stroke-miterlimit="10"/>
<g filter="url(#filter0_d_2537_12724)">
<path d="M74.7903 85.7553C90.9883 79.8594 100.841 66.0725 96.7972 54.9613C92.7532 43.8501 76.3437 39.6222 60.1456 45.518C43.9475 51.4138 34.0947 65.2008 38.1387 76.312C42.1827 87.4232 58.5922 91.6511 74.7903 85.7553Z" fill="#316EFF" stroke="#794DEC" stroke-width="0.8" stroke-miterlimit="10"/>
<path d="M72.9504 80.7084C89.1485 74.8126 99.0013 61.0256 94.9573 49.9144C90.9133 38.8032 74.5039 34.5753 58.3058 40.4711C42.1077 46.367 32.2549 60.1539 36.2989 71.2651C40.3429 82.3763 56.7523 86.6042 72.9504 80.7084Z" fill="white" stroke="#794DEC" stroke-width="0.8"/>
<path d="M71.1732 75.6402C83.5352 71.1406 91.1006 60.7449 88.0709 52.4206C85.0412 44.0963 72.5638 40.9958 60.2018 45.4954C47.8398 49.995 40.2744 60.3907 43.3041 68.715C46.3337 77.0393 58.8112 80.1398 71.1732 75.6402Z" fill="#316EFF" stroke="#794DEC" stroke-width="0.8"/>
<ellipse cx="22.3871" cy="14.9703" rx="22.3871" ry="14.9703" transform="matrix(0.939689 -0.342031 0.342009 0.939697 39.4688 54.1777)" fill="#316EFF"/>
<path d="M59.3139 50.5827L61.2181 50.7167C61.2651 50.7302 61.3396 50.7031 61.367 50.6625L62.7023 49.3495C62.7669 49.2953 62.7374 49.2142 62.6903 49.2007L60.3235 47.7955C60.2195 47.7414 60.1078 47.7821 60.0628 47.8903L59.153 50.4882C59.1727 50.5422 59.2296 50.5828 59.3139 50.5827Z" fill="white"/>
<path d="M57.7914 54.8733L62.7899 55.1675C62.837 55.1809 62.9115 55.1538 62.9389 55.1132L66.5789 51.6749C66.6435 51.6207 66.6512 51.526 66.5669 51.5261L63.8213 49.8912C63.7644 49.8506 63.6428 49.8643 63.588 49.9455L61.6809 51.7729C61.6535 51.8135 61.5791 51.8406 61.532 51.8271L58.9238 51.6125C58.8395 51.6125 58.765 51.6396 58.7102 51.7208L57.6579 54.7381C57.6874 54.8192 57.7071 54.8733 57.7914 54.8733Z" fill="white"/>
<path d="M56.1815 59.5938L64.6215 60.075C64.6686 60.0885 64.7431 60.0614 64.7705 60.0208L70.9266 54.227C70.9912 54.1729 70.9989 54.0782 70.9146 54.0782L67.7902 52.2136C67.7333 52.1731 67.6117 52.1867 67.5942 52.2543L63.4196 56.1936C63.3922 56.2342 63.3178 56.2613 63.2707 56.2478L57.5308 55.8865C57.4465 55.8865 57.3721 55.9136 57.3545 55.9813L56.1695 59.445C56.0304 59.5263 56.0972 59.5939 56.1815 59.5938Z" fill="white"/>
<path d="M64.5197 69.5152L68.7247 71.5684C68.8189 71.5954 68.9306 71.5548 68.9854 71.4736L70.8869 67.1977C70.922 67.0624 70.7336 67.0084 70.6416 67.1032L68.2 69.4315C68.1726 69.4721 68.0981 69.4992 68.051 69.4857L64.684 69.2716C64.5154 69.2717 64.4058 69.4341 64.5197 69.5152Z" fill="white"/>
<path d="M61.5209 68.0062L67.655 68.4078C67.702 68.4213 67.7765 68.3942 67.8039 68.3536L72.2447 64.103L72.272 64.0624L74.2613 59.4484C74.2963 59.3131 74.108 59.2591 74.016 59.3538L66.92 66.041C66.8926 66.0816 66.8182 66.1088 66.7711 66.0953L57.1211 65.5337C56.9525 65.5338 56.8429 65.6962 56.994 65.7637L61.4739 67.9927C61.4837 68.0197 61.4837 68.0197 61.5209 68.0062Z" fill="white"/>
<path d="M55.0899 64.3708L66.4185 65.0259C66.4656 65.0394 66.5401 65.0123 66.5675 64.9717L74.8246 57.188C75.1378 56.8902 75.1314 56.525 74.8194 56.3629L72.0836 54.755C72.0267 54.7145 71.915 54.7551 71.8876 54.7957L65.1126 61.0905C65.0852 61.1311 65.0108 61.1582 64.9637 61.1447L55.7922 60.6234C55.7079 60.6234 55.6334 60.6505 55.6159 60.7182L54.5537 63.7084C54.4287 64.0602 54.6585 64.3441 55.0899 64.3708Z" fill="white"/>
</g>
<g filter="url(#filter1_d_2537_12724)">
<path d="M48.1584 63.7602C48.1446 63.7601 48.1308 63.7594 48.117 63.7579L27.7459 61.5979L27.3825 62.1231L26.0667 64.0246L22.0604 69.8145C19.1372 74.0393 16.1902 78.2986 16.0908 78.4434C16.0732 78.4691 16.0598 78.505 16.0524 78.5499L35.6759 80.331C36.1231 80.3422 36.5925 80.151 36.8058 79.8278C36.8098 79.8218 36.814 79.8159 36.8183 79.81C36.9091 79.6875 37.0101 79.5513 37.1204 79.4027C38.461 77.5949 41.1704 73.9416 43.5999 70.5941C44.9148 68.7823 46.1459 67.0627 47.0332 65.7746C47.4774 65.1298 47.8322 64.5977 48.0677 64.218C48.1678 64.0566 48.2427 63.9286 48.2929 63.8342C48.2533 63.7984 48.22 63.7812 48.1994 63.7725C48.1789 63.7639 48.1641 63.761 48.1584 63.7602Z" fill="#262528" stroke="#0BB875" stroke-width="0.8" stroke-linejoin="round"/>
<path d="M33.6011 54.9391L22.025 48.1523L24.6526 53.8827L33.6011 54.9391Z" fill="#262528" stroke="#EB2467" stroke-width="0.8" stroke-linejoin="round"/>
<path d="M21.328 48.5642L18.9384 61.6476L23.9198 54.2166L21.328 48.5642Z" fill="#262528" stroke="#EB2467" stroke-width="0.8" stroke-linejoin="round"/>
<path d="M18.5565 63.5674L16.257 76.799L27.0948 61.1353L24.3123 55.0669L18.5565 63.5674Z" fill="#262528" stroke="#FEB92F" stroke-width="0.8" stroke-linejoin="round"/>
<path d="M27.8198 60.7997L46.798 62.8118L35.3141 55.9459L25.0378 54.7328L27.8198 60.7997Z" fill="#262528" stroke="#FEB92F" stroke-width="0.8" stroke-linejoin="round"/>
</g>
<defs>
<filter id="filter0_d_2537_12724" x="30.9902" y="37.4102" width="71.1152" height="59.4062" filterUnits="userSpaceOnUse" color-interpolation-filters="sRGB">
<feFlood flood-opacity="0" result="BackgroundImageFix"/>
<feColorMatrix in="SourceAlpha" type="matrix" values="0 0 0 0 0 0 0 0 0 0 0 0 0 0 0 0 0 0 127 0" result="hardAlpha"/>
<feOffset dy="4"/>
<feGaussianBlur stdDeviation="2"/>
<feComposite in2="hardAlpha" operator="out"/>
<feColorMatrix type="matrix" values="0 0 0 0 0 0 0 0 0 0 0 0 0 0 0 0 0 0 0.25 0"/>
<feBlend mode="normal" in2="BackgroundImageFix" result="effect1_dropShadow_2537_12724"/>
<feBlend mode="normal" in="SourceGraphic" in2="effect1_dropShadow_2537_12724" result="shape"/>
</filter>
<filter id="filter1_d_2537_12724" x="11.6016" y="47.4531" width="41.1445" height="41.2773" filterUnits="userSpaceOnUse" color-interpolation-filters="sRGB">
<feFlood flood-opacity="0" result="BackgroundImageFix"/>
<feColorMatrix in="SourceAlpha" type="matrix" values="0 0 0 0 0 0 0 0 0 0 0 0 0 0 0 0 0 0 127 0" result="hardAlpha"/>
<feOffset dy="4"/>
<feGaussianBlur stdDeviation="2"/>
<feComposite in2="hardAlpha" operator="out"/>
<feColorMatrix type="matrix" values="0 0 0 0 0 0 0 0 0 0 0 0 0 0 0 0 0 0 0.25 0"/>
<feBlend mode="normal" in2="BackgroundImageFix" result="effect1_dropShadow_2537_12724"/>
<feBlend mode="normal" in="SourceGraphic" in2="effect1_dropShadow_2537_12724" result="shape"/>
</filter>
</defs>
</svg>
