<svg width="129" height="129" viewBox="0 0 129 129" fill="none" xmlns="http://www.w3.org/2000/svg">
<g opacity="0.6">
<path d="M81.2848 94.7632C95.5445 99.9297 109.99 96.2248 113.55 86.4881C117.11 76.7513 108.437 64.6698 94.177 59.5033C79.9172 54.3367 65.4714 58.0416 61.9113 67.7784C58.3513 77.5152 67.025 89.5967 81.2848 94.7632Z" fill="#25252A" stroke="#EB2467" stroke-width="0.8" stroke-miterlimit="10"/>
<path d="M82.9 90.3413C97.1598 95.5079 111.606 91.803 115.166 82.0662C118.726 72.3294 110.052 60.2479 95.7922 55.0814C81.5325 49.9149 67.0866 53.6198 63.5266 63.3565C59.9665 73.0933 68.6403 85.1748 82.9 90.3413Z" fill="#25252A" stroke="#316EFF" stroke-width="0.8"/>
<path d="M84.5698 85.9381C95.4525 89.8811 106.437 87.1641 109.104 79.8696C111.771 72.575 105.111 63.4652 94.2283 59.5222C83.3456 55.5792 72.3613 58.2962 69.6942 65.5908C67.027 72.8853 73.6871 81.9952 84.5698 85.9381Z" fill="#25252A" stroke="#0BB875" stroke-width="0.8"/>
<ellipse cx="16.7113" cy="11.1356" rx="16.7113" ry="11.1356" transform="matrix(0.940192 0.340646 -0.343398 0.93919 78.8691 57.7246)" fill="#25252A"/>
<path d="M93.2368 64.2365L94.2263 65.421C94.2449 65.456 94.3024 65.4842 94.3414 65.4774L95.8551 65.5192C95.9229 65.5265 95.9536 65.4638 95.935 65.4288L95.4268 63.262C95.3999 63.1711 95.3136 63.1288 95.2254 63.1633L93.2017 64.0897C93.1812 64.1315 93.1895 64.1874 93.2368 64.2365Z" fill="#0BB875"/>
<path d="M89.8877 65.7571L92.5187 68.8343C92.5373 68.8693 92.5948 68.8975 92.6338 68.8907L96.6779 69.0837C96.7457 69.0909 96.8051 69.0423 96.7578 68.9932L96.171 66.477C96.1627 66.4211 96.0866 66.3579 96.0086 66.3715L93.8747 66.285C93.8357 66.2918 93.7781 66.2636 93.7596 66.2286L92.4223 64.5887C92.375 64.5396 92.3175 64.5114 92.2395 64.525L89.8915 65.6035C89.8608 65.6662 89.8404 65.708 89.8877 65.7571Z" fill="#0BB875"/>
<path d="M86.2283 67.4634L90.6799 72.6505C90.6984 72.6855 90.756 72.7137 90.795 72.7069L97.622 73.0452C97.6898 73.0525 97.7493 73.0039 97.702 72.9548L97.0366 70.0891C97.0284 70.0332 96.9523 69.97 96.903 69.9977L92.2675 69.7741C92.2285 69.7809 92.1709 69.7527 92.1524 69.7177L89.1448 66.171C89.0975 66.1219 89.04 66.0937 88.9907 66.1214L86.3083 67.373C86.1829 67.3375 86.181 67.4143 86.2283 67.4634Z" fill="#0BB875"/>
<path d="M85.1223 77.8862L86.2836 81.4873C86.3207 81.5573 86.407 81.5996 86.485 81.586L90.0423 80.2965C90.1408 80.2411 90.0666 80.1012 89.9599 80.1007L87.2344 79.9835C87.1954 79.9903 87.1378 79.9621 87.1193 79.9271L85.3563 77.8454C85.2617 77.7472 85.1057 77.7744 85.1223 77.8862Z" fill="#0BB875"/>
<path d="M84.3291 75.2934L87.5342 79.0924C87.5528 79.1274 87.6103 79.1556 87.6493 79.1488L92.6155 79.353L92.6545 79.3462L96.458 77.9182C96.5565 77.8628 96.4824 77.7228 96.3756 77.7223L88.5011 77.3373C88.4621 77.3441 88.4045 77.3159 88.386 77.2809L83.3028 71.3438C83.2082 71.2456 83.0522 71.2729 83.0975 71.3987L84.3106 75.2585C84.3004 75.2794 84.3004 75.2794 84.3291 75.2934Z" fill="#0BB875"/>
<path d="M82.8348 69.5052L88.8045 76.4727C88.8231 76.5077 88.8806 76.5359 88.9196 76.5291L98.084 76.9758C98.4331 76.9914 98.6423 76.7829 98.5618 76.5102L97.9648 74.0148C97.9565 73.9589 97.8701 73.9166 97.8311 73.9234L90.3653 73.5054C90.3263 73.5122 90.2687 73.484 90.2502 73.449L85.4118 67.8133C85.3645 67.7642 85.307 67.736 85.2577 67.7637L82.92 68.8213C82.645 68.9457 82.6085 69.2388 82.8348 69.5052Z" fill="#0BB875"/>
</g>
<g opacity="0.2">
<path d="M32.6317 75.7925C46.4202 75.9728 57.6988 68.4866 57.823 59.0716C57.9473 49.6565 46.8702 41.8779 33.0816 41.6976C19.2931 41.5173 8.0145 49.0035 7.89025 58.4185C7.76599 67.8336 18.8431 75.6122 32.6317 75.7925Z" fill="#25252A" stroke="#0FB675" stroke-width="0.8" stroke-miterlimit="10"/>
<path d="M32.6863 71.5151C46.4749 71.6955 57.7535 64.2092 57.8777 54.7942C58.002 45.3792 46.9249 37.6006 33.1363 37.4203C19.3478 37.2399 8.06919 44.7261 7.94494 54.1412C7.82068 63.5562 18.8978 71.3348 32.6863 71.5151Z" fill="#25252A" stroke="#794DEC" stroke-width="0.8"/>
<path d="M32.8007 67.2493C43.3238 67.3869 51.9299 61.7805 52.023 54.7269C52.1161 47.6734 43.6609 41.8438 33.1378 41.7062C22.6147 41.5686 14.0085 47.175 13.9154 54.2286C13.8223 61.2821 22.2776 67.1117 32.8007 67.2493Z" fill="#25252A" stroke="#FBB730" stroke-width="0.8"/>
<ellipse cx="17.9092" cy="11.9211" rx="17.9092" ry="11.9211" transform="matrix(0.999914 0.0130768 -0.0131965 0.999913 15.1602 42.3223)" fill="#25252A"/>
<path d="M31.4872 46.0772L32.7897 46.6543C32.8193 46.6757 32.8785 46.6756 32.908 46.6541L34.1783 46.0712C34.2374 46.0496 34.2373 45.9851 34.2077 45.9637L32.9029 44.377C32.8436 44.3127 32.7549 44.3129 32.6959 44.3774L31.3982 45.97C31.3983 46.013 31.428 46.0559 31.4872 46.0772Z" fill="#F86E30"/>
<path d="M29.3273 48.6993L32.7611 50.1738C32.7908 50.1953 32.8499 50.1951 32.8794 50.1736L36.3066 48.6836C36.3657 48.662 36.3951 48.5975 36.3359 48.5762L34.8236 46.7321C34.7939 46.6892 34.7051 46.6679 34.6461 46.711L32.8439 47.5099C32.8144 47.5314 32.7552 47.5316 32.7256 47.5102L30.9494 46.6978C30.8902 46.6765 30.831 46.6766 30.772 46.7197L29.2679 48.5705C29.268 48.635 29.2681 48.6779 29.3273 48.6993Z" fill="#F86E30"/>
<path d="M26.9982 51.6036L32.8002 54.0825C32.8298 54.1039 32.8889 54.1038 32.9185 54.0822L38.7092 51.5773C38.7683 51.5557 38.7978 51.4912 38.7386 51.4698L37.0186 49.3685C36.9889 49.3256 36.9002 49.3043 36.8707 49.3473L32.9413 51.0532C32.9117 51.0747 32.8526 51.0749 32.823 51.0535L28.8859 49.3437C28.8267 49.3224 28.7675 49.3225 28.7381 49.3655L27.0276 51.4961C26.9093 51.5178 26.9391 51.5822 26.9982 51.6036Z" fill="#F86E30"/>
<path d="M30.3344 60.6852L32.765 63.1931C32.8243 63.236 32.913 63.2358 32.9721 63.1927L35.3914 60.6739C35.4504 60.5878 35.3319 60.5021 35.2433 60.5453L32.9388 61.5601C32.9093 61.5817 32.8501 61.5818 32.8205 61.5604L30.5116 60.5559C30.3932 60.5132 30.2751 60.5994 30.3344 60.6852Z" fill="#F86E30"/>
<path d="M28.6126 58.8626L32.8161 60.7006C32.8457 60.722 32.9049 60.7219 32.9344 60.7004L37.1296 58.8435L37.1592 58.822L39.7259 56.088C39.7849 56.0019 39.6664 55.9163 39.5777 55.9594L32.9007 58.853C32.8711 58.8745 32.812 58.8747 32.7824 58.8533L26.1516 56.011C26.0332 55.9683 25.9151 56.0545 26.004 56.1402L28.5829 58.8412C28.583 58.8627 28.583 58.8627 28.6126 58.8626Z" fill="#F86E30"/>
<path d="M25.0223 54.6811L32.8076 58.0149C32.8372 58.0363 32.8964 58.0361 32.9259 58.0146L40.6961 54.646C40.9916 54.5164 41.0797 54.2584 40.9018 54.0655L39.3895 52.2429C39.3598 52.2 39.2711 52.2002 39.2416 52.2218L32.8894 54.9213C32.8598 54.9428 32.8007 54.9429 32.7711 54.9215L26.4659 52.2289C26.4067 52.2076 26.3476 52.2077 26.3181 52.2508L24.814 54.0801C24.637 54.2953 24.7263 54.5529 25.0223 54.6811Z" fill="#F86E30"/>
</g>
<path d="M72.5993 96.7474C85.4001 86.0551 89.8045 70.3015 82.4368 61.5609C75.069 52.8202 58.7191 54.4024 45.9183 65.0948C33.1174 75.7872 28.713 91.5408 36.0807 100.281C43.4485 109.022 59.7984 107.44 72.5993 96.7474Z" fill="#25252A" stroke="#FEB92F" stroke-width="0.8" stroke-miterlimit="10"/>
<path d="M69.2575 92.7787C82.0583 82.0863 86.4628 66.3327 79.095 57.5921C71.7272 48.8515 55.3773 50.4337 42.5765 61.1261C29.7756 71.8184 25.3712 87.572 32.7389 96.3126C40.1067 105.053 56.4566 103.471 69.2575 92.7787Z" fill="#25252A" stroke="#EB2467" stroke-width="0.8"/>
<path d="M65.9531 88.7682C75.7225 80.608 79.1674 68.6844 73.6477 62.1361C68.1279 55.5879 55.7337 56.8946 45.9643 65.0548C36.195 73.2149 32.75 85.1385 38.2698 91.6868C43.7895 98.2351 56.1838 96.9284 65.9531 88.7682Z" fill="#25252A" stroke="url(#paint0_linear_2537_12840)" stroke-width="0.8"/>
<ellipse cx="21.6615" cy="14.4732" rx="21.6615" ry="14.4732" transform="matrix(0.767484 -0.641068 0.644505 0.7646 29.957 79.7754)" fill="#25252A"/>
<path d="M47.4391 70.9453L49.0754 70.4768C49.119 70.4738 49.1731 70.4284 49.1837 70.386L49.9021 68.8786C49.9397 68.8135 49.8902 68.7546 49.8467 68.7576L47.435 68.302C47.3314 68.2885 47.2502 68.3566 47.2456 68.461L47.2755 70.9151C47.3085 70.9544 47.3685 70.971 47.4391 70.9453Z" fill="#794DEC"/>
<path d="M47.4703 75.0049L51.7481 73.727C51.7917 73.724 51.8458 73.6785 51.8564 73.6362L53.8577 69.6452C53.8953 69.5801 53.8729 69.4984 53.8022 69.5242L51.0032 68.9917C50.9431 68.975 50.8454 69.0235 50.8243 69.1083L49.7837 71.221C49.7731 71.2634 49.719 71.3088 49.6754 71.3119L47.4246 71.9274C47.354 71.9532 47.2999 71.9986 47.2788 72.0833L47.3172 74.9323C47.3666 74.9913 47.3996 75.0306 47.4703 75.0049Z" fill="#794DEC"/>
<path d="M47.5579 79.4515L54.7764 77.2809C54.8199 77.2778 54.874 77.2324 54.8846 77.19L58.2758 70.4582C58.3134 70.3931 58.291 70.3114 58.2204 70.3372L55.0339 69.7277C54.9738 69.7111 54.8761 69.7596 54.8821 69.8216L52.5856 74.3952C52.5751 74.4376 52.5209 74.483 52.4774 74.4861L47.558 75.9338C47.4873 75.9595 47.4332 76.0049 47.4391 76.067L47.5025 79.3305C47.4108 79.441 47.4873 79.4773 47.5579 79.4515Z" fill="#794DEC"/>
<path d="M57.5733 85.2218L61.7228 85.6598C61.8099 85.6537 61.8911 85.5856 61.9123 85.5008L62.2015 81.3383C62.1896 81.2143 62.0154 81.2265 61.9672 81.3339L60.6314 84.0294C60.6209 84.0717 60.5667 84.1171 60.5232 84.1202L57.6367 84.9676C57.4955 85.0191 57.4532 85.1886 57.5733 85.2218Z" fill="#794DEC"/>
<path d="M54.6001 84.8687L59.8621 83.3346C59.9057 83.3315 59.9598 83.2861 59.9704 83.2437L62.3949 78.3281L62.4055 78.2857L62.6651 73.8131C62.6532 73.689 62.479 73.7012 62.4308 73.8087L58.5246 81.5757C58.514 81.6181 58.4599 81.6635 58.4163 81.6665L50.1597 84.1389C50.0184 84.1904 49.9761 84.3599 50.1233 84.3704L54.5566 84.8718C54.5731 84.8914 54.5731 84.8914 54.6001 84.8687Z" fill="#794DEC"/>
<path d="M48.1037 83.7831L57.7954 80.8772C57.8389 80.8742 57.893 80.8288 57.9036 80.7864L62.4483 71.7466C62.6199 71.4015 62.5032 71.0975 62.1923 71.0568L59.4098 70.5439C59.3497 70.5273 59.2685 70.5954 59.2579 70.6378L55.501 77.978C55.4904 78.0204 55.4363 78.0658 55.3928 78.0689L47.5493 80.429C47.4786 80.4548 47.4245 80.5002 47.4304 80.5622L47.4523 83.3916C47.4549 83.7244 47.7341 83.8922 48.1037 83.7831Z" fill="#794DEC"/>
<g filter="url(#filter0_d_2537_12840)">
<path d="M86.398 68.9769C104.718 65.7613 117.773 53.014 115.557 40.5049C113.341 27.9959 96.6938 20.4621 78.374 23.6777C60.0542 26.8933 46.9993 39.6406 49.2151 52.1496C51.4309 64.6586 68.0782 72.1925 86.398 68.9769Z" fill="#316EFF" stroke="#25252A" stroke-width="0.8" stroke-miterlimit="10"/>
<path d="M85.3882 63.2952C103.708 60.0796 116.763 47.3323 114.547 34.8233C112.331 22.3143 95.6841 14.7804 77.3643 17.996C59.0445 21.2116 45.9896 33.9589 48.2053 46.468C50.4211 58.977 67.0684 66.5108 85.3882 63.2952Z" fill="white" stroke="#25252A" stroke-width="0.8"/>
<path d="M84.4458 57.605C98.4271 55.1509 108.415 45.5644 106.755 36.1929C105.095 26.8215 92.4157 21.2138 78.4344 23.6678C64.4532 26.1219 54.4648 35.7084 56.1248 45.0799C57.7848 54.4514 70.4645 60.059 84.4458 57.605Z" fill="#316EFF" stroke="#25252A" stroke-width="0.8"/>
<ellipse cx="24.1562" cy="16.0838" rx="24.1562" ry="16.0838" transform="matrix(0.984942 -0.172882 0.174417 0.984672 54.7852 28.9844)" fill="#316EFF"/>
<path d="M76.8786 29.0687L78.8756 29.5675C78.9231 29.5907 79.0073 29.5758 79.044 29.5379L80.7079 28.3935C80.7866 28.3481 80.7705 28.2564 80.723 28.2333L78.4727 26.2978C78.3723 26.2209 78.2461 26.2432 78.1781 26.3497L76.7254 28.9381C76.7362 28.9993 76.7891 29.053 76.8786 29.0687Z" fill="white"/>
<path d="M74.46 33.3382L79.7132 34.5866C79.7607 34.6097 79.8448 34.5949 79.8815 34.5569L84.3909 31.5871C84.4697 31.5417 84.4956 31.4426 84.406 31.4268L81.7964 29.1765C81.7436 29.1228 81.6119 29.1145 81.5386 29.1905L79.1711 30.774C79.1344 30.812 79.0503 30.8269 79.0028 30.8037L76.2732 30.0874C76.1836 30.0717 76.0995 30.0865 76.0261 30.1625L74.3435 33.1696C74.3597 33.2613 74.3705 33.3225 74.46 33.3382Z" fill="white"/>
<path d="M71.8658 38.0486L80.7386 40.1401C80.7861 40.1632 80.8703 40.1484 80.9069 40.1104L88.5294 35.1104C88.6082 35.065 88.6341 34.9659 88.5445 34.9501L85.5757 32.3849C85.5228 32.3312 85.3912 32.3229 85.3599 32.3915L80.1891 35.7931C80.1524 35.8311 80.0682 35.8459 80.0208 35.8228L73.9929 34.3643C73.9034 34.3485 73.8192 34.3634 73.7879 34.4319L71.8809 37.8884C71.718 37.9486 71.7762 38.0329 71.8658 38.0486Z" fill="white"/>
<path d="M78.8623 50.1488L82.9434 53.1167C83.0384 53.163 83.1646 53.1408 83.238 53.0648L86.0579 48.88C86.1205 48.7429 85.9307 48.6504 85.8152 48.7337L82.7863 50.7491C82.7496 50.7871 82.6654 50.802 82.618 50.7788L79.0824 49.9209C78.9033 49.8895 78.7566 50.0414 78.8623 50.1488Z" fill="white"/>
<path d="M75.9605 47.9788L82.3993 49.554C82.4468 49.5771 82.531 49.5623 82.5677 49.5243L88.0795 45.8419L88.1162 45.8039L91.0926 41.2764C91.1552 41.1393 90.9654 41.0467 90.8499 41.1301L82.0621 46.903C82.0254 46.9409 81.9412 46.9558 81.8937 46.9326L71.751 44.5293C71.5719 44.4978 71.4252 44.6498 71.573 44.7498L75.913 47.9557C75.9184 47.9862 75.9184 47.9862 75.9605 47.9788Z" fill="white"/>
<path d="M69.8116 42.9162L81.7194 45.7332C81.7669 45.7564 81.851 45.7415 81.8877 45.7035L92.1139 38.9837C92.5024 38.7261 92.564 38.3371 92.263 38.1065L89.6588 35.8867C89.6059 35.833 89.4797 35.8553 89.443 35.8933L81.0695 41.3094C81.0328 41.3473 80.9487 41.3622 80.9012 41.339L71.2591 39.0681C71.1695 39.0523 71.0854 39.0672 71.0541 39.1357L69.3661 42.1123C69.1676 42.4625 69.3585 42.807 69.8116 42.9162Z" fill="white"/>
</g>
<g filter="url(#filter1_d_2537_12840)">
<path d="M44.5545 51.0898C54.612 51.0898 62.7652 45.5227 62.7652 38.6553C62.7652 31.7878 54.612 26.2207 44.5545 26.2207C34.497 26.2207 26.3438 31.7878 26.3438 38.6553C26.3438 45.5227 34.497 51.0898 44.5545 51.0898Z" fill="#794DEC" stroke="#25252A" stroke-width="0.8" stroke-miterlimit="10"/>
<path d="M44.5545 47.9687C54.612 47.9687 62.7652 42.4016 62.7652 35.5342C62.7652 28.6668 54.612 23.0996 44.5545 23.0996C34.497 23.0996 26.3438 28.6668 26.3438 35.5342C26.3438 42.4016 34.497 47.9687 44.5545 47.9687Z" fill="white" stroke="#25252A" stroke-width="0.8"/>
<path d="M44.5894 44.8501C52.2651 44.8501 58.4874 40.6793 58.4874 35.5344C58.4874 30.3895 52.2651 26.2188 44.5894 26.2188C36.9138 26.2188 30.6914 30.3895 30.6914 35.5344C30.6914 40.6793 36.9138 44.8501 44.5894 44.8501Z" fill="#794DEC" stroke="#25252A" stroke-width="0.8"/>
<ellipse cx="44.5503" cy="35.5325" rx="13.062" ry="8.69459" fill="#794DEC"/>
<path fill-rule="evenodd" clip-rule="evenodd" d="M45.0076 30.5586C45.5611 30.5586 46.0098 31.0053 46.0098 31.5562L46.0098 39.5239C46.0098 40.0749 45.5611 40.5215 45.0076 40.5215C44.4541 40.5215 44.0054 40.0749 44.0054 39.5239L44.0054 31.5562C44.0054 31.0053 44.4541 30.5586 45.0076 30.5586Z" fill="white"/>
<path fill-rule="evenodd" clip-rule="evenodd" d="M36.9824 35.5406C36.9824 34.9896 37.4311 34.543 37.9846 34.543L52.6396 34.543C53.1931 34.543 53.6418 34.9896 53.6418 35.5406C53.6418 36.0916 53.1931 36.5382 52.6396 36.5382L37.9846 36.5382C37.4311 36.5382 36.9824 36.0916 36.9824 35.5406Z" fill="white"/>
</g>
<defs>
<filter id="filter0_d_2537_12840" x="43.5605" y="16.8535" width="76.6426" height="61.2656" filterUnits="userSpaceOnUse" color-interpolation-filters="sRGB">
<feFlood flood-opacity="0" result="BackgroundImageFix"/>
<feColorMatrix in="SourceAlpha" type="matrix" values="0 0 0 0 0 0 0 0 0 0 0 0 0 0 0 0 0 0 127 0" result="hardAlpha"/>
<feOffset dy="4"/>
<feGaussianBlur stdDeviation="2"/>
<feComposite in2="hardAlpha" operator="out"/>
<feColorMatrix type="matrix" values="0 0 0 0 0 0 0 0 0 0 0 0 0 0 0 0 0 0 0.25 0"/>
<feBlend mode="normal" in2="BackgroundImageFix" result="effect1_dropShadow_2537_12840"/>
<feBlend mode="normal" in="SourceGraphic" in2="effect1_dropShadow_2537_12840" result="shape"/>
</filter>
<filter id="filter1_d_2537_12840" x="21.9434" y="22.6992" width="45.2227" height="36.791" filterUnits="userSpaceOnUse" color-interpolation-filters="sRGB">
<feFlood flood-opacity="0" result="BackgroundImageFix"/>
<feColorMatrix in="SourceAlpha" type="matrix" values="0 0 0 0 0 0 0 0 0 0 0 0 0 0 0 0 0 0 127 0" result="hardAlpha"/>
<feOffset dy="4"/>
<feGaussianBlur stdDeviation="2"/>
<feComposite in2="hardAlpha" operator="out"/>
<feColorMatrix type="matrix" values="0 0 0 0 0 0 0 0 0 0 0 0 0 0 0 0 0 0 0.25 0"/>
<feBlend mode="normal" in2="BackgroundImageFix" result="effect1_dropShadow_2537_12840"/>
<feBlend mode="normal" in="SourceGraphic" in2="effect1_dropShadow_2537_12840" result="shape"/>
</filter>
<linearGradient id="paint0_linear_2537_12840" x1="72.9688" y1="66.9423" x2="42.7026" y2="92.4547" gradientUnits="userSpaceOnUse">
<stop stop-color="white" stop-opacity="0.4"/>
<stop offset="0.515625" stop-color="white"/>
<stop offset="1" stop-color="white" stop-opacity="0.4"/>
</linearGradient>
</defs>
</svg>
