<svg width="130" height="129" viewBox="0 0 130 129" fill="none" xmlns="http://www.w3.org/2000/svg">
<path d="M76.699 109.415C103.152 109.415 125.756 97.2228 125.756 80.6175C125.756 64.0121 104.312 50.5508 77.8587 50.5508C51.4054 50.5508 8.83984 62.4816 8.83984 87.095C8.83984 103.7 50.2457 109.415 76.699 109.415Z" fill="#27272C"/>
<path d="M76.699 109.415C103.152 109.415 125.756 97.2228 125.756 80.6175C125.756 64.0121 104.312 50.5508 77.8587 50.5508C51.4054 50.5508 8.83984 62.4816 8.83984 87.095C8.83984 103.7 50.2457 109.415 76.699 109.415Z" stroke="url(#paint0_linear_2537_12841)" stroke-width="0.8" stroke-miterlimit="10"/>
<path d="M76.699 109.415C103.152 109.415 125.756 97.2228 125.756 80.6175C125.756 64.0121 104.312 50.5508 77.8587 50.5508C51.4054 50.5508 8.83984 62.4816 8.83984 87.095C8.83984 103.7 50.2457 109.415 76.699 109.415Z" stroke="#794DEC" stroke-width="0.8" stroke-miterlimit="10"/>
<path d="M81.3106 103.14C106.371 103.14 125.095 94.8886 125.095 79.1575C125.095 63.4264 104.78 50.6738 79.7193 50.6738C54.6588 50.6738 33.875 69.073 33.875 84.8041C33.875 100.535 56.2501 103.14 81.3106 103.14Z" fill="#29292E"/>
<path d="M81.3106 103.14C106.371 103.14 125.095 94.8886 125.095 79.1575C125.095 63.4264 104.78 50.6738 79.7193 50.6738C54.6588 50.6738 33.875 69.073 33.875 84.8041C33.875 100.535 56.2501 103.14 81.3106 103.14Z" stroke="url(#paint1_linear_2537_12841)" stroke-width="0.8" stroke-miterlimit="10"/>
<path d="M81.3106 103.14C106.371 103.14 125.095 94.8886 125.095 79.1575C125.095 63.4264 104.78 50.6738 79.7193 50.6738C54.6588 50.6738 33.875 69.073 33.875 84.8041C33.875 100.535 56.2501 103.14 81.3106 103.14Z" stroke="#0FB675" stroke-width="0.8" stroke-miterlimit="10"/>
<path d="M83.0876 96.0707C104.817 96.0707 122.433 86.1553 122.433 73.924C122.433 61.6928 104.817 51.7773 83.0876 51.7773C61.3577 51.7773 52.8496 62.6807 52.8496 74.912C52.8496 87.1433 61.3577 96.0707 83.0876 96.0707Z" fill="#27272C"/>
<path d="M83.0876 96.0707C104.817 96.0707 122.433 86.1553 122.433 73.924C122.433 61.6928 104.817 51.7773 83.0876 51.7773C61.3577 51.7773 52.8496 62.6807 52.8496 74.912C52.8496 87.1433 61.3577 96.0707 83.0876 96.0707Z" stroke="url(#paint2_linear_2537_12841)" stroke-width="0.8" stroke-miterlimit="10"/>
<path d="M83.0876 96.0707C104.817 96.0707 122.433 86.1553 122.433 73.924C122.433 61.6928 104.817 51.7773 83.0876 51.7773C61.3577 51.7773 52.8496 62.6807 52.8496 74.912C52.8496 87.1433 61.3577 96.0707 83.0876 96.0707Z" stroke="#FBB730" stroke-width="0.8" stroke-miterlimit="10"/>
<path d="M108.597 83.1933C117.8 78.4328 123.583 68.258 112.994 61.772C102.405 55.2859 78.3465 48.9678 69.143 53.7283C59.9395 58.4888 49.8782 70.3914 60.4671 76.8775C71.056 83.3635 99.3932 87.9538 108.597 83.1933Z" fill="#25252A"/>
<path d="M108.597 83.1933C117.8 78.4328 123.583 68.258 112.994 61.772C102.405 55.2859 78.3465 48.9678 69.143 53.7283C59.9395 58.4888 49.8782 70.3914 60.4671 76.8775C71.056 83.3635 99.3932 87.9538 108.597 83.1933Z" stroke="url(#paint3_linear_2537_12841)" stroke-width="0.8" stroke-miterlimit="10"/>
<path d="M108.597 83.1933C117.8 78.4328 123.583 68.258 112.994 61.772C102.405 55.2859 78.3465 48.9678 69.143 53.7283C59.9395 58.4888 49.8782 70.3914 60.4671 76.8775C71.056 83.3635 99.3932 87.9538 108.597 83.1933Z" stroke="#EB2467" stroke-width="0.8" stroke-miterlimit="10"/>
<path d="M91.6427 69.077C96.7388 66.4411 99.5681 61.1149 93.7049 57.5235C87.8416 53.9321 75.943 50.6537 70.8469 53.2897C65.7507 55.9257 62.6104 63.7076 68.4736 67.299C74.3369 70.8904 86.5465 71.713 91.6427 69.077Z" fill="#27272C" stroke="url(#paint4_linear_2537_12841)" stroke-width="0.8" stroke-miterlimit="10"/>
<g filter="url(#filter0_d_2537_12841)">
<path d="M18.7117 93.5802C27.9979 96.0685 36.9096 92.9219 38.6164 86.5521C40.3231 80.1823 34.1787 73.0014 24.8924 70.5132C15.6061 68.0249 6.69451 71.1715 4.98773 77.5413C3.28096 83.9111 9.42536 91.0919 18.7117 93.5802Z" fill="#316EFF" stroke="#00D97E" stroke-width="0.8" stroke-miterlimit="10"/>
<path d="M19.4812 90.6857C28.7675 93.1739 37.6791 90.0273 39.3859 83.6575C41.0927 77.2878 34.9483 70.1069 25.662 67.6187C16.3757 65.1304 7.46404 68.277 5.75726 74.6468C4.05049 81.0166 10.1949 88.1974 19.4812 90.6857Z" fill="white" stroke="#00D97E" stroke-width="0.8"/>
<path d="M20.2956 87.8076C27.3826 89.7065 34.1644 87.3774 35.4431 82.6053C36.7218 77.8332 32.0131 72.4253 24.9261 70.5263C17.839 68.6273 11.0572 70.9564 9.7785 75.7285C8.49982 80.5006 13.2085 85.9086 20.2956 87.8076Z" fill="#316EFF" stroke="#00D97E" stroke-width="0.8"/>
<ellipse cx="22.5753" cy="79.1574" rx="12.4858" ry="8.34903" transform="rotate(15 22.5753 79.1574)" fill="#316EFF"/>
<path d="M23.5558 73.495L24.2665 74.182C24.2807 74.203 24.3193 74.217 24.3436 74.2101L25.3104 74.1337C25.3541 74.1337 25.3694 74.0917 25.3552 74.0706L24.884 72.7254C24.8608 72.6693 24.8029 72.6483 24.749 72.6762L23.5234 73.4039C23.5132 73.4319 23.5223 73.467 23.5558 73.495Z" fill="white"/>
<path d="M21.526 74.6872L23.4109 76.4677C23.4251 76.4887 23.4637 76.5028 23.488 76.4958L26.0765 76.3434C26.1202 76.3435 26.1547 76.3085 26.1213 76.2804L25.5763 74.7179C25.5672 74.6829 25.5145 74.6478 25.4657 74.6618L24.1009 74.752C24.0765 74.7589 24.038 74.7449 24.0238 74.7239L23.0606 73.7706C23.0271 73.7425 22.9885 73.7285 22.9398 73.7425L21.518 74.5891C21.5027 74.6311 21.4925 74.6591 21.526 74.6872Z" fill="white"/>
<path d="M19.3154 76.0273L22.5033 79.0276C22.5175 79.0486 22.5561 79.0627 22.5805 79.0557L26.9511 78.8065C26.9948 78.8065 27.0293 78.7715 26.9959 78.7435L26.3771 76.9638C26.368 76.9287 26.3153 76.8937 26.2858 76.9147L23.3186 77.0878C23.2942 77.0948 23.2556 77.0807 23.2414 77.0597L21.0848 75.0058C21.0513 74.9778 21.0127 74.9637 20.9832 74.9847L19.3602 75.9643C19.278 75.9502 19.282 75.9993 19.3154 76.0273Z" fill="white"/>
<path d="M19.3188 82.7358L20.3034 84.9501C20.3318 84.9921 20.3896 85.0132 20.4384 84.9992L22.616 83.9359C22.6749 83.8939 22.6182 83.8099 22.5502 83.8168L20.8066 83.9277C20.7822 83.9347 20.7436 83.9207 20.7294 83.8996L19.465 82.6939C19.3981 82.6378 19.3006 82.6658 19.3188 82.7358Z" fill="white"/>
<path d="M18.6347 81.1401L20.9343 83.3412C20.9485 83.3622 20.9871 83.3763 21.0114 83.3693L24.1879 83.1613L24.2123 83.1543L26.5373 81.9861C26.5962 81.9441 26.5395 81.86 26.4714 81.867L21.4306 82.1577C21.4062 82.1647 21.3676 82.1507 21.3535 82.1297L17.7123 78.6948C17.6454 78.6387 17.5479 78.6666 17.5853 78.7437L18.6205 81.1191C18.6154 81.1331 18.6154 81.1331 18.6347 81.1401Z" fill="white"/>
<path d="M17.2915 77.5614L21.5674 81.5922C21.5815 81.6132 21.6201 81.6272 21.6445 81.6202L27.5109 81.281C27.7343 81.2671 27.8534 81.1201 27.7835 80.952L27.2335 79.4035C27.2244 79.3685 27.1665 79.3474 27.1422 79.3544L22.3593 79.5963C22.3349 79.6033 22.2964 79.5893 22.2822 79.5682L18.8174 76.3086C18.784 76.2805 18.7454 76.2665 18.7159 76.2875L17.2992 77.1201C17.1326 77.2181 17.1292 77.4072 17.2915 77.5614Z" fill="white"/>
</g>
<g filter="url(#filter1_d_2537_12841)">
<path d="M82.4925 98.4208C87.625 95.9926 90.4355 91.1703 88.7699 87.6498C87.1044 84.1293 81.5935 83.2437 76.4611 85.6718C71.3286 88.1 68.5182 92.9223 70.1837 96.4428C71.8492 99.9633 77.3601 100.849 82.4925 98.4208Z" fill="#316EFF" stroke="#FEB92F" stroke-width="0.8" stroke-miterlimit="10"/>
<path d="M81.7386 96.8251C86.8711 94.3969 89.6816 89.5746 88.016 86.0541C86.3505 82.5336 80.8396 81.648 75.7072 84.0761C70.5747 86.5043 67.7642 91.3266 69.4298 94.8471C71.0953 98.3676 76.6062 99.2532 81.7386 96.8251Z" fill="white" stroke="#FEB92F" stroke-width="0.8"/>
<path d="M81.0074 95.2154C84.9244 93.3623 87.0882 89.722 85.8404 87.0845C84.5926 84.447 80.4058 83.8111 76.4888 85.6642C72.5718 87.5173 70.408 91.1576 71.6558 93.7951C72.9036 96.4326 77.0904 97.0685 81.0074 95.2154Z" fill="#316EFF" stroke="#FEB92F" stroke-width="0.8"/>
<ellipse cx="78.7236" cy="90.4463" rx="7.37398" ry="4.93084" transform="rotate(-25.3185 78.7236 90.4463)" fill="#316EFF"/>
<path d="M77.0693 87.3728L77.6248 87.3791C77.6387 87.3823 77.6599 87.3731 77.6671 87.3608L78.0326 86.9565C78.0505 86.9397 78.0405 86.9166 78.0266 86.9135L77.3149 86.5457C77.2838 86.5318 77.252 86.5455 77.2408 86.5778L77.0209 87.3481C77.0276 87.3634 77.0448 87.3742 77.0693 87.3728Z" fill="white"/>
<path d="M76.6956 88.6427L78.1529 88.6427C78.1668 88.6458 78.188 88.6366 78.1952 88.6244L79.1939 87.5632C79.2118 87.5464 79.2124 87.5187 79.1879 87.5202L78.3623 87.0921C78.345 87.0813 78.31 87.0874 78.2954 87.1119L77.7726 87.6754C77.7654 87.6877 77.7442 87.6968 77.7303 87.6937L76.9689 87.676C76.9444 87.6774 76.9232 87.6866 76.9087 87.7111L76.6545 88.6057C76.6645 88.6288 76.6711 88.6441 76.6956 88.6427Z" fill="white"/>
<path d="M76.311 90.0427L78.7713 90.0382C78.7852 90.0413 78.8063 90.0322 78.8136 90.0199L80.503 88.2314C80.5209 88.2146 80.5215 88.1869 80.497 88.1884L79.5574 87.7001C79.5402 87.6893 79.5051 87.6953 79.5011 87.7153L78.3557 88.9311C78.3484 88.9434 78.3273 88.9525 78.3134 88.9494L76.6396 88.9426C76.6151 88.944 76.5939 88.9532 76.59 88.9731L76.305 89.9997C76.2659 90.0257 76.2865 90.0442 76.311 90.0427Z" fill="white"/>
<path d="M78.9023 92.7822L80.1591 93.3068C80.1869 93.313 80.2187 93.2993 80.2332 93.2748L80.7125 92C80.7204 91.9601 80.6648 91.9476 80.6397 91.9767L79.9701 92.6949C79.9629 92.7072 79.9417 92.7163 79.9278 92.7132L78.9459 92.7086C78.8969 92.7115 78.8679 92.7606 78.9023 92.7822Z" fill="white"/>
<path d="M78.0029 92.3967L79.7919 92.4085C79.8058 92.4116 79.827 92.4025 79.8342 92.3902L81.0517 91.0794L81.059 91.0671L81.558 89.6926C81.5658 89.6527 81.5102 89.6402 81.4851 89.6693L79.5379 91.7335C79.5306 91.7457 79.5095 91.7549 79.4956 91.7518L76.6824 91.7536C76.6334 91.7566 76.6043 91.8056 76.6494 91.8227L77.989 92.3936C77.9923 92.4013 77.9923 92.4013 78.0029 92.3967Z" fill="white"/>
<path d="M76.0775 91.4528L79.3799 91.4493C79.3938 91.4525 79.415 91.4433 79.4223 91.431L81.6881 89.0285C81.774 88.9366 81.7659 88.8306 81.6724 88.7888L80.8501 88.3685C80.8329 88.3577 80.8012 88.3714 80.7939 88.3837L78.9332 90.3283C78.926 90.3406 78.9048 90.3497 78.8909 90.3466L76.2174 90.352C76.1929 90.3535 76.1718 90.3626 76.1678 90.3826L75.9104 91.2695C75.8801 91.3738 75.9517 91.4524 76.0775 91.4528Z" fill="white"/>
</g>
<g filter="url(#filter2_d_2537_12841)">
<path d="M89.6746 56.6724C99.707 51.9942 105.239 42.6232 102.03 35.7416C98.8207 28.86 88.0864 27.0738 78.054 31.752C68.0216 36.4302 62.49 45.8013 65.699 52.6829C68.9079 59.5645 79.6422 61.3507 89.6746 56.6724Z" fill="#316EFF" stroke="#794DEC" stroke-width="0.8" stroke-miterlimit="10"/>
<path d="M88.2137 53.5494C98.2461 48.8712 103.778 39.5001 100.569 32.6186C97.3598 25.737 86.6255 23.9508 76.5931 28.629C66.5606 33.3072 61.0291 42.6782 64.238 49.5598C67.447 56.4414 78.1812 58.2276 88.2137 53.5494Z" fill="white" stroke="#794DEC" stroke-width="0.8"/>
<path d="M86.7919 50.4083C94.4484 46.838 98.7064 39.7643 96.3024 34.6088C93.8983 29.4533 85.7426 28.1682 78.086 31.7385C70.4295 35.3088 66.1715 42.3825 68.5756 47.538C70.9797 52.6936 79.1354 53.9786 86.7919 50.4083Z" fill="#316EFF" stroke="#794DEC" stroke-width="0.8"/>
<ellipse cx="82.4086" cy="41.0938" rx="14.3764" ry="9.61321" transform="rotate(-25 82.4086 41.0938)" fill="#316EFF"/>
<path d="M79.1498 34.8575L80.2827 34.9372C80.3107 34.9453 80.355 34.9291 80.3713 34.905L81.1657 34.1238C81.2042 34.0915 81.1866 34.0433 81.1586 34.0352L79.7504 33.1992C79.6885 33.1671 79.6221 33.1912 79.5953 33.2556L79.054 34.8012C79.0657 34.8334 79.0996 34.8576 79.1498 34.8575Z" fill="white"/>
<path d="M78.2413 37.4051L81.2152 37.5801C81.2432 37.5881 81.2875 37.572 81.3038 37.5479L83.4695 35.5022C83.5079 35.47 83.5125 35.4136 83.4624 35.4136L81.8288 34.4409C81.795 34.4168 81.7226 34.4249 81.6901 34.4732L80.5554 35.5605C80.5391 35.5846 80.4948 35.6008 80.4668 35.5927L78.915 35.465C78.8649 35.4651 78.8206 35.4812 78.788 35.5295L78.1618 37.3246C78.1794 37.3729 78.1911 37.4051 78.2413 37.4051Z" fill="white"/>
<path d="M77.2904 40.2174L82.3119 40.5037C82.3399 40.5117 82.3842 40.4956 82.4005 40.4714L86.0632 37.0244C86.1016 36.9922 86.1062 36.9358 86.056 36.9358L84.1971 35.8265C84.1633 35.8024 84.0909 35.8105 84.0805 35.8507L81.5968 38.1944C81.5805 38.2185 81.5362 38.2347 81.5082 38.2266L78.0932 38.0117C78.0431 38.0117 77.9988 38.0278 77.9883 38.0681L77.2833 40.1289C77.2005 40.1772 77.2403 40.2174 77.2904 40.2174Z" fill="white"/>
<path d="M82.2493 46.1164L84.7511 47.3381C84.8071 47.3541 84.8736 47.3299 84.9062 47.2816L86.0375 44.7376C86.0584 44.6572 85.9463 44.625 85.8916 44.6814L84.4389 46.0667C84.4226 46.0908 84.3783 46.1069 84.3503 46.0989L82.347 45.9715C82.2467 45.9716 82.1815 46.0682 82.2493 46.1164Z" fill="white"/>
<path d="M80.4677 45.2203L84.1172 45.4593C84.1452 45.4673 84.1895 45.4512 84.2058 45.427L86.8479 42.8981L86.8642 42.874L88.0477 40.1288C88.0685 40.0483 87.9565 40.0162 87.9017 40.0726L83.6799 44.0512C83.6636 44.0753 83.6193 44.0915 83.5913 44.0834L77.85 43.7493C77.7496 43.7494 77.6845 43.846 77.7744 43.8862L80.4397 45.2123C80.4455 45.2284 80.4455 45.2284 80.4677 45.2203Z" fill="white"/>
<path d="M76.6409 43.0607L83.381 43.4504C83.409 43.4585 83.4533 43.4423 83.4696 43.4182L88.3822 38.7872C88.5686 38.61 88.5648 38.3927 88.3791 38.2963L86.7515 37.3397C86.7176 37.3155 86.6511 37.3397 86.6348 37.3639L82.604 41.109C82.5877 41.1331 82.5434 41.1493 82.5154 41.1412L77.0587 40.8311C77.0086 40.8311 76.9643 40.8472 76.9538 40.8875L76.3218 42.6665C76.2475 42.8758 76.3842 43.0448 76.6409 43.0607Z" fill="white"/>
</g>
<defs>
<filter id="filter0_d_2537_12841" x="0.302734" y="66.3672" width="43.7676" height="36.4648" filterUnits="userSpaceOnUse" color-interpolation-filters="sRGB">
<feFlood flood-opacity="0" result="BackgroundImageFix"/>
<feColorMatrix in="SourceAlpha" type="matrix" values="0 0 0 0 0 0 0 0 0 0 0 0 0 0 0 0 0 0 127 0" result="hardAlpha"/>
<feOffset dy="4"/>
<feGaussianBlur stdDeviation="2"/>
<feComposite in2="hardAlpha" operator="out"/>
<feColorMatrix type="matrix" values="0 0 0 0 0 0 0 0 0 0 0 0 0 0 0 0 0 0 0.25 0"/>
<feBlend mode="normal" in2="BackgroundImageFix" result="effect1_dropShadow_2537_12841"/>
<feBlend mode="normal" in="SourceGraphic" in2="effect1_dropShadow_2537_12841" result="shape"/>
</filter>
<filter id="filter1_d_2537_12841" x="64.5508" y="82.3066" width="29.0996" height="25.8848" filterUnits="userSpaceOnUse" color-interpolation-filters="sRGB">
<feFlood flood-opacity="0" result="BackgroundImageFix"/>
<feColorMatrix in="SourceAlpha" type="matrix" values="0 0 0 0 0 0 0 0 0 0 0 0 0 0 0 0 0 0 127 0" result="hardAlpha"/>
<feOffset dy="4"/>
<feGaussianBlur stdDeviation="2"/>
<feComposite in2="hardAlpha" operator="out"/>
<feColorMatrix type="matrix" values="0 0 0 0 0 0 0 0 0 0 0 0 0 0 0 0 0 0 0.25 0"/>
<feBlend mode="normal" in2="BackgroundImageFix" result="effect1_dropShadow_2537_12841"/>
<feBlend mode="normal" in="SourceGraphic" in2="effect1_dropShadow_2537_12841" result="shape"/>
</filter>
<filter id="filter2_d_2537_12841" x="58.9258" y="25.6211" width="48.416" height="42.0586" filterUnits="userSpaceOnUse" color-interpolation-filters="sRGB">
<feFlood flood-opacity="0" result="BackgroundImageFix"/>
<feColorMatrix in="SourceAlpha" type="matrix" values="0 0 0 0 0 0 0 0 0 0 0 0 0 0 0 0 0 0 127 0" result="hardAlpha"/>
<feOffset dy="4"/>
<feGaussianBlur stdDeviation="2"/>
<feComposite in2="hardAlpha" operator="out"/>
<feColorMatrix type="matrix" values="0 0 0 0 0 0 0 0 0 0 0 0 0 0 0 0 0 0 0.25 0"/>
<feBlend mode="normal" in2="BackgroundImageFix" result="effect1_dropShadow_2537_12841"/>
<feBlend mode="normal" in="SourceGraphic" in2="effect1_dropShadow_2537_12841" result="shape"/>
</filter>
<linearGradient id="paint0_linear_2537_12841" x1="113.644" y1="90.811" x2="14.0952" y2="90.811" gradientUnits="userSpaceOnUse">
<stop stop-color="white" stop-opacity="0.4"/>
<stop offset="0.515625" stop-color="white"/>
<stop offset="1" stop-color="white" stop-opacity="0.4"/>
</linearGradient>
<linearGradient id="paint1_linear_2537_12841" x1="113.62" y1="88.8144" x2="19.312" y2="88.8144" gradientUnits="userSpaceOnUse">
<stop stop-color="white" stop-opacity="0.4"/>
<stop offset="0.515625" stop-color="white"/>
<stop offset="1" stop-color="white" stop-opacity="0.4"/>
</linearGradient>
<linearGradient id="paint2_linear_2537_12841" x1="113.636" y1="81.4325" x2="41.3264" y2="81.4325" gradientUnits="userSpaceOnUse">
<stop stop-color="white" stop-opacity="0.4"/>
<stop offset="0.515625" stop-color="white"/>
<stop offset="1" stop-color="white" stop-opacity="0.4"/>
</linearGradient>
<linearGradient id="paint3_linear_2537_12841" x1="105.568" y1="61.9715" x2="88.1389" y2="90.4253" gradientUnits="userSpaceOnUse">
<stop stop-color="white" stop-opacity="0.4"/>
<stop offset="0.515625" stop-color="white"/>
<stop offset="1" stop-color="white" stop-opacity="0.4"/>
</linearGradient>
<linearGradient id="paint4_linear_2537_12841" x1="91.9522" y1="58.4295" x2="82.3016" y2="74.1848" gradientUnits="userSpaceOnUse">
<stop stop-color="white" stop-opacity="0.4"/>
<stop offset="0.515625" stop-color="white"/>
<stop offset="1" stop-color="white" stop-opacity="0.4"/>
</linearGradient>
</defs>
</svg>
