<svg width="86" height="84" viewBox="0 0 86 84" fill="none" xmlns="http://www.w3.org/2000/svg">
<g filter="url(#filter0_d_1354_9033)">
<path d="M40 71C58.2254 71 73 55.33 73 36C73 16.67 58.2254 1 40 1C21.7746 1 7 16.67 7 36C7 55.33 21.7746 71 40 71Z" fill="#242326" stroke="#794DEC" stroke-miterlimit="10"/>
<path d="M46.2193 71.0039C64.4623 71.0039 79.2512 55.333 79.2512 36.002C79.2512 16.6709 64.4623 1 46.2193 1C27.9764 1 13.1875 16.6709 13.1875 36.002C13.1875 55.333 27.9764 71.0039 46.2193 71.0039Z" fill="#242326" stroke="#794DEC"/>
<path d="M46.2951 62.2168C60.2177 62.2168 71.5043 50.4765 71.5043 35.9941C71.5043 21.5118 60.2177 9.77148 46.2951 9.77148C32.3725 9.77148 21.0859 21.5118 21.0859 35.9941C21.0859 50.4765 32.3725 62.2168 46.2951 62.2168Z" fill="#242326" stroke="#794DEC"/>
</g>
<path d="M46.3242 61.7073C42.9852 61.7073 39.7456 61.0263 36.6946 59.6844C33.7482 58.3878 31.1039 56.532 28.8313 54.1696C26.5605 51.8071 24.7766 49.0542 23.5304 45.989C22.2405 42.8149 21.5859 39.4446 21.5859 35.9708C21.5859 32.497 22.2405 29.1268 23.5304 25.9526C24.7766 22.8874 26.5605 20.1364 28.8313 17.7721C31.1039 15.4096 33.7482 13.5538 36.6946 12.2573C39.7456 10.9153 42.9852 10.2344 46.3242 10.2344C49.6633 10.2344 52.9028 10.9153 55.9539 12.2573C58.9002 13.5538 61.5446 15.4096 63.8171 17.7721C66.088 20.1345 67.8718 22.8874 69.1181 25.9526C70.408 29.1268 71.0625 32.497 71.0625 35.9708C71.0625 39.4446 70.408 42.8149 69.1181 45.989C67.8718 49.0542 66.088 51.8053 63.8171 54.1696C61.5463 56.532 58.9002 58.3878 55.9539 59.6844C52.9028 61.0281 49.6633 61.7073 46.3242 61.7073Z" fill="white"/>
<path d="M46.3259 60.3431C59.2645 60.3431 69.7533 49.4311 69.7533 35.9704C69.7533 22.5097 59.2645 11.5977 46.3259 11.5977C33.3873 11.5977 22.8984 22.5097 22.8984 35.9704C22.8984 49.4311 33.3873 60.3431 46.3259 60.3431Z" fill="black"/>
<path d="M46.9219 26.2751C50.0515 26.5656 52.5143 29.2622 52.5911 32.5744L57.3928 34.6499L54.8899 30.4044L60.2117 24.8678L57.0315 21.5592L52.4724 26.3041L46.9236 16.8906V26.2751H46.9219Z" fill="white"/>
<path d="M52.5091 33.8086C52.0483 36.6922 49.7582 38.9312 46.9219 39.1963V42.6247L57.4888 35.9622L52.5091 33.8086Z" fill="white"/>
<path d="M40.2141 33.8086L35.2344 35.9604L45.8013 42.6229V39.1945C42.965 38.9312 40.6749 36.6922 40.2141 33.8086Z" fill="white"/>
<path d="M57.3701 39.4551L46.9219 46.0431V54.7684L51.2209 48.4655L55.7085 53.1341L58.8887 49.8256L53.8618 44.5958L57.3701 39.4551Z" fill="white"/>
<path d="M45.7871 46.0431L35.3389 39.4551L38.8472 44.5958L33.8203 49.8256L37.0005 53.1341L41.4881 48.4673L45.7871 54.7666V46.0431Z" fill="white"/>
<path d="M35.3267 34.6517L40.1285 32.5762C40.2053 29.264 42.6681 26.5674 45.7977 26.2769V16.8906L40.2489 26.3041L35.688 21.5592L32.5078 24.8696L37.8297 30.4062L35.3267 34.6517Z" fill="white"/>
<path d="M46.5718 31.9891C45.0306 31.497 45.0306 31.2247 45.0306 31.0049C45.0306 30.6999 45.4739 30.2786 46.3065 30.2786C46.7987 30.2786 47.6261 30.4057 47.6261 31.2628H49.1254C49.1254 29.7411 47.9926 28.7188 46.3065 28.7188C44.5035 28.7188 43.5312 29.8973 43.5312 31.0049C43.5312 32.5194 44.8089 33.0569 46.1215 33.4782C47.6627 33.9703 47.6715 34.2463 47.6715 34.466C47.6715 34.7711 47.2281 35.1924 46.3955 35.1924C45.9016 35.1924 45.076 35.0652 45.076 34.2081H43.5766C43.5766 35.7299 44.7094 36.7522 46.3955 36.7522C48.1986 36.7522 49.1708 35.5737 49.1708 34.466C49.1725 32.9497 47.8862 32.4086 46.5718 31.9891Z" fill="white"/>
<defs>
<filter id="filter0_d_1354_9033" x="0.5" y="0.5" width="85.251" height="83.0039" filterUnits="userSpaceOnUse" color-interpolation-filters="sRGB">
<feFlood flood-opacity="0" result="BackgroundImageFix"/>
<feColorMatrix in="SourceAlpha" type="matrix" values="0 0 0 0 0 0 0 0 0 0 0 0 0 0 0 0 0 0 127 0" result="hardAlpha"/>
<feOffset dy="6"/>
<feGaussianBlur stdDeviation="3"/>
<feComposite in2="hardAlpha" operator="out"/>
<feColorMatrix type="matrix" values="0 0 0 0 0.141176 0 0 0 0 0.137255 0 0 0 0 0.14902 0 0 0 0.1 0"/>
<feBlend mode="normal" in2="BackgroundImageFix" result="effect1_dropShadow_1354_9033"/>
<feBlend mode="normal" in="SourceGraphic" in2="effect1_dropShadow_1354_9033" result="shape"/>
</filter>
</defs>
</svg>
