<svg width="86" height="84" viewBox="0 0 86 84" fill="none" xmlns="http://www.w3.org/2000/svg">
<g filter="url(#filter0_d_1354_9148)">
<path d="M40 71C58.2254 71 73 55.33 73 36C73 16.67 58.2254 1 40 1C21.7746 1 7 16.67 7 36C7 55.33 21.7746 71 40 71Z" fill="#F66E30" stroke="#794DEC" stroke-miterlimit="10"/>
<path d="M46.2193 71.0039C64.4623 71.0039 79.2512 55.333 79.2512 36.002C79.2512 16.6709 64.4623 1 46.2193 1C27.9764 1 13.1875 16.6709 13.1875 36.002C13.1875 55.333 27.9764 71.0039 46.2193 71.0039Z" fill="#242326" stroke="#794DEC"/>
<path d="M46.2951 62.2168C60.2177 62.2168 71.5043 50.4765 71.5043 35.9941C71.5043 21.5118 60.2177 9.77148 46.2951 9.77148C32.3725 9.77148 21.0859 21.5118 21.0859 35.9941C21.0859 50.4765 32.3725 62.2168 46.2951 62.2168Z" fill="#F66E30" stroke="#794DEC"/>
</g>
<mask id="mask0_1354_9148" style="mask-type:luminance" maskUnits="userSpaceOnUse" x="21" y="10" width="50" height="52">
<path d="M70.9333 10.1328H21.7188V61.8572H70.9333V10.1328Z" fill="white"/>
</mask>
<g mask="url(#mask0_1354_9148)">
<path opacity="0.34" d="M46.3182 61.8572C59.9084 61.8572 70.9254 50.2783 70.9254 35.995C70.9254 21.7118 59.9084 10.1328 46.3182 10.1328C32.728 10.1328 21.7109 21.7118 21.7109 35.995C21.7109 50.2783 32.728 61.8572 46.3182 61.8572Z" fill="url(#paint0_radial_1354_9148)"/>
<path d="M46.284 41.5752L36.9219 35.7545L46.284 19.4316L55.6378 35.7545L46.284 41.5752Z" fill="white"/>
<path d="M46.284 51.4855L36.9219 37.627L46.284 43.4389L55.6463 37.627L46.284 51.4855Z" fill="white"/>
</g>
<defs>
<filter id="filter0_d_1354_9148" x="0.5" y="0.5" width="85.251" height="83.0039" filterUnits="userSpaceOnUse" color-interpolation-filters="sRGB">
<feFlood flood-opacity="0" result="BackgroundImageFix"/>
<feColorMatrix in="SourceAlpha" type="matrix" values="0 0 0 0 0 0 0 0 0 0 0 0 0 0 0 0 0 0 127 0" result="hardAlpha"/>
<feOffset dy="6"/>
<feGaussianBlur stdDeviation="3"/>
<feComposite in2="hardAlpha" operator="out"/>
<feColorMatrix type="matrix" values="0 0 0 0 0.141176 0 0 0 0 0.137255 0 0 0 0 0.14902 0 0 0 0.1 0"/>
<feBlend mode="normal" in2="BackgroundImageFix" result="effect1_dropShadow_1354_9148"/>
<feBlend mode="normal" in="SourceGraphic" in2="effect1_dropShadow_1354_9148" result="shape"/>
</filter>
<radialGradient id="paint0_radial_1354_9148" cx="0" cy="0" r="1" gradientUnits="userSpaceOnUse" gradientTransform="translate(37.7877 22.5036) rotate(55.5091) scale(42.151 41.4509)">
<stop stop-color="#FFD794"/>
<stop offset="1" stop-color="#ED5A37"/>
</radialGradient>
</defs>
</svg>
