<svg width="86" height="84" viewBox="0 0 86 84" fill="none" xmlns="http://www.w3.org/2000/svg">
<g filter="url(#filter0_d_1354_8977)">
<path d="M40 71C58.2254 71 73 55.33 73 36C73 16.67 58.2254 1 40 1C21.7746 1 7 16.67 7 36C7 55.33 21.7746 71 40 71Z" fill="#0052FF" stroke="#794DEC" stroke-miterlimit="10"/>
<path d="M46.2193 71.0039C64.4623 71.0039 79.2512 55.333 79.2512 36.002C79.2512 16.6709 64.4623 1 46.2193 1C27.9764 1 13.1875 16.6709 13.1875 36.002C13.1875 55.333 27.9764 71.0039 46.2193 71.0039Z" fill="#242326" stroke="#794DEC"/>
<path d="M46.2951 62.2168C60.2177 62.2168 71.5043 50.4765 71.5043 35.9941C71.5043 21.5118 60.2177 9.77148 46.2951 9.77148C32.3725 9.77148 21.0859 21.5118 21.0859 35.9941C21.0859 50.4765 32.3725 62.2168 46.2951 62.2168Z" fill="white" stroke="#794DEC"/>
</g>
<path d="M46.3388 10.7695C33.1268 10.7695 22.375 21.9678 22.375 35.8346C22.375 49.7013 33.0813 60.8996 46.3388 60.8996C59.5508 60.8996 70.3027 49.7013 70.3027 35.8346C70.3027 21.9678 59.5964 10.7695 46.3388 10.7695Z" fill="white"/>
<path d="M46.3438 12.6287C58.5535 12.6287 68.4852 23.0168 68.4852 35.7876C68.4852 48.5584 58.5535 58.9465 46.3438 58.9465C34.134 58.9465 24.2023 48.606 24.2023 35.7876C24.2023 23.0168 34.134 12.6287 46.3438 12.6287ZM46.3438 9.76953C32.6306 9.76953 21.4688 21.4443 21.4688 35.7876C21.4688 50.1309 32.6306 61.8057 46.3438 61.8057C60.1025 61.8057 71.2188 50.1309 71.2188 35.7876C71.2188 21.4443 60.1025 9.76953 46.3438 9.76953Z" fill="#0052FF"/>
<path d="M47.1016 16.3008V30.7394L58.8101 36.1717L47.1016 16.3008Z" fill="#6697FF"/>
<path d="M47.1083 16.3008L35.4453 36.1717L47.1083 30.7394V16.3008Z" fill="#0052FF"/>
<path d="M47.1016 45.5095V55.3259L58.8101 38.457L47.1016 45.5095Z" fill="#6697FF"/>
<path d="M47.1083 55.3259V45.5095L35.4453 38.457L47.1083 55.3259Z" fill="#0052FF"/>
<path d="M47.1016 43.2708L58.8101 36.1706L47.1016 30.7383V43.2708Z" fill="#CCDCFF"/>
<path d="M35.4453 36.1706L47.1083 43.2708V30.7383L35.4453 36.1706Z" fill="#6697FF"/>
<defs>
<filter id="filter0_d_1354_8977" x="0.5" y="0.5" width="85.251" height="83.0039" filterUnits="userSpaceOnUse" color-interpolation-filters="sRGB">
<feFlood flood-opacity="0" result="BackgroundImageFix"/>
<feColorMatrix in="SourceAlpha" type="matrix" values="0 0 0 0 0 0 0 0 0 0 0 0 0 0 0 0 0 0 127 0" result="hardAlpha"/>
<feOffset dy="6"/>
<feGaussianBlur stdDeviation="3"/>
<feComposite in2="hardAlpha" operator="out"/>
<feColorMatrix type="matrix" values="0 0 0 0 0.141176 0 0 0 0 0.137255 0 0 0 0 0.14902 0 0 0 0.1 0"/>
<feBlend mode="normal" in2="BackgroundImageFix" result="effect1_dropShadow_1354_8977"/>
<feBlend mode="normal" in="SourceGraphic" in2="effect1_dropShadow_1354_8977" result="shape"/>
</filter>
</defs>
</svg>
