<svg width="67" height="25" viewBox="0 0 67 25" fill="none" xmlns="http://www.w3.org/2000/svg">
<ellipse cx="12.0762" cy="12.5" rx="12" ry="12" fill="white"/>
<path d="M7.37175 11.0417L7.24678 11.2292C5.80963 13.4787 6.12205 16.4154 8.05908 18.29C9.12133 19.4147 10.621 19.9771 12.1206 19.9771C12.1206 19.9771 12.1206 19.9771 7.37175 11.0417Z" fill="#00A3FF"/>
<path opacity="0.6" d="M12.1209 13.7285L7.37207 10.9791C12.1209 19.9769 12.1209 19.9769 12.1209 19.9769C12.1209 18.0399 12.1209 15.7905 12.1209 13.7285Z" fill="#00A3FF"/>
<path opacity="0.6" d="M16.869 11.0417L16.9939 11.2292C18.4311 13.4787 18.1187 16.4154 16.1816 18.29C15.0569 19.4147 13.6198 19.9771 12.1201 19.9771C12.1201 19.9771 12.1201 19.9771 16.869 11.0417Z" fill="#00A3FF"/>
<path opacity="0.2" d="M12.1201 13.7285L16.869 10.9791C12.1201 19.9769 12.1201 19.9769 12.1201 19.9769C12.1201 18.0399 12.1201 15.7905 12.1201 13.7285Z" fill="#00A3FF"/>
<path opacity="0.2" d="M12.1201 7.66724V12.3536L16.2441 10.0417L12.1201 7.66724Z" fill="#00A3FF"/>
<path opacity="0.6" d="M12.1211 7.66724L7.99707 10.0417L12.1211 12.3536V7.66724Z" fill="#00A3FF"/>
<path d="M12.1211 3.73083L7.99707 10.0418L12.1211 7.66738V3.73083Z" fill="#00A3FF"/>
<path opacity="0.6" d="M12.1201 7.66738L16.2441 10.0418L12.1201 3.73083V7.66738Z" fill="#00A3FF"/>
<ellipse cx="26.1328" cy="12.5" rx="12" ry="12" fill="#D9D9D9"/>
<ellipse cx="26.1328" cy="12.5" rx="12" ry="12" fill="url(#paint0_radial_541_3214)"/>
<path d="M26.1388 15.0893L21.5732 12.3885L26.1388 4.8147L30.7003 12.3885L26.1388 15.0893Z" fill="white"/>
<path d="M26.1388 19.6876L21.5732 13.2573L26.1388 15.954L30.7044 13.2573L26.1388 19.6876Z" fill="white"/>
<path d="M52.1904 12.5C52.1904 19.1274 46.8178 24.5 40.1904 24.5C33.563 24.5 28.1904 19.1274 28.1904 12.5C28.1904 5.87258 33.563 0.5 40.1904 0.5C46.8178 0.5 52.1904 5.87258 52.1904 12.5Z" fill="white"/>
<path fill-rule="evenodd" clip-rule="evenodd" d="M40.1904 23.5C46.2656 23.5 51.1904 18.5751 51.1904 12.5C51.1904 6.42487 46.2656 1.5 40.1904 1.5C34.1153 1.5 29.1904 6.42487 29.1904 12.5C29.1904 18.5751 34.1153 23.5 40.1904 23.5ZM40.1904 24.5C46.8178 24.5 52.1904 19.1274 52.1904 12.5C52.1904 5.87258 46.8178 0.5 40.1904 0.5C33.563 0.5 28.1904 5.87258 28.1904 12.5C28.1904 19.1274 33.563 24.5 40.1904 24.5Z" fill="#0052FF"/>
<path d="M40.2234 3.8429L40.1084 4.23356V15.5688L40.2234 15.6835L45.485 12.5734L40.2234 3.8429Z" fill="#6697FF"/>
<path d="M40.2236 3.8429L34.9619 12.5734L40.2236 15.6835V10.1817V3.8429Z" fill="#0052FF"/>
<path d="M40.224 16.6797L40.1592 16.7588V20.7965L40.224 20.9858L45.4888 13.5712L40.224 16.6797Z" fill="#6697FF"/>
<path d="M40.2236 20.9858V16.6797L34.9619 13.5712L40.2236 20.9858Z" fill="#0052FF"/>
<path d="M40.2236 15.6834L45.4852 12.5733L40.2236 10.1816V15.6834Z" fill="#CCDCFF"/>
<path d="M34.9619 12.5733L40.2236 15.6834V10.1816L34.9619 12.5733Z" fill="#6697FF"/>
<g clip-path="url(#clip0_541_3214)">
<path d="M54.2471 24.5C52.6274 24.5 51.0559 24.1825 49.5759 23.5568C48.1467 22.9523 46.864 22.087 45.7616 20.9854C44.6601 19.8839 43.7948 18.6003 43.1903 17.1711C42.5646 15.6911 42.2471 14.1197 42.2471 12.5C42.2471 10.8803 42.5646 9.30886 43.1903 7.82886C43.7948 6.39967 44.6601 5.11695 45.7616 4.01457C46.864 2.91304 48.1467 2.04773 49.5759 1.4432C51.0559 0.817505 52.6274 0.5 54.2471 0.5C55.8668 0.5 57.4382 0.817505 58.9182 1.4432C60.3474 2.04773 61.6301 2.91304 62.7325 4.01457C63.834 5.1161 64.6993 6.39967 65.3039 7.82886C65.9296 9.30886 66.2471 10.8803 66.2471 12.5C66.2471 14.1197 65.9296 15.6911 65.3039 17.1711C64.6993 18.6003 63.834 19.8831 62.7325 20.9854C61.631 22.087 60.3474 22.9523 58.9182 23.5568C57.4382 24.1833 55.8668 24.5 54.2471 24.5Z" fill="white"/>
<path d="M54.247 23.8642C60.5232 23.8642 65.6111 18.7763 65.6111 12.5C65.6111 6.22376 60.5232 1.13586 54.247 1.13586C47.9707 1.13586 42.8828 6.22376 42.8828 12.5C42.8828 18.7763 47.9707 23.8642 54.247 23.8642Z" fill="black"/>
<path d="M54.5264 10.3655V15.6014L59.6522 12.4949L54.5264 10.3655Z" fill="white"/>
<path d="M54.5264 9.77449L59.6056 11.8853L58.3915 9.90572L60.973 7.3242L59.4303 5.7807L57.2188 7.99307L54.5264 3.60388V9.77449Z" fill="white"/>
<path d="M53.9813 15.6014V10.3655L48.8555 12.4949L53.9813 15.6014Z" fill="white"/>
<path d="M48.9016 11.8853L53.9808 9.77449V3.60388L51.2892 7.99307L49.0768 5.7807L47.5342 7.3242L50.1157 9.90488L48.9016 11.8853Z" fill="white"/>
<path d="M59.5946 14.1248L54.5264 17.1965V21.2648L56.6117 18.326L58.7886 20.5028L60.3312 18.9601L57.8928 16.5217L59.5946 14.1248Z" fill="white"/>
<path d="M53.9806 17.1965L48.9124 14.1248L50.6142 16.5217L48.1758 18.9601L49.7184 20.5028L51.8952 18.3268L53.9806 21.264V17.1965Z" fill="white"/>
<ellipse cx="54.2274" cy="9.98281" rx="2.28604" ry="2.28604" fill="black"/>
<path d="M54.2303 10.9302C54.3728 10.9302 54.4885 10.9145 54.5774 10.8832C54.746 10.823 54.8303 10.7113 54.8303 10.548C54.8303 10.4526 54.7885 10.3787 54.7048 10.3265C54.6212 10.2755 54.4898 10.2304 54.3107 10.1912L54.0048 10.1226C53.7041 10.0547 53.4963 9.98082 53.3812 9.90111C53.1864 9.76782 53.0891 9.55939 53.0891 9.27582C53.0891 9.01708 53.1832 8.80211 53.3714 8.63093C53.5597 8.45974 53.8361 8.37415 54.2009 8.37415C54.5055 8.37415 54.765 8.45517 54.9793 8.61721C55.195 8.77794 55.3081 9.01185 55.3186 9.31894H54.7382C54.7277 9.14514 54.6519 9.02165 54.5107 8.94847C54.4166 8.90012 54.2996 8.87595 54.1597 8.87595C54.0041 8.87595 53.8799 8.90731 53.7871 8.97003C53.6943 9.03276 53.6479 9.12031 53.6479 9.2327C53.6479 9.33593 53.6937 9.41303 53.7852 9.46399C53.844 9.49797 53.9695 9.53783 54.1617 9.58356L54.6597 9.70313C54.878 9.75541 55.0427 9.82532 55.1539 9.91287C55.3264 10.0488 55.4127 10.2454 55.4127 10.5029C55.4127 10.7668 55.3114 10.9864 55.1088 11.1615C54.9074 11.3353 54.6225 11.4222 54.2538 11.4222C53.8773 11.4222 53.5812 11.3366 53.3655 11.1654C53.1498 10.9929 53.042 10.7564 53.042 10.4558H53.6185C53.6368 10.5878 53.6727 10.6865 53.7263 10.7518C53.8244 10.8707 53.9924 10.9302 54.2303 10.9302Z" fill="white"/>
</g>
<defs>
<radialGradient id="paint0_radial_541_3214" cx="0" cy="0" r="1" gradientUnits="userSpaceOnUse" gradientTransform="translate(31.2328 3.32857) rotate(126.938) scale(21.6086)">
<stop stop-color="#FFD794"/>
<stop offset="1" stop-color="#ED5A37"/>
</radialGradient>
<clipPath id="clip0_541_3214">
<rect width="24" height="24" fill="white" transform="translate(42.2471 0.5)"/>
</clipPath>
</defs>
</svg>
